<svg width="24" height="24" viewBox="0 0 24 24" fill="none" xmlns="http://www.w3.org/2000/svg">
<path d="M0 4C0 1.79086 1.79086 0 4 0H24V14C24 19.5228 19.5228 24 14 24H0V4Z" fill="#C51821"/>
<path d="M17.4971 5.64036L4 3L11.1031 22L21 9.18181L17.4971 5.64036ZM17.2799 6.80377L19.3445 8.88983L13.6975 9.97688L17.2799 6.80377ZM12.4713 9.75947L6.51924 4.51199L16.2472 6.41477L12.4713 9.75947ZM12.047 10.6875L11.0769 19.2168L5.844 5.21812L12.047 10.6875ZM12.9454 11.1403L19.1982 9.93645L12.0259 19.2258L12.9454 11.1403Z" fill="white"/>
</svg>
