<svg width="24" height="24" viewBox="0 0 24 24" fill="none" xmlns="http://www.w3.org/2000/svg">
<path d="M0 4C0 1.79086 1.79086 0 4 0H24V14C24 19.5228 19.5228 24 14 24H0V4Z" fill="black"/>
<path d="M8.50426 10.5637L12 7.068L15.4974 10.5653L17.5314 8.53126L12 3L6.4704 8.5296L8.50433 10.5636L8.50426 10.5637ZM3 12L5.03407 9.96564L7.068 11.9996L5.03393 14.0336L3 12ZM8.50426 13.4365L12 16.932L15.4973 13.4348L17.5324 15.4677L17.5314 15.4688L12 21L6.4704 15.4704L6.46752 15.4675L8.50447 13.4363L8.50426 13.4365ZM16.932 12.0009L18.9661 9.96679L21 12.0007L18.966 14.0348L16.932 12.0009Z" fill="#F3BA2F"/>
<path d="M14.0635 11.9995H14.0644L12.0006 9.93555L10.4751 11.4606L10.2999 11.6359L9.93843 11.9974L9.93555 12.0002L9.93843 12.0032L12.0006 14.0656L14.0645 12.0017L14.0655 12.0005L14.0637 11.9995" fill="#F3BA2F"/>
</svg>
