<svg width="55" height="55" viewBox="0 0 55 55" fill="none" xmlns="http://www.w3.org/2000/svg">
<path d="M54.9969 13.7495H54.9984L27.4997 0L0.0510958 13.7244H0V41.2502L27.4998 55L55 41.2502V13.7495H54.9969H54.9969ZM27.4997 3.33112L48.1785 13.6971L40.304 17.6672L19.5259 7.33211L27.4997 3.33112ZM15.9225 9.28256L36.9673 19.4228L27.4982 24.0094L6.82128 13.7495L15.9225 9.28256H15.9225ZM3.43727 17.2276H4.53022L3.43727 17.1874V15.4687L25.7815 26.6415V50.7049L3.43727 39.5322V17.2276ZM51.5621 18.9067V39.5323L29.2179 50.7049V26.6416L51.5622 15.4688V18.9067H51.5621Z" fill="#4B5954"/>
</svg>
