<svg width="113" height="130" viewBox="0 0 113 130" fill="none" xmlns="http://www.w3.org/2000/svg">
<ellipse cx="56.542" cy="124" rx="42.5" ry="6" fill="#E7D9FD"/>
<path fill-rule="evenodd" clip-rule="evenodd" d="M97.8816 0L96.6543 19.029L104.857 6.2936L97.8816 0ZM107.228 11.9675L97.1718 20.58L109.214 17.5271L107.228 11.9675ZM54.3726 79.689C54.005 79.5639 53.5998 79.6881 53.3635 79.9969L45.7683 88.6123C45.3829 89.1148 44.7732 89.4147 44.1374 89.4147C43.7799 89.4147 43.4284 89.3223 43.1194 89.1444L12.9022 71.8999C12.6222 71.7401 12.2764 71.7412 11.9983 71.9039C11.7183 72.0648 11.5474 72.3638 11.5474 72.6866V88.137C11.5474 88.4607 11.7192 88.7596 11.9993 88.9217L53.6287 112.428C53.7688 112.509 53.9257 112.55 54.0827 112.55C54.2385 112.55 54.3945 112.509 54.5356 112.429C54.8157 112.267 54.9885 111.967 54.9885 111.644V80.547C54.9884 80.1589 54.7401 79.8139 54.3726 79.689ZM100.084 71.9039C99.8064 71.7412 99.4617 71.7401 99.1806 71.8999L68.9614 89.1466C68.6547 89.3223 68.3038 89.4147 67.9463 89.4147C67.3096 89.4147 66.6998 89.1158 66.3154 88.6132L58.7202 79.9969C58.4838 79.6881 58.0776 79.5639 57.7102 79.689C57.3427 79.8141 57.0953 80.1589 57.0953 80.547V111.644C57.0953 111.967 57.2672 112.267 57.5483 112.429C57.6883 112.509 57.8441 112.55 58.0011 112.55C58.1571 112.55 58.314 112.509 58.454 112.428L100.083 88.9218C100.363 88.7598 100.535 88.4608 100.535 88.1371V72.6867C100.535 72.3638 100.364 72.0648 100.084 71.9039ZM112.072 37.1241C112.023 36.8307 111.833 36.5793 111.564 36.4523L70.6647 16.16C70.3369 16.006 69.9487 16.0612 69.6775 16.3011L57.9879 27.6456L56.542 29C56.292 29.25 56.167 29.375 56.042 29.375C55.917 29.375 55.792 29.25 55.542 29L54.0936 27.6461L42.4061 16.301C42.1349 16.0612 41.7476 16.006 41.4199 16.1599L0.519514 36.4522C0.250256 36.5792 0.060561 36.8306 0.0118261 37.124C-0.0358855 37.417 0.0624799 37.716 0.275967 37.9225L12.4809 49.7206L10.5581 50.7418C10.4061 50.8221 10.2799 50.9453 10.1945 51.0953L3.56577 62.8016C3.32043 63.2361 3.47226 63.7874 3.90538 64.0346L42.9107 86.2983C43.3041 86.5238 43.8036 86.4227 44.0788 86.0631L53.3207 75.2983C53.4807 75.0879 53.5422 74.8195 53.4886 74.5614C53.434 74.3031 53.2702 74.0807 53.0386 73.9535L13.3183 52.6195L54.5663 30.7322L54.5675 57.6443L44.4414 63.5124C44.1592 63.6758 43.9865 63.9791 43.9893 64.3056C43.9934 64.6322 44.1721 64.9312 44.4582 65.0892L55.6034 71.2318C55.8755 71.3829 56.2053 71.3829 56.4785 71.2318L67.6246 65.0892C67.9106 64.9312 68.0894 64.6322 68.0934 64.305C68.0964 63.9787 67.9246 63.676 67.6415 63.5125L57.5154 57.6445L57.5164 30.7318L98.7645 52.6197L59.0442 73.9537C58.8126 74.0808 58.6488 74.3033 58.5942 74.5615C58.5405 74.8196 58.6012 75.088 58.762 75.2984L68.0041 86.0632C68.1808 86.2937 68.45 86.4177 68.7241 86.4177C68.877 86.4177 69.032 86.3789 69.1721 86.2983L108.177 64.0348C108.611 63.7875 108.763 63.2362 108.517 62.8017L101.887 51.0949C101.802 50.945 101.676 50.8223 101.524 50.7419L99.6037 49.7208L111.808 37.9227C112.021 37.7161 112.12 37.417 112.072 37.1241ZM12.6016 19.029L11.3743 0L4.39928 6.2936L12.6016 19.029ZM12.084 20.58L2.02799 11.9675L0.0416495 17.5271L12.084 20.58Z" fill="#E7D9FD"/>
</svg>
