<svg width="2500" height="600" viewBox="0 0 2500 600" fill="none" xmlns="http://www.w3.org/2000/svg">
<mask id="mask0_691_340" style="mask-type:alpha" maskUnits="userSpaceOnUse" x="0" y="0" width="2500" height="600">
<rect width="2500" height="600" fill="#D9D9D9"/>
</mask>
<g mask="url(#mask0_691_340)">
<path d="M2217.96 0H283.035L-2612 594.141H5113L2217.96 0Z" stroke="#A5FFBE" stroke-opacity="0.3" stroke-width="1.32403" stroke-miterlimit="10"/>
<path d="M4898.84 550.234H-2398.07" stroke="#A5FFBE" stroke-opacity="0.3" stroke-width="1.32403" stroke-miterlimit="10"/>
<path d="M4707.33 510.765H-2206.33" stroke="#A5FFBE" stroke-opacity="0.3" stroke-width="1.32403" stroke-miterlimit="10"/>
<path d="M4534.74 475.5H-2033.97" stroke="#A5FFBE" stroke-opacity="0.3" stroke-width="1.32403" stroke-miterlimit="10"/>
<path d="M4378.73 443.504H-1877.73" stroke="#A5FFBE" stroke-opacity="0.3" stroke-width="1.32403" stroke-miterlimit="10"/>
<path d="M4236.73 414.311H-1735.97" stroke="#A5FFBE" stroke-opacity="0.3" stroke-width="1.32403" stroke-miterlimit="10"/>
<path d="M4107.12 387.686H-1606.35" stroke="#A5FFBE" stroke-opacity="0.3" stroke-width="1.32403" stroke-miterlimit="10"/>
<path d="M3988.48 363.397H-1487.48" stroke="#A5FFBE" stroke-opacity="0.3" stroke-width="1.32403" stroke-miterlimit="10"/>
<path d="M3878.94 340.977H-1378.18" stroke="#A5FFBE" stroke-opacity="0.3" stroke-width="1.32403" stroke-miterlimit="10"/>
<path d="M3778.05 320.192H-1277.28" stroke="#A5FFBE" stroke-opacity="0.3" stroke-width="1.32403" stroke-miterlimit="10"/>
<path d="M3684.63 301.041H-1183.63" stroke="#A5FFBE" stroke-opacity="0.3" stroke-width="1.32403" stroke-miterlimit="10"/>
<path d="M3597.75 283.058H-1096.99" stroke="#A5FFBE" stroke-opacity="0.3" stroke-width="1.32403" stroke-miterlimit="10"/>
<path d="M3516.95 266.476H-1016.18" stroke="#A5FFBE" stroke-opacity="0.3" stroke-width="1.32403" stroke-miterlimit="10"/>
<path d="M3441.51 251.062H-940.745" stroke="#A5FFBE" stroke-opacity="0.3" stroke-width="1.32403" stroke-miterlimit="10"/>
<path d="M3370.98 236.582H-869.98" stroke="#A5FFBE" stroke-opacity="0.3" stroke-width="1.32403" stroke-miterlimit="10"/>
<path d="M3304.89 223.037H-803.887" stroke="#A5FFBE" stroke-opacity="0.3" stroke-width="1.32403" stroke-miterlimit="10"/>
<path d="M3242.53 210.191H-741.764" stroke="#A5FFBE" stroke-opacity="0.3" stroke-width="1.32403" stroke-miterlimit="10"/>
<path d="M3184.14 198.281H-683.144" stroke="#A5FFBE" stroke-opacity="0.3" stroke-width="1.32403" stroke-miterlimit="10"/>
<path d="M3129.03 186.837H-628.027" stroke="#A5FFBE" stroke-opacity="0.3" stroke-width="1.32403" stroke-miterlimit="10"/>
<path d="M3076.71 176.094H-575.946" stroke="#A5FFBE" stroke-opacity="0.3" stroke-width="1.32403" stroke-miterlimit="10"/>
<path d="M3027.43 166.051H-526.668" stroke="#A5FFBE" stroke-opacity="0.3" stroke-width="1.32403" stroke-miterlimit="10"/>
<path d="M2980.73 156.476H-479.958" stroke="#A5FFBE" stroke-opacity="0.3" stroke-width="1.32403" stroke-miterlimit="10"/>
<path d="M2936.35 147.368H-435.585" stroke="#A5FFBE" stroke-opacity="0.3" stroke-width="1.32403" stroke-miterlimit="10"/>
<path d="M2894.31 138.726H-393.546" stroke="#A5FFBE" stroke-opacity="0.3" stroke-width="1.32403" stroke-miterlimit="10"/>
<path d="M2854.38 130.552H-353.377" stroke="#A5FFBE" stroke-opacity="0.3" stroke-width="1.32403" stroke-miterlimit="10"/>
<path d="M2816.08 122.612H-315.309" stroke="#A5FFBE" stroke-opacity="0.3" stroke-width="1.32403" stroke-miterlimit="10"/>
<path d="M2779.88 115.138H-278.875" stroke="#A5FFBE" stroke-opacity="0.3" stroke-width="1.32403" stroke-miterlimit="10"/>
<path d="M2745.08 108.132H-244.077" stroke="#A5FFBE" stroke-opacity="0.3" stroke-width="1.32403" stroke-miterlimit="10"/>
<path d="M2711.91 101.359H-210.914" stroke="#A5FFBE" stroke-opacity="0.3" stroke-width="1.32403" stroke-miterlimit="10"/>
<path d="M2680.15 94.8196H-179.152" stroke="#A5FFBE" stroke-opacity="0.3" stroke-width="1.32403" stroke-miterlimit="10"/>
<path d="M2649.79 88.5142H-148.791" stroke="#A5FFBE" stroke-opacity="0.3" stroke-width="1.32403" stroke-miterlimit="10"/>
<path d="M2620.6 82.6755H-119.598" stroke="#A5FFBE" stroke-opacity="0.3" stroke-width="1.32403" stroke-miterlimit="10"/>
<path d="M2592.57 76.8367H-91.8057" stroke="#A5FFBE" stroke-opacity="0.3" stroke-width="1.32403" stroke-miterlimit="10"/>
<path d="M2565.95 71.2317H-64.9475" stroke="#A5FFBE" stroke-opacity="0.3" stroke-width="1.32403" stroke-miterlimit="10"/>
<path d="M2540.02 66.0935H-39.2576" stroke="#A5FFBE" stroke-opacity="0.3" stroke-width="1.32403" stroke-miterlimit="10"/>
<path d="M2515.27 60.9553H-14.5015" stroke="#A5FFBE" stroke-opacity="0.3" stroke-width="1.32403" stroke-miterlimit="10"/>
<path d="M2491.45 56.0513H9.55347" stroke="#A5FFBE" stroke-opacity="0.3" stroke-width="1.32403" stroke-miterlimit="10"/>
<path d="M2468.56 51.3801H32.4414" stroke="#A5FFBE" stroke-opacity="0.3" stroke-width="1.32403" stroke-miterlimit="10"/>
<path d="M2446.37 46.7095H54.6284" stroke="#A5FFBE" stroke-opacity="0.3" stroke-width="1.32403" stroke-miterlimit="10"/>
<path d="M2425.12 42.5054H75.8804" stroke="#A5FFBE" stroke-opacity="0.3" stroke-width="1.32403" stroke-miterlimit="10"/>
<path d="M2404.33 38.3015H96.4326" stroke="#A5FFBE" stroke-opacity="0.3" stroke-width="1.32403" stroke-miterlimit="10"/>
<path d="M2384.48 34.0977H116.284" stroke="#A5FFBE" stroke-opacity="0.3" stroke-width="1.32403" stroke-miterlimit="10"/>
<path d="M2365.33 30.1274H135.669" stroke="#A5FFBE" stroke-opacity="0.3" stroke-width="1.32403" stroke-miterlimit="10"/>
<path d="M2346.88 26.3906H154.119" stroke="#A5FFBE" stroke-opacity="0.3" stroke-width="1.32403" stroke-miterlimit="10"/>
<path d="M2328.9 22.6538H172.102" stroke="#A5FFBE" stroke-opacity="0.3" stroke-width="1.32403" stroke-miterlimit="10"/>
<path d="M2311.38 19.1509H189.384" stroke="#A5FFBE" stroke-opacity="0.3" stroke-width="1.32403" stroke-miterlimit="10"/>
<path d="M2294.57 15.6477H206.199" stroke="#A5FFBE" stroke-opacity="0.3" stroke-width="1.32403" stroke-miterlimit="10"/>
<path d="M2278.22 12.3779H222.547" stroke="#A5FFBE" stroke-opacity="0.3" stroke-width="1.32403" stroke-miterlimit="10"/>
<path d="M2262.57 9.1084H238.428" stroke="#A5FFBE" stroke-opacity="0.3" stroke-width="1.32403" stroke-miterlimit="10"/>
<path d="M2247.16 5.83887H253.843" stroke="#A5FFBE" stroke-opacity="0.3" stroke-width="1.32403" stroke-miterlimit="10"/>
<path d="M2232.21 2.80273H268.556" stroke="#A5FFBE" stroke-opacity="0.3" stroke-width="1.32403" stroke-miterlimit="10"/>
<path d="M302.187 0L-2535.63 594.141" stroke="#A5FFBE" stroke-opacity="0.3" stroke-width="1.32403" stroke-miterlimit="10"/>
<path d="M321.338 0L-2459.03 594.141" stroke="#A5FFBE" stroke-opacity="0.3" stroke-width="1.32403" stroke-miterlimit="10"/>
<path d="M340.487 0L-2382.66 594.141" stroke="#A5FFBE" stroke-opacity="0.3" stroke-width="1.32403" stroke-miterlimit="10"/>
<path d="M359.639 0L-2306.05 594.141" stroke="#A5FFBE" stroke-opacity="0.3" stroke-width="1.32403" stroke-miterlimit="10"/>
<path d="M378.79 0L-2229.68 594.141" stroke="#A5FFBE" stroke-opacity="0.3" stroke-width="1.32403" stroke-miterlimit="10"/>
<path d="M397.941 0L-2153.08 594.141" stroke="#A5FFBE" stroke-opacity="0.3" stroke-width="1.32403" stroke-miterlimit="10"/>
<path d="M417.091 0L-2076.71 594.141" stroke="#A5FFBE" stroke-opacity="0.3" stroke-width="1.32403" stroke-miterlimit="10"/>
<path d="M436.242 0L-2000.11 594.141" stroke="#A5FFBE" stroke-opacity="0.3" stroke-width="1.32403" stroke-miterlimit="10"/>
<path d="M455.392 0L-1923.74 594.141" stroke="#A5FFBE" stroke-opacity="0.3" stroke-width="1.32403" stroke-miterlimit="10"/>
<path d="M474.543 0L-1847.14 594.141" stroke="#A5FFBE" stroke-opacity="0.3" stroke-width="1.32403" stroke-miterlimit="10"/>
<path d="M493.694 0L-1770.77 594.141" stroke="#A5FFBE" stroke-opacity="0.3" stroke-width="1.32403" stroke-miterlimit="10"/>
<path d="M512.845 0L-1694.16 594.141" stroke="#A5FFBE" stroke-opacity="0.3" stroke-width="1.32403" stroke-miterlimit="10"/>
<path d="M531.996 0L-1617.79 594.141" stroke="#A5FFBE" stroke-opacity="0.3" stroke-width="1.32403" stroke-miterlimit="10"/>
<path d="M551.147 0L-1541.19 594.141" stroke="#A5FFBE" stroke-opacity="0.3" stroke-width="1.32403" stroke-miterlimit="10"/>
<path d="M570.297 0L-1464.82 594.141" stroke="#A5FFBE" stroke-opacity="0.3" stroke-width="1.32403" stroke-miterlimit="10"/>
<path d="M589.448 0L-1388.22 594.141" stroke="#A5FFBE" stroke-opacity="0.3" stroke-width="1.32403" stroke-miterlimit="10"/>
<path d="M608.599 0L-1311.85 594.141" stroke="#A5FFBE" stroke-opacity="0.3" stroke-width="1.32403" stroke-miterlimit="10"/>
<path d="M627.75 0L-1235.25 594.141" stroke="#A5FFBE" stroke-opacity="0.3" stroke-width="1.32403" stroke-miterlimit="10"/>
<path d="M646.9 0L-1158.88 594.141" stroke="#A5FFBE" stroke-opacity="0.3" stroke-width="1.32403" stroke-miterlimit="10"/>
<path d="M666.284 0L-1082.27 594.141" stroke="#A5FFBE" stroke-opacity="0.3" stroke-width="1.32403" stroke-miterlimit="10"/>
<path d="M685.435 0L-1005.9 594.141" stroke="#A5FFBE" stroke-opacity="0.3" stroke-width="1.32403" stroke-miterlimit="10"/>
<path d="M704.586 0L-929.301 594.141" stroke="#A5FFBE" stroke-opacity="0.3" stroke-width="1.32403" stroke-miterlimit="10"/>
<path d="M723.737 0L-852.932 594.141" stroke="#A5FFBE" stroke-opacity="0.3" stroke-width="1.32403" stroke-miterlimit="10"/>
<path d="M742.888 0L-776.329 594.141" stroke="#A5FFBE" stroke-opacity="0.3" stroke-width="1.32403" stroke-miterlimit="10"/>
<path d="M762.038 0L-699.959 594.141" stroke="#A5FFBE" stroke-opacity="0.3" stroke-width="1.32403" stroke-miterlimit="10"/>
<path d="M781.189 0L-623.356 594.141" stroke="#A5FFBE" stroke-opacity="0.3" stroke-width="1.32403" stroke-miterlimit="10"/>
<path d="M800.34 0L-546.986 594.141" stroke="#A5FFBE" stroke-opacity="0.3" stroke-width="1.32403" stroke-miterlimit="10"/>
<path d="M819.491 0L-470.383 594.141" stroke="#A5FFBE" stroke-opacity="0.3" stroke-width="1.32403" stroke-miterlimit="10"/>
<path d="M838.642 0L-394.014 594.141" stroke="#A5FFBE" stroke-opacity="0.3" stroke-width="1.32403" stroke-miterlimit="10"/>
<path d="M857.792 0L-317.411 594.141" stroke="#A5FFBE" stroke-opacity="0.3" stroke-width="1.32403" stroke-miterlimit="10"/>
<path d="M876.943 0L-241.041 594.141" stroke="#A5FFBE" stroke-opacity="0.3" stroke-width="1.32403" stroke-miterlimit="10"/>
<path d="M896.094 0L-164.438 594.141" stroke="#A5FFBE" stroke-opacity="0.3" stroke-width="1.32403" stroke-miterlimit="10"/>
<path d="M915.245 0L-88.0686 594.141" stroke="#A5FFBE" stroke-opacity="0.3" stroke-width="1.32403" stroke-miterlimit="10"/>
<path d="M934.395 0L-11.4658 594.141" stroke="#A5FFBE" stroke-opacity="0.3" stroke-width="1.32403" stroke-miterlimit="10"/>
<path d="M953.546 0L64.9038 594.141" stroke="#A5FFBE" stroke-opacity="0.3" stroke-width="1.32403" stroke-miterlimit="10"/>
<path d="M972.697 0L141.507 594.141" stroke="#A5FFBE" stroke-opacity="0.3" stroke-width="1.32403" stroke-miterlimit="10"/>
<path d="M991.848 0L217.876 594.141" stroke="#A5FFBE" stroke-opacity="0.3" stroke-width="1.32403" stroke-miterlimit="10"/>
<path d="M1011 0L294.479 594.141" stroke="#A5FFBE" stroke-opacity="0.3" stroke-width="1.32403" stroke-miterlimit="10"/>
<path d="M1030.15 0L370.849 594.141" stroke="#A5FFBE" stroke-opacity="0.3" stroke-width="1.32403" stroke-miterlimit="10"/>
<path d="M1049.3 0L447.452 594.141" stroke="#A5FFBE" stroke-opacity="0.3" stroke-width="1.32403" stroke-miterlimit="10"/>
<path d="M1068.45 0L523.822 594.141" stroke="#A5FFBE" stroke-opacity="0.3" stroke-width="1.32403" stroke-miterlimit="10"/>
<path d="M1087.6 0L600.425 594.141" stroke="#A5FFBE" stroke-opacity="0.3" stroke-width="1.32403" stroke-miterlimit="10"/>
<path d="M1106.75 0L676.794 594.141" stroke="#A5FFBE" stroke-opacity="0.3" stroke-width="1.32403" stroke-miterlimit="10"/>
<path d="M1125.9 0L753.397 594.141" stroke="#A5FFBE" stroke-opacity="0.3" stroke-width="1.32403" stroke-miterlimit="10"/>
<path d="M1145.05 0L829.767 594.141" stroke="#A5FFBE" stroke-opacity="0.3" stroke-width="1.32403" stroke-miterlimit="10"/>
<path d="M1164.2 0L906.37 594.141" stroke="#A5FFBE" stroke-opacity="0.3" stroke-width="1.32403" stroke-miterlimit="10"/>
<path d="M1183.36 0L982.739 594.141" stroke="#A5FFBE" stroke-opacity="0.3" stroke-width="1.32403" stroke-miterlimit="10"/>
<path d="M1202.51 0L1059.34 594.141" stroke="#A5FFBE" stroke-opacity="0.3" stroke-width="1.32403" stroke-miterlimit="10"/>
<path d="M1221.66 0L1135.71 594.141" stroke="#A5FFBE" stroke-opacity="0.3" stroke-width="1.32403" stroke-miterlimit="10"/>
<path d="M1240.81 0L1212.32 594.141" stroke="#A5FFBE" stroke-opacity="0.3" stroke-width="1.32403" stroke-miterlimit="10"/>
<path d="M1259.96 0L1288.68 594.141" stroke="#A5FFBE" stroke-opacity="0.3" stroke-width="1.32403" stroke-miterlimit="10"/>
<path d="M1279.11 0L1365.29 594.141" stroke="#A5FFBE" stroke-opacity="0.3" stroke-width="1.32403" stroke-miterlimit="10"/>
<path d="M1298.26 0L1441.66 594.141" stroke="#A5FFBE" stroke-opacity="0.3" stroke-width="1.32403" stroke-miterlimit="10"/>
<path d="M1317.41 0L1518.26 594.141" stroke="#A5FFBE" stroke-opacity="0.3" stroke-width="1.32403" stroke-miterlimit="10"/>
<path d="M1336.56 0L1594.63 594.141" stroke="#A5FFBE" stroke-opacity="0.3" stroke-width="1.32403" stroke-miterlimit="10"/>
<path d="M1355.71 0L1671.23 594.141" stroke="#A5FFBE" stroke-opacity="0.3" stroke-width="1.32403" stroke-miterlimit="10"/>
<path d="M1374.86 0L1747.6 594.141" stroke="#A5FFBE" stroke-opacity="0.3" stroke-width="1.32403" stroke-miterlimit="10"/>
<path d="M1394.01 0L1824.21 594.141" stroke="#A5FFBE" stroke-opacity="0.3" stroke-width="1.32403" stroke-miterlimit="10"/>
<path d="M1413.4 0L1900.57 594.141" stroke="#A5FFBE" stroke-opacity="0.3" stroke-width="1.32403" stroke-miterlimit="10"/>
<path d="M1432.55 0L1977.18 594.141" stroke="#A5FFBE" stroke-opacity="0.3" stroke-width="1.32403" stroke-miterlimit="10"/>
<path d="M1451.7 0L2053.55 594.141" stroke="#A5FFBE" stroke-opacity="0.3" stroke-width="1.32403" stroke-miterlimit="10"/>
<path d="M1470.85 0L2130.15 594.141" stroke="#A5FFBE" stroke-opacity="0.3" stroke-width="1.32403" stroke-miterlimit="10"/>
<path d="M1490 0L2206.52 594.141" stroke="#A5FFBE" stroke-opacity="0.3" stroke-width="1.32403" stroke-miterlimit="10"/>
<path d="M1509.15 0L2283.12 594.141" stroke="#A5FFBE" stroke-opacity="0.3" stroke-width="1.32403" stroke-miterlimit="10"/>
<path d="M1528.3 0L2359.49 594.141" stroke="#A5FFBE" stroke-opacity="0.3" stroke-width="1.32403" stroke-miterlimit="10"/>
<path d="M1547.45 0L2436.1 594.141" stroke="#A5FFBE" stroke-opacity="0.3" stroke-width="1.32403" stroke-miterlimit="10"/>
<path d="M1566.6 0L2512.46 594.141" stroke="#A5FFBE" stroke-opacity="0.3" stroke-width="1.32403" stroke-miterlimit="10"/>
<path d="M1585.75 0L2589.07 594.141" stroke="#A5FFBE" stroke-opacity="0.3" stroke-width="1.32403" stroke-miterlimit="10"/>
<path d="M1604.91 0L2665.44 594.141" stroke="#A5FFBE" stroke-opacity="0.3" stroke-width="1.32403" stroke-miterlimit="10"/>
<path d="M1624.06 0L2742.04 594.141" stroke="#A5FFBE" stroke-opacity="0.3" stroke-width="1.32403" stroke-miterlimit="10"/>
<path d="M1643.21 0L2818.41 594.141" stroke="#A5FFBE" stroke-opacity="0.3" stroke-width="1.32403" stroke-miterlimit="10"/>
<path d="M1662.36 0L2895.01 594.141" stroke="#A5FFBE" stroke-opacity="0.3" stroke-width="1.32403" stroke-miterlimit="10"/>
<path d="M1681.51 0L2971.38 594.141" stroke="#A5FFBE" stroke-opacity="0.3" stroke-width="1.32403" stroke-miterlimit="10"/>
<path d="M1700.66 0L3047.99 594.141" stroke="#A5FFBE" stroke-opacity="0.3" stroke-width="1.32403" stroke-miterlimit="10"/>
<path d="M1719.81 0L3124.36 594.141" stroke="#A5FFBE" stroke-opacity="0.3" stroke-width="1.32403" stroke-miterlimit="10"/>
<path d="M1738.96 0L3200.96 594.141" stroke="#A5FFBE" stroke-opacity="0.3" stroke-width="1.32403" stroke-miterlimit="10"/>
<path d="M1758.11 0L3277.33 594.141" stroke="#A5FFBE" stroke-opacity="0.3" stroke-width="1.32403" stroke-miterlimit="10"/>
<path d="M1777.26 0L3353.93 594.141" stroke="#A5FFBE" stroke-opacity="0.3" stroke-width="1.32403" stroke-miterlimit="10"/>
<path d="M1796.41 0L3430.3 594.141" stroke="#A5FFBE" stroke-opacity="0.3" stroke-width="1.32403" stroke-miterlimit="10"/>
<path d="M1815.56 0L3506.9 594.141" stroke="#A5FFBE" stroke-opacity="0.3" stroke-width="1.32403" stroke-miterlimit="10"/>
<path d="M1834.71 0L3583.27 594.141" stroke="#A5FFBE" stroke-opacity="0.3" stroke-width="1.32403" stroke-miterlimit="10"/>
<path d="M1853.87 0L3659.88 594.141" stroke="#A5FFBE" stroke-opacity="0.3" stroke-width="1.32403" stroke-miterlimit="10"/>
<path d="M1873.02 0L3736.25 594.141" stroke="#A5FFBE" stroke-opacity="0.3" stroke-width="1.32403" stroke-miterlimit="10"/>
<path d="M1892.17 0L3812.85 594.141" stroke="#A5FFBE" stroke-opacity="0.3" stroke-width="1.32403" stroke-miterlimit="10"/>
<path d="M1911.32 0L3889.22 594.141" stroke="#A5FFBE" stroke-opacity="0.3" stroke-width="1.32403" stroke-miterlimit="10"/>
<path d="M1930.47 0L3965.59 594.141" stroke="#A5FFBE" stroke-opacity="0.3" stroke-width="1.32403" stroke-miterlimit="10"/>
<path d="M1949.62 0L4042.19 594.141" stroke="#A5FFBE" stroke-opacity="0.3" stroke-width="1.32403" stroke-miterlimit="10"/>
<path d="M1968.77 0L4118.56 594.141" stroke="#A5FFBE" stroke-opacity="0.3" stroke-width="1.32403" stroke-miterlimit="10"/>
<path d="M1987.92 0L4195.16 594.141" stroke="#A5FFBE" stroke-opacity="0.3" stroke-width="1.32403" stroke-miterlimit="10"/>
<path d="M2007.07 0L4271.53 594.141" stroke="#A5FFBE" stroke-opacity="0.3" stroke-width="1.32403" stroke-miterlimit="10"/>
<path d="M2026.22 0L4348.14 594.141" stroke="#A5FFBE" stroke-opacity="0.3" stroke-width="1.32403" stroke-miterlimit="10"/>
<path d="M2045.37 0L4424.51 594.141" stroke="#A5FFBE" stroke-opacity="0.3" stroke-width="1.32403" stroke-miterlimit="10"/>
<path d="M2064.52 0L4501.11 594.141" stroke="#A5FFBE" stroke-opacity="0.3" stroke-width="1.32403" stroke-miterlimit="10"/>
<path d="M2083.67 0L4577.48 594.141" stroke="#A5FFBE" stroke-opacity="0.3" stroke-width="1.32403" stroke-miterlimit="10"/>
<path d="M2102.83 0L4654.08 594.141" stroke="#A5FFBE" stroke-opacity="0.3" stroke-width="1.32403" stroke-miterlimit="10"/>
<path d="M2121.98 0L4730.45 594.141" stroke="#A5FFBE" stroke-opacity="0.3" stroke-width="1.32403" stroke-miterlimit="10"/>
<path d="M2141.13 0L4807.05 594.141" stroke="#A5FFBE" stroke-opacity="0.3" stroke-width="1.32403" stroke-miterlimit="10"/>
<path d="M2160.51 0L4883.42 594.141" stroke="#A5FFBE" stroke-opacity="0.3" stroke-width="1.32403" stroke-miterlimit="10"/>
<path d="M2179.66 0L4960.03 594.141" stroke="#A5FFBE" stroke-opacity="0.3" stroke-width="1.32403" stroke-miterlimit="10"/>
<path d="M2198.81 0L5036.4 594.141" stroke="#A5FFBE" stroke-opacity="0.3" stroke-width="1.32403" stroke-miterlimit="10"/>
<rect width="2514" height="204" fill="url(#paint0_linear_691_340)"/>
<rect x="2514" y="608" width="2514" height="204" transform="rotate(-180 2514 608)" fill="url(#paint1_linear_691_340)"/>
</g>
<defs>
<linearGradient id="paint0_linear_691_340" x1="1257" y1="0" x2="1257" y2="204" gradientUnits="userSpaceOnUse">
<stop stop-color="#131313"/>
<stop offset="1" stop-color="#131313" stop-opacity="0"/>
</linearGradient>
<linearGradient id="paint1_linear_691_340" x1="3771" y1="608" x2="3771" y2="812" gradientUnits="userSpaceOnUse">
<stop stop-color="#131313"/>
<stop offset="1" stop-color="#131313" stop-opacity="0"/>
</linearGradient>
</defs>
</svg>
