<svg width="44" height="53" viewBox="0 0 44 53" fill="none" xmlns="http://www.w3.org/2000/svg">
<path fill-rule="evenodd" clip-rule="evenodd" d="M22.2426 15.4142C21.4615 14.6331 20.1952 14.6331 19.4142 15.4142C18.6331 16.1952 18.6331 17.4615 19.4142 18.2426L22.9497 21.7782L19.4143 25.3137C18.6332 26.0947 18.6332 27.361 19.4143 28.1421C20.1953 28.9231 21.4616 28.9231 22.2427 28.1421L25.7782 24.6066L29.3137 28.1421C30.0947 28.9231 31.361 28.9231 32.1421 28.1421C32.9231 27.361 32.9231 26.0947 32.1421 25.3137L28.6066 21.7782L32.1422 18.2426C32.9232 17.4615 32.9232 16.1952 32.1422 15.4142C31.3611 14.6331 30.0948 14.6331 29.3138 15.4142L25.7782 18.9497L22.2426 15.4142Z" fill="url(#paint0_linear_704_1871)"/>
<path d="M2.3375 12.3584C3.62847 12.3584 4.675 13.4049 4.675 14.6959V44.3111C4.675 46.5202 6.46586 48.3111 8.675 48.3111H34.2793C35.5741 48.3111 36.6237 49.3607 36.6237 50.6555C36.6237 51.9503 35.5741 53 34.2792 53H7.01329C3.13971 53 0 49.8512 0 45.9666V14.6959C0 13.4049 1.04653 12.3584 2.3375 12.3584ZM39.2857 0C40.536 0 41.7351 0.492698 42.6192 1.36971C43.5033 2.24671 44 3.43619 44 4.67647V39.5294C44 40.1435 43.8781 40.7516 43.6411 41.319C43.4042 41.8864 43.057 42.4019 42.6192 42.8362C42.1815 43.2704 41.6618 43.6149 41.0898 43.8499C40.5178 44.0849 39.9048 44.2059 39.2857 44.2059H12.8571C10.0957 44.2059 7.85714 41.9673 7.85714 39.2059V4.67647C7.85714 3.43619 8.35382 2.24671 9.23792 1.36971C10.122 0.492698 11.3211 0 12.5714 0H39.2857ZM39.2857 4.67647H12.5714V39.5294H39.2857V4.67647Z" fill="#B75B5B"/>
<defs>
<linearGradient id="paint0_linear_704_1871" x1="19" y1="27.4999" x2="31.5" y2="14.9999" gradientUnits="userSpaceOnUse">
<stop stop-color="#FFA5A5"/>
<stop offset="1" stop-color="#E24040"/>
</linearGradient>
</defs>
</svg>
