<svg width="30" height="30" viewBox="0 0 30 30" fill="none" xmlns="http://www.w3.org/2000/svg">
<path d="M11.25 6.50306C10.9185 6.50306 10.6005 6.63476 10.3661 6.86918C10.1317 7.1036 10 7.42154 10 7.75306C10 8.08458 10.1317 8.40253 10.3661 8.63695C10.6005 8.87137 10.9185 9.00306 11.25 9.00306C11.5815 9.00306 11.8995 8.87137 12.1339 8.63695C12.3683 8.40253 12.5 8.08458 12.5 7.75306C12.5 7.42154 12.3683 7.1036 12.1339 6.86918C11.8995 6.63476 11.5815 6.50306 11.25 6.50306ZM7.7125 6.50306C7.97075 5.77115 8.44967 5.13736 9.08325 4.68905C9.71683 4.24075 10.4739 4 11.25 4C12.0261 4 12.7832 4.24075 13.4167 4.68905C14.0503 5.13736 14.5292 5.77115 14.7875 6.50306H23.75C24.0815 6.50306 24.3995 6.63476 24.6339 6.86918C24.8683 7.1036 25 7.42154 25 7.75306C25 8.08458 24.8683 8.40253 24.6339 8.63695C24.3995 8.87137 24.0815 9.00306 23.75 9.00306H14.7875C14.5292 9.73498 14.0503 10.3688 13.4167 10.8171C12.7832 11.2654 12.0261 11.5061 11.25 11.5061C10.4739 11.5061 9.71683 11.2654 9.08325 10.8171C8.44967 10.3688 7.97075 9.73498 7.7125 9.00306H6.25C5.91848 9.00306 5.60054 8.87137 5.36612 8.63695C5.1317 8.40253 5 8.08458 5 7.75306C5 7.42154 5.1317 7.1036 5.36612 6.86918C5.60054 6.63476 5.91848 6.50306 6.25 6.50306H7.7125ZM18.75 14.0031C18.4185 14.0031 18.1005 14.1348 17.8661 14.3692C17.6317 14.6036 17.5 14.9215 17.5 15.2531C17.5 15.5846 17.6317 15.9025 17.8661 16.1369C18.1005 16.3714 18.4185 16.5031 18.75 16.5031C19.0815 16.5031 19.3995 16.3714 19.6339 16.1369C19.8683 15.9025 20 15.5846 20 15.2531C20 14.9215 19.8683 14.6036 19.6339 14.3692C19.3995 14.1348 19.0815 14.0031 18.75 14.0031ZM15.2125 14.0031C15.4708 13.2711 15.9497 12.6374 16.5832 12.189C17.2168 11.7407 17.9739 11.5 18.75 11.5C19.5261 11.5 20.2832 11.7407 20.9167 12.189C21.5503 12.6374 22.0292 13.2711 22.2875 14.0031H23.75C24.0815 14.0031 24.3995 14.1348 24.6339 14.3692C24.8683 14.6036 25 14.9215 25 15.2531C25 15.5846 24.8683 15.9025 24.6339 16.1369C24.3995 16.3714 24.0815 16.5031 23.75 16.5031H22.2875C22.0292 17.235 21.5503 17.8688 20.9167 18.3171C20.2832 18.7654 19.5261 19.0061 18.75 19.0061C17.9739 19.0061 17.2168 18.7654 16.5832 18.3171C15.9497 17.8688 15.4708 17.235 15.2125 16.5031H6.25C5.91848 16.5031 5.60054 16.3714 5.36612 16.1369C5.1317 15.9025 5 15.5846 5 15.2531C5 14.9215 5.1317 14.6036 5.36612 14.3692C5.60054 14.1348 5.91848 14.0031 6.25 14.0031H15.2125ZM11.25 21.5031C10.9185 21.5031 10.6005 21.6348 10.3661 21.8692C10.1317 22.1036 10 22.4215 10 22.7531C10 23.0846 10.1317 23.4025 10.3661 23.6369C10.6005 23.8714 10.9185 24.0031 11.25 24.0031C11.5815 24.0031 11.8995 23.8714 12.1339 23.6369C12.3683 23.4025 12.5 23.0846 12.5 22.7531C12.5 22.4215 12.3683 22.1036 12.1339 21.8692C11.8995 21.6348 11.5815 21.5031 11.25 21.5031ZM7.7125 21.5031C7.97075 20.7711 8.44967 20.1374 9.08325 19.6891C9.71683 19.2407 10.4739 19 11.25 19C12.0261 19 12.7832 19.2407 13.4167 19.6891C14.0503 20.1374 14.5292 20.7711 14.7875 21.5031H23.75C24.0815 21.5031 24.3995 21.6348 24.6339 21.8692C24.8683 22.1036 25 22.4215 25 22.7531C25 23.0846 24.8683 23.4025 24.6339 23.6369C24.3995 23.8714 24.0815 24.0031 23.75 24.0031H14.7875C14.5292 24.735 14.0503 25.3688 13.4167 25.8171C12.7832 26.2654 12.0261 26.5061 11.25 26.5061C10.4739 26.5061 9.71683 26.2654 9.08325 25.8171C8.44967 25.3688 7.97075 24.735 7.7125 24.0031H6.25C5.91848 24.0031 5.60054 23.8714 5.36612 23.6369C5.1317 23.4025 5 23.0846 5 22.7531C5 22.4215 5.1317 22.1036 5.36612 21.8692C5.60054 21.6348 5.91848 21.5031 6.25 21.5031H7.7125Z" fill="white"/>
</svg>
