<svg width="24" height="24" viewBox="0 0 24 24" fill="none" xmlns="http://www.w3.org/2000/svg">
<path fill-rule="evenodd" clip-rule="evenodd" d="M12 23C18.0751 23 23 18.0751 23 12C23 5.92487 18.0751 1 12 1C5.92487 1 1 5.92487 1 12C1 18.0751 5.92487 23 12 23ZM12 24C18.6274 24 24 18.6274 24 12C24 5.37258 18.6274 0 12 0C5.37258 0 0 5.37258 0 12C0 18.6274 5.37258 24 12 24ZM7.30024 7.55023C7.59313 7.25733 8.068 7.25733 8.3609 7.55023L12.2499 11.4393L16.139 7.55024C16.4319 7.25734 16.9068 7.25734 17.1996 7.55024C17.4925 7.84313 17.4925 8.318 17.1996 8.6109L13.3106 12.4999L17.1997 16.3891C17.4926 16.682 17.4926 17.1568 17.1997 17.4497C16.9068 17.7426 16.432 17.7426 16.1391 17.4497L12.2499 13.5606L8.36082 17.4497C8.06792 17.7426 7.59305 17.7426 7.30015 17.4497C7.00726 17.1568 7.00726 16.682 7.30015 16.3891L11.1893 12.4999L7.30024 8.61089C7.00734 8.31799 7.00734 7.84312 7.30024 7.55023Z" fill="#4B5954"/>
</svg>
