<svg width="38" height="52" viewBox="0 0 38 52" fill="none" xmlns="http://www.w3.org/2000/svg">
<path d="M1.35007e-07 47.2727C1.35007e-07 48.5265 0.500445 49.7289 1.39124 50.6154C2.28204 51.5019 3.49022 52 4.75 52H33.25C34.5098 52 35.718 51.5019 36.6088 50.6154C37.4996 49.7289 38 48.5265 38 47.2727V42.1673C38.0003 40.4622 37.6298 38.7772 36.914 37.2281C36.1982 35.6789 35.1541 34.3022 33.8533 33.1925L25.422 26L33.8533 18.8075C35.1541 17.6978 36.1982 16.3211 36.914 14.7719C37.6298 13.2228 38.0003 11.5378 38 9.83273V4.72727C38 3.47352 37.4996 2.27112 36.6088 1.38458C35.718 0.498047 34.5098 0 33.25 0H4.75C3.49022 0 2.28204 0.498047 1.39124 1.38458C0.500445 2.27112 1.35007e-07 3.47352 1.35007e-07 4.72727V9.83273C8.44211e-05 11.5374 0.370729 13.2219 1.0865 14.7707C1.80228 16.3194 2.84624 17.6957 4.14675 18.8051L12.578 26L4.14675 33.1925C2.84593 34.3022 1.80179 35.6789 1.08601 37.2281C0.370221 38.7772 -0.000258198 40.4622 1.35007e-07 42.1673V47.2727ZM33.25 47.2727H4.75V42.1673C4.75003 41.1442 4.9725 40.1333 5.40213 39.2039C5.83177 38.2745 6.4584 37.4486 7.239 36.7829L15.6703 29.5904C16.1905 29.1466 16.6081 28.596 16.8944 27.9765C17.1807 27.3569 17.329 26.6831 17.329 26.0012C17.329 25.3193 17.1807 24.6454 16.8944 24.0259C16.6081 23.4063 16.1905 22.8558 15.6703 22.412L7.239 15.2171C6.4584 14.5514 5.83177 13.7255 5.40213 12.7961C4.9725 11.8667 4.75003 10.8558 4.75 9.83273V4.72727H33.25V9.83273C33.25 10.8558 33.0275 11.8667 32.5979 12.7961C32.1682 13.7255 31.5416 14.5514 30.761 15.2171L22.3298 22.412C21.8095 22.8558 21.3919 23.4063 21.1056 24.0259C20.8193 24.6454 20.671 25.3193 20.671 26.0012C20.671 26.6831 20.8193 27.3569 21.1056 27.9765C21.3919 28.596 21.8095 29.1466 22.3298 29.5904L30.761 36.7829C31.5416 37.4486 32.1682 38.2745 32.5979 39.2039C33.0275 40.1333 33.25 41.1442 33.25 42.1673V47.2727Z" fill="#41634D"/>
<path d="M17.3502 18.268C17.7878 18.7367 18.3812 19 19 19C19.6188 19 20.2122 18.7367 20.6498 18.268L25.3168 13.2677C25.643 12.9181 25.8652 12.4726 25.9552 11.9877C26.0452 11.5028 25.999 11.0002 25.8224 10.5434C25.6458 10.0867 25.3468 9.69624 24.9632 9.42152C24.5795 9.14679 24.1284 9.00011 23.667 9H14.333C13.8716 9.00011 13.4205 9.14679 13.0368 9.42152C12.6532 9.69624 12.3542 10.0867 12.1776 10.5434C12.001 11.0002 11.9548 11.5028 12.0448 11.9877C12.1348 12.4726 12.357 12.9181 12.6832 13.2677L17.3502 18.268Z" fill="url(#paint0_linear_704_1856)"/>
<defs>
<linearGradient id="paint0_linear_704_1856" x1="12" y1="13.8649" x2="26" y2="13.8649" gradientUnits="userSpaceOnUse">
<stop stop-color="#A5FFBE"/>
<stop offset="1" stop-color="#55DD7B"/>
</linearGradient>
</defs>
</svg>
