<svg width="110" height="23" viewBox="0 0 110 23" fill="none" xmlns="http://www.w3.org/2000/svg">
<circle cx="98.2759" cy="11.5" r="11.5" fill="#A5FFBE"/>
<path d="M88.9321 8.35534V7.90625H91.6666V8.35534L90.8777 8.45089C90.8717 8.84583 90.8657 9.24714 90.8597 9.65482C90.8597 10.0561 90.8597 10.4606 90.8597 10.8683V11.4512C90.8597 11.7888 90.8597 12.1519 90.8597 12.5404C90.8657 12.929 90.8717 13.3239 90.8777 13.7253H92.6887L92.9397 12.4067H93.5673L93.4777 14.2412H88.9321V13.7921L89.6852 13.7061C89.6972 13.3048 89.7032 12.9099 89.7032 12.5213C89.7032 12.1264 89.7032 11.7474 89.7032 11.3843V10.8683C89.7032 10.4543 89.7032 10.0466 89.7032 9.64526C89.7032 9.23758 89.6972 8.83627 89.6852 8.44133L88.9321 8.35534Z" fill="#536A5A"/>
<path d="M96.3544 14.375C95.948 14.375 95.5804 14.2794 95.2517 14.0883C94.9289 13.8972 94.6719 13.6202 94.4806 13.2571C94.2894 12.894 94.1937 12.4608 94.1937 11.9576C94.1937 11.448 94.2923 11.0116 94.4896 10.6485C94.6928 10.2854 94.9588 10.0084 95.2875 9.81725C95.6163 9.62615 95.9719 9.5306 96.3544 9.5306C96.737 9.5306 97.0926 9.62615 97.4213 9.81725C97.7501 10.0084 98.016 10.2854 98.2193 10.6485C98.4225 11.0053 98.5241 11.4416 98.5241 11.9576C98.5241 12.4672 98.4255 12.9035 98.2282 13.2666C98.037 13.6233 97.777 13.8972 97.4482 14.0883C97.1255 14.2794 96.7609 14.375 96.3544 14.375ZM96.3544 13.9068C96.6772 13.9068 96.9222 13.7476 97.0896 13.4291C97.2629 13.1106 97.3496 12.6232 97.3496 11.9671C97.3496 10.6549 97.0179 9.9988 96.3544 9.9988C95.697 9.9988 95.3682 10.6549 95.3682 11.9671C95.3682 12.6232 95.4519 13.1106 95.6193 13.4291C95.7866 13.7476 96.0317 13.9068 96.3544 13.9068Z" fill="#536A5A"/>
<path d="M101.38 14.375C100.974 14.375 100.606 14.2794 100.277 14.0883C99.9545 13.8972 99.6975 13.6202 99.5062 13.2571C99.315 12.894 99.2193 12.4608 99.2193 11.9576C99.2193 11.448 99.318 11.0116 99.5152 10.6485C99.7184 10.2854 99.9844 10.0084 100.313 9.81725C100.642 9.62615 100.998 9.5306 101.38 9.5306C101.763 9.5306 102.118 9.62615 102.447 9.81725C102.776 10.0084 103.042 10.2854 103.245 10.6485C103.448 11.0053 103.55 11.4416 103.55 11.9576C103.55 12.4672 103.451 12.9035 103.254 13.2666C103.063 13.6233 102.803 13.8972 102.474 14.0883C102.151 14.2794 101.786 14.375 101.38 14.375ZM101.38 13.9068C101.703 13.9068 101.948 13.7476 102.115 13.4291C102.289 13.1106 102.375 12.6232 102.375 11.9671C102.375 10.6549 102.044 9.9988 101.38 9.9988C100.723 9.9988 100.394 10.6549 100.394 11.9671C100.394 12.6232 100.478 13.1106 100.645 13.4291C100.812 13.7476 101.057 13.9068 101.38 13.9068Z" fill="#536A5A"/>
<path d="M105.717 14.375C105.359 14.375 105.078 14.2794 104.875 14.0883C104.671 13.8972 104.57 13.5915 104.57 13.1711C104.57 13.0246 104.57 12.8876 104.57 12.7602C104.576 12.6264 104.579 12.4672 104.579 12.2824V10.2472H103.915V9.75037L104.642 9.65482L104.982 8.34578H105.708L105.673 9.66437H106.748V10.2472H105.664V13.066C105.664 13.3017 105.705 13.4736 105.789 13.5819C105.879 13.6902 105.995 13.7444 106.139 13.7444C106.3 13.7444 106.482 13.6647 106.686 13.5055L106.901 13.7444C106.787 13.9418 106.632 14.0979 106.435 14.2126C106.237 14.3209 105.998 14.375 105.717 14.375Z" fill="#536A5A"/>
<path d="M9.376 4.91223L6.432 13.7762H12.288L9.376 4.91223ZM0 22.0002V20.4962L2.624 20.1122L9.312 0.656233H11.936L18.624 20.2722L20.8 20.5282V22.0002H11.552V20.5282L14.368 20.1762L12.832 15.4402H5.856L4.32 20.0802L7.104 20.4962V22.0002H0Z" fill="white"/>
<path d="M32.3438 22.5442C30.1891 22.5442 28.2904 22.0856 26.6477 21.1682C25.0051 20.2296 23.7251 18.9282 22.8077 17.2642C21.8904 15.5789 21.4317 13.6162 21.4317 11.3762C21.4317 9.1789 21.8797 7.24823 22.7757 5.58423C23.6931 3.8989 24.9837 2.5869 26.6477 1.64823C28.3331 0.709567 30.3171 0.240234 32.5998 0.240234C33.7944 0.240234 34.9144 0.368234 35.9598 0.624233C37.0051 0.858901 37.9864 1.23223 38.9038 1.74423L39.0318 6.54423H36.8238L36.0558 2.64023C35.0958 2.1709 34.0931 1.93623 33.0478 1.93623C31.7251 1.93623 30.5197 2.28823 29.4317 2.99223C28.3651 3.69623 27.5117 4.75223 26.8717 6.16023C26.2531 7.5469 25.9438 9.28557 25.9438 11.3762C25.9438 14.4696 26.6051 16.8162 27.9277 18.4162C29.2504 20.0162 30.9784 20.8162 33.1118 20.8162C33.5598 20.8162 33.9758 20.7842 34.3598 20.7202C34.7438 20.6562 35.1171 20.5709 35.4798 20.4642V19.2162C35.4798 18.2776 35.4691 17.3389 35.4478 16.4002C35.4478 15.4402 35.4371 14.4909 35.4158 13.5522L32.3118 13.2322V11.7282H41.3358V13.2322L39.5438 13.4242C39.5224 14.4056 39.5011 15.3762 39.4798 16.3362C39.4798 17.2962 39.4798 18.2776 39.4798 19.2802V20.6562C38.3704 21.2536 37.2504 21.7122 36.1198 22.0322C34.9891 22.3736 33.7304 22.5442 32.3438 22.5442Z" fill="white"/>
<path d="M42.7428 2.28823V0.784233H52.5028V2.28823L49.6868 2.60823C49.6654 3.9309 49.6441 5.2749 49.6227 6.64023C49.6227 7.98423 49.6227 9.3389 49.6227 10.7042V12.6562C49.6227 13.7869 49.6227 15.0029 49.6227 16.3042C49.6441 17.6056 49.6654 18.9282 49.6868 20.2722H56.1508L57.0468 15.8562H59.2868L58.9668 22.0002H42.7428V20.4962L45.4308 20.2082C45.4734 18.8642 45.4948 17.5416 45.4948 16.2402C45.4948 14.9176 45.4948 13.6482 45.4948 12.4322V10.7042C45.4948 9.31757 45.4948 7.95223 45.4948 6.60823C45.4948 5.2429 45.4734 3.8989 45.4308 2.57623L42.7428 2.28823Z" fill="white"/>
<path d="M68.0602 11.8242C68.0602 13.2962 68.0602 14.7362 68.0602 16.1442C68.0816 17.5522 68.1029 18.9496 68.1243 20.3362H69.9482C72.1242 20.3362 73.8096 19.5576 75.0042 18.0002C76.1989 16.4429 76.7962 14.2456 76.7962 11.4082C76.7962 8.48557 76.2096 6.25623 75.0363 4.72023C73.8629 3.18423 72.2309 2.41623 70.1403 2.41623H68.1243C68.1029 3.78157 68.0816 5.15757 68.0602 6.54423C68.0602 7.9309 68.0602 9.31757 68.0602 10.7042V11.8242ZM61.1803 2.28823V0.784233H70.6523C72.8069 0.784233 74.6736 1.20023 76.2523 2.03223C77.8523 2.86423 79.0896 4.06957 79.9642 5.64823C80.8389 7.2269 81.2763 9.13623 81.2763 11.3762C81.2763 13.6376 80.7963 15.5576 79.8363 17.1362C78.8762 18.7149 77.5536 19.9202 75.8683 20.7522C74.1829 21.5842 72.2416 22.0002 70.0443 22.0002H61.1803V20.4962L63.8682 20.2082C63.9109 18.8642 63.9323 17.4989 63.9323 16.1122C63.9323 14.7256 63.9323 13.2962 63.9323 11.8242V10.7042C63.9323 9.36023 63.9323 8.01623 63.9323 6.67223C63.9323 5.3069 63.9109 3.94157 63.8682 2.57623L61.1803 2.28823Z" fill="white"/>
</svg>
