<svg width="36" height="36" viewBox="0 0 36 36" fill="none" xmlns="http://www.w3.org/2000/svg">
<rect width="36" height="36" rx="18" fill="#F6F6F6"/>
<path d="M22.7445 13.7505C20.6474 11.3957 17.1709 10.8676 14.4692 12.4935C11.7675 14.1193 10.6062 17.4384 11.7049 20.394C12.8037 23.3496 15.8511 25.1041 18.9588 24.5703C22.0665 24.0366 24.3538 21.3658 24.4034 18.213L26.7388 17.5873C26.9731 21.4692 24.6535 25.0515 21.0157 26.4263C17.3778 27.801 13.2688 26.648 10.8772 23.5814C8.48561 20.5148 8.36834 16.2487 10.5878 13.0553C12.8073 9.862 16.8469 8.485 20.5547 9.65779L19.7039 8.18493L21.7562 7L25.2648 13.0763L22.7445 13.7505Z" fill="black"/>
</svg>
