<svg width="1em" height="1em" viewBox="0 0 23 23" fill="currentColor" xmlns="http://www.w3.org/2000/svg">
<path fill-rule="evenodd" clip-rule="evenodd" d="M17.5 10C17.5 14.1421 14.1421 17.5 10 17.5C5.85786 17.5 2.5 14.1421 2.5 10C2.5 5.85786 5.85786 2.5 10 2.5C14.1421 2.5 17.5 5.85786 17.5 10ZM16.1321 17.8998C14.4387 19.2161 12.3109 20 10 20C4.47715 20 0 15.5228 0 10C0 4.47715 4.47715 0 10 0C15.5228 0 20 4.47715 20 10C20 12.3109 19.2161 14.4387 17.8998 16.1321L22.3839 20.6161C22.872 21.1043 22.872 21.8957 22.3839 22.3839C21.8957 22.872 21.1043 22.872 20.6161 22.3839L16.1321 17.8998Z" fill="currentColor"/>
</svg>
