<svg width="44" height="53" viewBox="0 0 44 53" fill="none" xmlns="http://www.w3.org/2000/svg">
<path d="M2.3375 12.3584C3.62847 12.3584 4.675 13.4049 4.675 14.6959V44.3111C4.675 46.5202 6.46586 48.3111 8.675 48.3111H34.2793C35.5741 48.3111 36.6237 49.3607 36.6237 50.6555C36.6237 51.9503 35.5741 53 34.2792 53H7.01329C3.13971 53 0 49.8512 0 45.9666V14.6959C0 13.4049 1.04653 12.3584 2.3375 12.3584ZM39.2857 0C40.536 0 41.7351 0.492698 42.6192 1.36971C43.5033 2.24671 44 3.43619 44 4.67647V39.5294C44 40.1435 43.8781 40.7516 43.6411 41.319C43.4042 41.8864 43.057 42.4019 42.6192 42.8362C42.1815 43.2704 41.6618 43.6149 41.0898 43.8499C40.5178 44.0849 39.9048 44.2059 39.2857 44.2059H12.8571C10.0957 44.2059 7.85714 41.9673 7.85714 39.2059V4.67647C7.85714 3.43619 8.35382 2.24671 9.23792 1.36971C10.122 0.492698 11.3211 0 12.5714 0H39.2857ZM39.2857 4.67647H12.5714V39.5294H39.2857V4.67647ZM30.9753 17.0372C31.8948 16.1242 33.3811 16.1317 34.2913 17.054C35.1975 17.9723 35.1901 19.4507 34.2746 20.3598L24.9197 29.649C24.1372 30.426 22.8735 30.423 22.0946 29.6423L18.6975 26.2372C17.786 25.3235 17.7856 23.8446 18.6967 22.9305C19.6116 22.0126 21.098 22.0124 22.0131 22.9301L23.5196 24.4408L30.9753 17.0372Z" fill="url(#paint0_linear_704_1855)"/>
<defs>
<linearGradient id="paint0_linear_704_1855" x1="-3.97511e-08" y1="27.2162" x2="44" y2="27.2162" gradientUnits="userSpaceOnUse">
<stop stop-color="#A5FFBE"/>
<stop offset="1" stop-color="#55DD7B"/>
</linearGradient>
</defs>
</svg>
