<svg width="47" height="51" viewBox="0 0 47 51" fill="none" xmlns="http://www.w3.org/2000/svg">
<path d="M28.2001 46.3636C28.2001 46.9725 28.0785 47.5754 27.8423 48.1379C27.6061 48.7004 27.2599 49.2115 26.8235 49.642C26.387 50.0726 25.8689 50.4141 25.2986 50.6471C24.7284 50.8801 24.1172 51 23.5 51C22.8828 51 22.2716 50.8801 21.7014 50.6471C21.1311 50.4141 20.613 50.0726 20.1765 49.642C19.7401 49.2115 19.3939 48.7004 19.1577 48.1379C18.9215 47.5754 18.7999 46.9725 18.7999 46.3636H28.2001ZM23.5 0C24.1233 0 24.721 0.244236 25.1617 0.67898C25.6024 1.11372 25.85 1.70336 25.85 2.31818L25.8524 4.78009C30.3953 5.34576 34.5728 7.52727 37.6011 10.9153C40.6294 14.3033 42.3003 18.6649 42.3003 23.1818V39.4091H44.6503C45.2735 39.4092 45.8712 39.6535 46.3118 40.0882C46.7525 40.5229 47 41.1125 47 41.7273C47 42.342 46.7525 42.9316 46.3118 43.3664C45.8712 43.8011 45.2735 44.0454 44.6503 44.0455H2.34968C1.72647 44.0454 1.12882 43.8011 0.688182 43.3664C0.247543 42.9316 0 42.342 0 41.7273C0 41.1125 0.247543 40.5229 0.688182 40.0882C1.12882 39.6535 1.72647 39.4092 2.34968 39.4091H4.69971V23.1818C4.69979 18.6646 6.37103 14.3026 9.39979 10.9146C12.4286 7.52652 16.6066 5.34524 21.15 4.78009V2.31818C21.15 1.70336 21.3976 1.11372 21.8383 0.67898C22.279 0.244236 22.8767 0 23.5 0ZM23.5 9.27273C19.8518 9.2726 16.3456 10.6673 13.718 13.1637C11.0904 15.6602 9.54599 19.0641 9.40918 22.6602L9.39978 23.1818V39.4091H37.6002V23.1818C37.6003 19.5831 36.1865 16.1244 33.6558 13.5325C31.125 10.9405 27.6743 9.41695 24.0288 9.282L23.5 9.27273ZM24.675 30.1364C24.8293 30.1364 24.9821 30.1663 25.1247 30.2246C25.2672 30.2828 25.3968 30.3682 25.5059 30.4759C25.615 30.5835 25.7015 30.7113 25.7606 30.8519C25.8196 30.9925 25.85 31.1432 25.85 31.2955V33.6136C25.85 33.7659 25.8196 33.9166 25.7606 34.0572C25.7015 34.1978 25.615 34.3256 25.5059 34.4332C25.3968 34.5409 25.2672 34.6262 25.1247 34.6845C24.9821 34.7427 24.8293 34.7727 24.675 34.7727H22.325C22.1707 34.7727 22.0179 34.7427 21.8753 34.6845C21.7328 34.6262 21.6032 34.5409 21.4941 34.4332C21.385 34.3256 21.2985 34.1978 21.2394 34.0572C21.1804 33.9166 21.15 33.7659 21.15 33.6136V31.2955C21.15 31.1432 21.1804 30.9925 21.2394 30.8519C21.2985 30.7113 21.385 30.5835 21.4941 30.4759C21.6032 30.3682 21.7328 30.2828 21.8753 30.2246C22.0179 30.1663 22.1707 30.1364 22.325 30.1364H24.675ZM24.675 16.2273C24.8293 16.2273 24.9821 16.2573 25.1247 16.3155C25.2672 16.3738 25.3968 16.4591 25.5059 16.5668C25.615 16.6744 25.7015 16.8022 25.7606 16.9428C25.8196 17.0834 25.85 17.2342 25.85 17.3864V26.6591C25.85 26.8113 25.8196 26.962 25.7606 27.1027C25.7015 27.2433 25.615 27.3711 25.5059 27.4787C25.3968 27.5863 25.2672 27.6717 25.1247 27.73C24.9821 27.7882 24.8293 27.8182 24.675 27.8182H22.325C22.1707 27.8182 22.0179 27.7882 21.8753 27.73C21.7328 27.6717 21.6032 27.5863 21.4941 27.4787C21.385 27.3711 21.2985 27.2433 21.2394 27.1027C21.1804 26.962 21.15 26.8113 21.15 26.6591V17.3864C21.15 17.2342 21.1804 17.0834 21.2394 16.9428C21.2985 16.8022 21.385 16.6744 21.4941 16.5668C21.6032 16.4591 21.7328 16.3738 21.8753 16.3155C22.0179 16.2573 22.1707 16.2273 22.325 16.2273H24.675Z" fill="#FF7D7D"/>
</svg>
