<svg width="18" height="18" viewBox="0 0 18 18" fill="none" xmlns="http://www.w3.org/2000/svg">
<circle cx="9" cy="9" r="9" fill="#F4F4F4"/>
<path fill-rule="evenodd" clip-rule="evenodd" d="M13 5H5V13H13V5ZM5 4C4.44772 4 4 4.44772 4 5V13C4 13.5523 4.44772 14 5 14H13C13.5523 14 14 13.5523 14 13V5C14 4.44772 13.5523 4 13 4H5Z" fill="black"/>
<path fill-rule="evenodd" clip-rule="evenodd" d="M11.5 7C11.5 7.27614 11.2761 7.5 11 7.5H7C6.72386 7.5 6.5 7.27614 6.5 7C6.5 6.72386 6.72386 6.5 7 6.5H11C11.2761 6.5 11.5 6.72386 11.5 7Z" fill="black"/>
<path fill-rule="evenodd" clip-rule="evenodd" d="M11.5 9C11.5 9.27614 11.2761 9.5 11 9.5H7C6.72386 9.5 6.5 9.27614 6.5 9C6.5 8.72386 6.72386 8.5 7 8.5H11C11.2761 8.5 11.5 8.72386 11.5 9Z" fill="black"/>
<path fill-rule="evenodd" clip-rule="evenodd" d="M11.5 11C11.5 11.2761 11.2761 11.5 11 11.5H7C6.72386 11.5 6.5 11.2761 6.5 11V11C6.5 10.7239 6.72386 10.5 7 10.5H11C11.2761 10.5 11.5 10.7239 11.5 11V11Z" fill="black"/>
</svg>
