<svg width="28" height="28" viewBox="0 0 28 28" fill="none" xmlns="http://www.w3.org/2000/svg">
<circle cx="14" cy="14" r="14" fill="#F4F4F4"/>
<mask id="path-2-inside-1_5057_4872" fill="white">
<path fill-rule="evenodd" clip-rule="evenodd" d="M8 7C7.44772 7 7 7.44771 7 8V12.5333C7 13.0856 7.44771 13.5333 8 13.5333H12.5333C13.0856 13.5333 13.5333 13.0856 13.5333 12.5333V8C13.5333 7.44772 13.0856 7 12.5333 7H8ZM8 14.4666C7.44772 14.4666 7 14.9143 7 15.4666V19.9999C7 20.5522 7.44771 20.9999 8 20.9999H12.5333C13.0856 20.9999 13.5333 20.5522 13.5333 19.9999V15.4666C13.5333 14.9143 13.0856 14.4666 12.5333 14.4666H8ZM14.4666 8C14.4666 7.44771 14.9143 7 15.4666 7H19.9999C20.5522 7 20.9999 7.44772 20.9999 8V12.5333C20.9999 13.0856 20.5522 13.5333 19.9999 13.5333H15.4666C14.9143 13.5333 14.4666 13.0856 14.4666 12.5333V8ZM15.4666 14.4666C14.9143 14.4666 14.4666 14.9143 14.4666 15.4666V19.9999C14.4666 20.5522 14.9143 20.9999 15.4666 20.9999H19.9999C20.5522 20.9999 20.9999 20.5522 20.9999 19.9999V15.4666C20.9999 14.9143 20.5522 14.4666 19.9999 14.4666H15.4666Z"/>
</mask>
<path d="M8.3 8C8.3 8.16569 8.16568 8.3 8 8.3V5.7C6.72975 5.7 5.7 6.72974 5.7 8H8.3ZM8.3 12.5333V8H5.7V12.5333H8.3ZM8 12.2333C8.16569 12.2333 8.3 12.3677 8.3 12.5333H5.7C5.7 13.8036 6.72974 14.8333 8 14.8333V12.2333ZM12.5333 12.2333H8V14.8333H12.5333V12.2333ZM12.2333 12.5333C12.2333 12.3676 12.3677 12.2333 12.5333 12.2333V14.8333C13.8036 14.8333 14.8333 13.8036 14.8333 12.5333H12.2333ZM12.2333 8V12.5333H14.8333V8H12.2333ZM12.5333 8.3C12.3676 8.3 12.2333 8.16568 12.2333 8H14.8333C14.8333 6.72975 13.8036 5.7 12.5333 5.7V8.3ZM8 8.3H12.5333V5.7H8V8.3ZM8.3 15.4666C8.3 15.6322 8.16568 15.7666 8 15.7666V13.1666C6.72975 13.1666 5.7 14.1963 5.7 15.4666H8.3ZM8.3 19.9999V15.4666H5.7V19.9999H8.3ZM8 19.6999C8.16569 19.6999 8.3 19.8342 8.3 19.9999H5.7C5.7 21.2701 6.72974 22.2999 8 22.2999V19.6999ZM12.5333 19.6999H8V22.2999H12.5333V19.6999ZM12.2333 19.9999C12.2333 19.8342 12.3677 19.6999 12.5333 19.6999V22.2999C13.8036 22.2999 14.8333 21.2701 14.8333 19.9999H12.2333ZM12.2333 15.4666V19.9999H14.8333V15.4666H12.2333ZM12.5333 15.7666C12.3676 15.7666 12.2333 15.6322 12.2333 15.4666H14.8333C14.8333 14.1963 13.8036 13.1666 12.5333 13.1666V15.7666ZM8 15.7666H12.5333V13.1666H8V15.7666ZM15.4666 5.7C14.1963 5.7 13.1666 6.72974 13.1666 8H15.7666C15.7666 8.16569 15.6322 8.3 15.4666 8.3V5.7ZM19.9999 5.7H15.4666V8.3H19.9999V5.7ZM22.2999 8C22.2999 6.72975 21.2701 5.7 19.9999 5.7V8.3C19.8342 8.3 19.6999 8.16568 19.6999 8H22.2999ZM22.2999 12.5333V8H19.6999V12.5333H22.2999ZM19.9999 14.8333C21.2701 14.8333 22.2999 13.8036 22.2999 12.5333H19.6999C19.6999 12.3676 19.8342 12.2333 19.9999 12.2333V14.8333ZM15.4666 14.8333H19.9999V12.2333H15.4666V14.8333ZM13.1666 12.5333C13.1666 13.8036 14.1963 14.8333 15.4666 14.8333V12.2333C15.6322 12.2333 15.7666 12.3677 15.7666 12.5333H13.1666ZM13.1666 8V12.5333H15.7666V8H13.1666ZM15.7666 15.4666C15.7666 15.6322 15.6322 15.7666 15.4666 15.7666V13.1666C14.1963 13.1666 13.1666 14.1963 13.1666 15.4666H15.7666ZM15.7666 19.9999V15.4666H13.1666V19.9999H15.7666ZM15.4666 19.6999C15.6322 19.6999 15.7666 19.8342 15.7666 19.9999H13.1666C13.1666 21.2701 14.1963 22.2999 15.4666 22.2999V19.6999ZM19.9999 19.6999H15.4666V22.2999H19.9999V19.6999ZM19.6999 19.9999C19.6999 19.8342 19.8342 19.6999 19.9999 19.6999V22.2999C21.2701 22.2999 22.2999 21.2701 22.2999 19.9999H19.6999ZM19.6999 15.4666V19.9999H22.2999V15.4666H19.6999ZM19.9999 15.7666C19.8342 15.7666 19.6999 15.6322 19.6999 15.4666H22.2999C22.2999 14.1963 21.2701 13.1666 19.9999 13.1666V15.7666ZM15.4666 15.7666H19.9999V13.1666H15.4666V15.7666Z" fill="black" mask="url(#path-2-inside-1_5057_4872)"/>
</svg>
