<svg width="16" height="15" viewBox="0 0 16 15" fill="none" xmlns="http://www.w3.org/2000/svg">
<path fill-rule="evenodd" clip-rule="evenodd" d="M12.4178 12.1429H13.556C14.5035 12.1429 15.2748 11.372 15.275 10.4241V1.71877C15.275 0.770697 14.5037 0 13.5562 0H4.85086C3.90315 0 3.13209 0.770879 3.13209 1.71877V2.85713H1.99367C1.04596 2.85713 0.274902 3.62801 0.274902 4.5759V13.2812C0.274902 14.2293 1.04614 15 1.99367 15H10.699C11.6465 15 12.4176 14.2293 12.4178 13.2812V12.1429ZM12.4178 10.7144H13.556C13.7161 10.7144 13.8461 10.5841 13.8461 10.4243V1.71877C13.8461 1.559 13.716 1.42865 13.556 1.42865H4.85068C4.69055 1.42865 4.56055 1.559 4.56055 1.71877V2.85713H10.699C11.6465 2.85713 12.4178 3.62783 12.4178 4.5759V10.7144ZM1.70355 4.5759C1.70355 4.41614 1.83354 4.28578 1.99367 4.28578H10.699C10.859 4.28578 10.9891 4.41614 10.9891 4.5759V13.2812C10.9891 13.441 10.8591 13.5714 10.699 13.5714H1.99367C1.83373 13.5714 1.70355 13.441 1.70355 13.2812V4.5759Z" fill="#7A9283"/>
</svg>
