<svg width="12" height="14" viewBox="0 0 12 14" fill="current" xmlns="http://www.w3.org/2000/svg">
<path d="M8.5 12H1.5C1.10218 12 0.720651 11.842 0.439346 11.5607C0.158042 11.2794 0 10.8978 0 10.5V1.5C0 1.10218 0.158042 0.720643 0.439346 0.439339C0.720651 0.158034 1.10218 0 1.5 0H8.5C8.89782 0 9.27935 0.158034 9.56065 0.439339C9.84196 0.720643 10 1.10218 10 1.5V10.5C10 10.8978 9.84196 11.2794 9.56065 11.5607C9.27935 11.842 8.89782 12 8.5 12ZM1.5 1C1.36739 1 1.24022 1.05268 1.14645 1.14645C1.05269 1.24021 1 1.36739 1 1.5V10.5C1 10.6326 1.05269 10.7598 1.14645 10.8536C1.24022 10.9473 1.36739 11 1.5 11H8.5C8.63261 11 8.75978 10.9473 8.85355 10.8536C8.94731 10.7598 9 10.6326 9 10.5V1.5C9 1.36739 8.94731 1.24021 8.85355 1.14645C8.75978 1.05268 8.63261 1 8.5 1H1.5ZM10.5 14H3C2.86739 14 2.74022 13.9473 2.64645 13.8536C2.55269 13.7598 2.5 13.6326 2.5 13.5C2.5 13.3674 2.55269 13.2402 2.64645 13.1464C2.74022 13.0527 2.86739 13 3 13H10.5C10.6326 13 10.7598 12.9473 10.8535 12.8536C10.9473 12.7598 11 12.6326 11 12.5V3C11 2.86739 11.0527 2.74021 11.1465 2.64645C11.2402 2.55268 11.3674 2.5 11.5 2.5C11.6326 2.5 11.7598 2.55268 11.8535 2.64645C11.9473 2.74021 12 2.86739 12 3V12.5C12 12.8978 11.842 13.2794 11.5607 13.5607C11.2793 13.842 10.8978 14 10.5 14ZM6.5 4H2.5C2.36739 4 2.24022 3.94732 2.14645 3.85355C2.05269 3.75979 2 3.63261 2 3.5C2 3.36739 2.05269 3.24021 2.14645 3.14645C2.24022 3.05268 2.36739 3 2.5 3H6.5C6.63261 3 6.75978 3.05268 6.85355 3.14645C6.94731 3.24021 7 3.36739 7 3.5C7 3.63261 6.94731 3.75979 6.85355 3.85355C6.75978 3.94732 6.63261 4 6.5 4ZM7.5 6.5H2.5C2.36739 6.5 2.24022 6.44732 2.14645 6.35355C2.05269 6.25979 2 6.13261 2 6C2 5.86739 2.05269 5.74021 2.14645 5.64645C2.24022 5.55268 2.36739 5.5 2.5 5.5H7.5C7.63261 5.5 7.75978 5.55268 7.85355 5.64645C7.94731 5.74021 8 5.86739 8 6C8 6.13261 7.94731 6.25979 7.85355 6.35355C7.75978 6.44732 7.63261 6.5 7.5 6.5ZM7.5 9H2.5C2.36739 9 2.24022 8.94732 2.14645 8.85355C2.05269 8.75979 2 8.63261 2 8.5C2 8.36739 2.05269 8.24021 2.14645 8.14645C2.24022 8.05268 2.36739 8 2.5 8H7.5C7.63261 8 7.75978 8.05268 7.85355 8.14645C7.94731 8.24021 8 8.36739 8 8.5C8 8.63261 7.94731 8.75979 7.85355 8.85355C7.75978 8.94732 7.63261 9 7.5 9Z"/>
</svg>
