<svg width="18" height="18" viewBox="0 0 18 18" fill="none" xmlns="http://www.w3.org/2000/svg">
<circle cx="9" cy="9" r="9" fill="#F4F4F4"/>
<path fill-rule="evenodd" clip-rule="evenodd" d="M14.5337 3.16084C14.7763 3.38619 14.7894 3.76461 14.563 4.00606L7.83313 11.1823C7.6067 11.4237 7.22647 11.4368 6.98386 11.2114C6.74125 10.9861 6.72814 10.6077 6.95457 10.3662L13.6844 3.18998C13.9109 2.94853 14.2911 2.93548 14.5337 3.16084Z" fill="black"/>
<path fill-rule="evenodd" clip-rule="evenodd" d="M11.2139 4.21191H5.47116C4.68024 4.21191 4.03906 4.85309 4.03906 5.64401V12.6944C4.03906 13.4853 4.68024 14.1265 5.47116 14.1265H12.5215C13.3124 14.1265 13.9536 13.4853 13.9536 12.6944V6.26422L12.852 7.4389V12.6944C12.852 12.8769 12.704 13.0248 12.5215 13.0248H5.47116C5.28864 13.0248 5.14068 12.8769 5.14068 12.6944V5.64401C5.14068 5.46149 5.28864 5.31353 5.47116 5.31353H10.1808L11.2139 4.21191Z" fill="black"/>
</svg>
