<svg width="48" height="48" viewBox="0 0 48 48" fill="none" xmlns="http://www.w3.org/2000/svg">
<path d="M34.5682 33.9091C34.6586 33.9091 34.7453 33.8732 34.8092 33.8092C34.8732 33.7453 34.9091 33.6586 34.9091 33.5682V9.70455C34.9086 9.25263 34.7288 8.81936 34.4093 8.49981C34.0897 8.18026 33.6565 8.00051 33.2045 8H10.7045C10.2526 8.00051 9.81936 8.18026 9.49981 8.49981C9.18026 8.81936 9.00051 9.25263 9 9.70455V32.2045C9.00051 32.6565 9.18026 33.0897 9.49981 33.4093C9.81936 33.7288 10.2526 33.9086 10.7045 33.9091H34.5682ZM24.6818 14.4545H28.7727C28.9536 14.4545 29.127 14.5264 29.2548 14.6542C29.3827 14.7821 29.4545 14.9555 29.4545 15.1364C29.4545 15.3172 29.3827 15.4906 29.2548 15.6185C29.127 15.7463 28.9536 15.8182 28.7727 15.8182H24.6818C24.501 15.8182 24.3276 15.7463 24.1997 15.6185C24.0718 15.4906 24 15.3172 24 15.1364C24 14.9555 24.0718 14.7821 24.1997 14.6542C24.3276 14.5264 24.501 14.4545 24.6818 14.4545ZM24.6818 19.9091H28.7727C28.9536 19.9091 29.127 19.9809 29.2548 20.1088C29.3827 20.2367 29.4545 20.4101 29.4545 20.5909C29.4545 20.7717 29.3827 20.9452 29.2548 21.073C29.127 21.2009 28.9536 21.2727 28.7727 21.2727H24.6818C24.501 21.2727 24.3276 21.2009 24.1997 21.073C24.0718 20.9452 24 20.7717 24 20.5909C24 20.4101 24.0718 20.2367 24.1997 20.1088C24.3276 19.9809 24.501 19.9091 24.6818 19.9091ZM14.4545 14.1364C14.4544 13.995 14.4983 13.8571 14.58 13.7417C14.6617 13.6264 14.7772 13.5393 14.9106 13.4925C15.044 13.4457 15.1887 13.4415 15.3245 13.4805C15.4604 13.5195 15.5808 13.5998 15.669 13.7102L19.9091 19.0109V14.1364C19.9091 13.9555 19.9809 13.7821 20.1088 13.6542C20.2367 13.5264 20.4101 13.4545 20.5909 13.4545C20.7717 13.4545 20.9452 13.5264 21.073 13.6542C21.2009 13.7821 21.2727 13.9555 21.2727 14.1364V20.9545C21.2728 21.0959 21.229 21.2338 21.1473 21.3492C21.0656 21.4645 20.95 21.5516 20.8167 21.5984C20.6833 21.6452 20.5386 21.6494 20.4027 21.6104C20.2669 21.5714 20.1465 21.4911 20.0582 21.3807L15.8182 16.08V20.9545C15.8182 21.1354 15.7463 21.3088 15.6185 21.4367C15.4906 21.5645 15.3172 21.6364 15.1364 21.6364C14.9555 21.6364 14.7821 21.5645 14.6542 21.4367C14.5264 21.3088 14.4545 21.1354 14.4545 20.9545V14.1364ZM15.1364 25.7273H28.7727C28.9536 25.7273 29.127 25.7991 29.2548 25.927C29.3827 26.0548 29.4545 26.2283 29.4545 26.4091C29.4545 26.5899 29.3827 26.7633 29.2548 26.8912C29.127 27.0191 28.9536 27.0909 28.7727 27.0909H15.1364C14.9555 27.0909 14.7821 27.0191 14.6542 26.8912C14.5264 26.7633 14.4545 26.5899 14.4545 26.4091C14.4545 26.2283 14.5264 26.0548 14.6542 25.927C14.7821 25.7991 14.9555 25.7273 15.1364 25.7273ZM39 15.1591V36.2955C38.9995 36.7474 38.8197 37.1806 38.5002 37.5002C38.1806 37.8197 37.7474 37.9995 37.2955 38H16.1591C15.7072 37.9995 15.2739 37.8197 14.9544 37.5002C14.6348 37.1806 14.4551 36.7474 14.4545 36.2955V35.2727H34.5682C35.0201 35.2722 35.4534 35.0925 35.7729 34.7729C36.0925 34.4534 36.2722 34.0201 36.2727 33.5682V13.4545H37.2955C37.7474 13.4551 38.1806 13.6348 38.5002 13.9544C38.8197 14.2739 38.9995 14.7072 39 15.1591Z" fill="url(#paint0_linear_8528_2624)"/>
<defs>
<linearGradient id="paint0_linear_8528_2624" x1="39" y1="8" x2="8.43205" y2="37.4097" gradientUnits="userSpaceOnUse">
<stop stop-color="#5A50D0"/>
<stop offset="0.114583" stop-color="#5D4ADD"/>
<stop offset="0.414589" stop-color="#9F43D7"/>
<stop offset="0.664756" stop-color="#CF5A7C"/>
<stop offset="0.839685" stop-color="#EC811E"/>
<stop offset="0.979167" stop-color="#FFA858"/>
</linearGradient>
</defs>
</svg>
