<svg width="48" height="48" viewBox="0 0 48 48" fill="none" xmlns="http://www.w3.org/2000/svg">
<path fill-rule="evenodd" clip-rule="evenodd" d="M36.6306 39.25C36.2881 39.25 35.9791 39.1203 35.7418 38.9076L24.4242 32.7983L13.0515 38.8956L13.0412 38.8999C13.0103 38.9128 12.9796 38.925 12.9491 38.9363C12.7173 39.1208 12.4286 39.2292 12.1194 39.2292C11.3499 39.2292 10.75 38.5744 10.75 37.7958V11.9689C10.75 10.1909 12.126 8.75 13.8249 8.75H34.9251C36.624 8.75 38 10.1909 38 11.9689V37.7958C38 38.5923 37.4028 39.25 36.6306 39.25ZM35.2612 11.9689V35.413L25.476 30.1411L25.3973 30.0999L25.3957 30.099C24.8058 29.7795 24.0898 29.772 23.5122 30.0584C23.4778 30.0659 23.449 30.078 23.4252 30.0905C23.4114 30.0977 23.3983 30.1056 23.3916 30.1097L23.3916 30.1097L23.3897 30.1108C23.382 30.1155 23.3787 30.1174 23.3756 30.119L23.3736 30.1201L13.4888 35.4183V11.9689C13.4888 11.7745 13.6398 11.6168 13.8249 11.6168H34.9251C35.1102 11.6168 35.2612 11.7745 35.2612 11.9689Z" fill="black"/>
<rect x="18" y="19.05" width="13" height="3" rx="1.5" fill="black"/>
<rect x="18" y="13.55" width="13" height="3" rx="1.5" fill="black"/>
</svg>
