<svg width="48" height="48" viewBox="0 0 48 48" fill="none" xmlns="http://www.w3.org/2000/svg">
<path fill-rule="evenodd" clip-rule="evenodd" d="M36.6306 39.25C36.2881 39.25 35.9791 39.1203 35.7418 38.9076L24.4242 32.7983L13.0515 38.8956L13.0412 38.8999C13.0103 38.9128 12.9796 38.925 12.9491 38.9363C12.7173 39.1208 12.4286 39.2292 12.1194 39.2292C11.3499 39.2292 10.75 38.5744 10.75 37.7958V11.9689C10.75 10.1909 12.126 8.75 13.8249 8.75H34.9251C36.624 8.75 38 10.1909 38 11.9689V37.7958C38 38.5923 37.4028 39.25 36.6306 39.25Z" fill="black"/>
<rect x="18" y="13.5" width="13" height="3" rx="1.5" fill="white"/>
<rect x="18" y="19" width="13" height="3" rx="1.5" fill="white"/>
</svg>
