<svg width="48" height="48" viewBox="0 0 48 48" fill="none" xmlns="http://www.w3.org/2000/svg">
<path fill-rule="evenodd" clip-rule="evenodd" d="M10.0439 20.3983C10.1107 20.0895 10.2513 19.8064 10.4523 19.584L23.067 7.40723C23.3259 7.14464 23.6575 7 24.0007 7C24.3439 7 24.6755 7.14464 24.9344 7.40723L37.5491 19.584C37.8195 19.874 37.9809 20.2765 37.9984 20.7042C37.9996 20.7345 38.0002 20.7647 38 20.7948C38 20.8089 38 20.823 37.9998 20.837V35.2311C37.9998 37.2809 36.6004 38.9412 34.8726 38.9412H13.1274C12.298 38.9412 11.5026 38.5503 10.9162 37.8545C10.3297 37.1587 10.0002 36.2151 10.0002 35.2311V20.8416C10.0001 20.8309 9.99999 20.8201 10 20.8094C9.99985 20.6705 10.0147 20.5323 10.0439 20.3983Z" fill="black"/>
<path d="M20 29C20 28.4477 20.4477 28 21 28H27C27.5523 28 28 28.4477 28 29V39H20V29Z" fill="white"/>
</svg>
