<svg width="48" height="48" viewBox="0 0 48 48" fill="none" xmlns="http://www.w3.org/2000/svg">
<path fill-rule="evenodd" clip-rule="evenodd" d="M23.9998 10.7838L35.1991 21.5709V35.2311C35.2004 35.2823 35.1929 35.3333 35.1771 35.3809C35.1613 35.4286 35.1375 35.472 35.1071 35.5084C35.0768 35.5448 35.0405 35.5736 35.0005 35.5929C34.9605 35.6122 34.9177 35.6216 34.8745 35.6207H28.9985V26.3996C29.0019 26.2148 28.9668 26.0311 28.8951 25.8597C28.8235 25.6883 28.7167 25.5326 28.5813 25.4019C28.4459 25.2713 28.2846 25.1684 28.1071 25.0994C27.9296 25.0303 27.7394 24.9966 27.5481 25.0003H20.4486C20.2574 24.9969 20.0675 25.0308 19.8902 25.0999C19.7129 25.1691 19.5519 25.272 19.4167 25.4026C19.2815 25.5333 19.1749 25.6889 19.1034 25.8602C19.0318 26.0315 18.9968 26.2149 19.0002 26.3996V35.6207H13.1255C12.9403 35.6207 12.799 35.4531 12.799 35.2311V21.5723L23.9998 10.7838ZM26.1017 35.6207H21.8989V27.8009H26.1017V35.6207ZM20.0109 38.9412H13.1274C12.298 38.9412 11.5026 38.5503 10.9162 37.8545C10.3297 37.1587 10.0002 36.2151 10.0002 35.2311V20.8416L10 20.8094C9.99985 20.6705 10.0147 20.5323 10.0439 20.3983C10.1107 20.0894 10.2514 19.8064 10.4523 19.584L23.067 7.40723C23.3259 7.14464 23.6575 7 24.0007 7C24.3439 7 24.6755 7.14464 24.9344 7.40723L37.5491 19.584C37.8195 19.874 37.9809 20.2765 37.9984 20.7042C37.9996 20.7345 38.0002 20.7647 38 20.7948C38 20.8018 38 20.8088 38 20.8158C37.9999 20.8229 37.9999 20.83 37.9998 20.837V35.2311C37.9998 37.2809 36.6004 38.9412 34.8726 38.9412H28.0225C27.8845 38.9821 27.7404 39.0019 27.5955 38.9998H20.4486C20.3002 39.0024 20.1525 38.9825 20.0109 38.9412Z" fill="black"/>
</svg>
