<svg width="14" height="18" viewBox="0 0 14 18" fill="none" xmlns="http://www.w3.org/2000/svg">
<path d="M5.18689 18C5.18689 18 -2.57587 16.245 0.891923 7.53136C0.891923 7.53136 1.68729 8.5009 1.57196 8.96727C1.57196 8.96727 2.18837 6.76636 3.5206 5.45318C4.66592 4.32 5.82717 1.14545 4.75739 0C4.75739 0 10.0665 1.14545 10.659 6.885C10.659 6.885 11.339 5.05637 12.7309 4.87636C12.4633 5.69101 12.4633 6.57354 12.7309 7.38819C12.7309 7.38819 17.1293 15.1323 9.54947 17.7505C9.54947 17.7505 11.8202 15.0955 7.00429 10.5423C7.00429 10.5423 5.86693 12.9968 5.19086 13.8395C5.18689 13.8395 3.28995 16.0282 5.18689 18Z" fill="white"/>
</svg>
