<svg width="48" height="48" viewBox="0 0 48 48" fill="none" xmlns="http://www.w3.org/2000/svg">
<path fill-rule="evenodd" clip-rule="evenodd" d="M25.9994 11.0487C25.9998 11.0325 26 11.0163 26 11C26 9.89543 25.1046 9 24 9C22.8954 9 22 9.89543 22 11C22 11.049 22.0018 11.0975 22.0052 11.1456C17.052 12.1104 12.649 16.2356 12.649 23.385V27.5925C12.649 29.4171 12.0462 31.1695 10.9695 32.497L10.3915 33.211C9.1378 34.7558 10.116 37.252 12.1709 37.252H18.4212C18.7893 38.4856 19.5458 39.5674 20.578 40.3366C21.6103 41.1057 22.8632 41.5212 24.1506 41.5212C25.4379 41.5212 26.6908 41.1057 27.7231 40.3366C28.7554 39.5674 29.5118 38.4856 29.8799 37.252H36.1288C38.1837 37.252 39.1619 34.7565 37.9089 33.211L37.3309 32.4977C36.2542 31.1695 35.6507 29.4171 35.6507 27.5925V23.385C35.6507 15.852 31.0715 11.7881 25.9994 11.0487ZM21.5088 37.252H26.7909C26.5061 37.6937 26.1158 38.0569 25.6543 38.3084C25.1929 38.5599 24.6758 38.6917 24.1502 38.6917C23.6247 38.6917 23.1075 38.5599 22.6461 38.3084C22.1846 38.0569 21.7936 37.6937 21.5088 37.252Z" fill="black"/>
</svg>
