<svg width="40" height="40" viewBox="0 0 40 40" fill="none" xmlns="http://www.w3.org/2000/svg">
<path fill-rule="evenodd" clip-rule="evenodd" d="M21.6665 9.18399C21.6666 9.17822 21.6666 9.17245 21.6666 9.16667C21.6666 8.24619 20.9204 7.5 19.9999 7.5C19.0794 7.5 18.3333 8.24619 18.3333 9.16667C18.3333 9.19544 18.334 9.22404 18.3354 9.25246C14.2086 10.044 10.5408 13.4811 10.5408 19.4875V22.9938C10.5408 24.5143 10.0384 25.9747 9.14121 27.0809L8.65954 27.6759C7.61475 28.9632 8.42992 31.0434 10.1423 31.0434H15.3509C15.6577 32.0714 16.2881 32.9729 17.1483 33.6139C18.0085 34.2548 19.0526 34.6011 20.1254 34.6011C21.1982 34.6011 22.2423 34.2548 23.1025 33.6139C23.9627 32.9729 24.5931 32.0714 24.8999 31.0434H30.1073C31.8197 31.0434 32.6349 28.9638 31.5907 27.6759L31.109 27.0814C30.2118 25.9747 29.7089 24.5143 29.7089 22.9938V19.4875C29.7089 13.2257 25.8931 9.81813 21.6665 9.18399ZM17.924 31.0434H22.3257C22.0883 31.4115 21.7631 31.7141 21.3785 31.9237C20.994 32.1333 20.563 32.2431 20.1251 32.2431C19.6872 32.2431 19.2562 32.1333 18.8717 31.9237C18.4871 31.7141 18.1613 31.4115 17.924 31.0434ZM20.0177 11.556H20.4362C24.2204 11.556 27.3477 15.0781 27.3477 19.4875V22.9938L27.3507 23.2305C27.4015 25.2008 28.0797 27.0938 29.275 28.5678L29.3671 28.6817H10.8819L10.9758 28.5672C12.2183 27.0348 12.9019 25.0485 12.9019 22.9938V19.4881L12.9042 19.2939C12.994 14.9754 16.0858 11.5554 19.814 11.5554H20.0047L20.0177 11.556Z" fill="black"/>
</svg>
