<svg width="28" height="28" viewBox="0 0 28 28" fill="none" xmlns="http://www.w3.org/2000/svg">
<circle cx="14" cy="14" r="14" fill="white"/>
<path d="M16.5 20.875C16.55 20.875 16.5996 20.8651 16.6458 20.846C16.692 20.8269 16.734 20.7988 16.7694 20.7634C16.8047 20.728 16.8328 20.6861 16.852 20.6398C16.8711 20.5936 16.881 20.5441 16.881 20.494V19.7321C16.881 19.6821 16.8711 19.6326 16.852 19.5864C16.8328 19.5401 16.8047 19.4981 16.7694 19.4628C16.734 19.4274 16.692 19.3993 16.6458 19.3802C16.5996 19.361 16.55 19.3512 16.5 19.3512H10.0238V8.39881H16.5C16.55 8.39881 16.5996 8.38896 16.6458 8.36981C16.692 8.35067 16.734 8.32261 16.7694 8.28723C16.8047 8.25186 16.8328 8.20986 16.852 8.16364C16.8711 8.11742 16.881 8.06788 16.881 8.01786V7.25595C16.881 7.20592 16.8711 7.15639 16.852 7.11017C16.8328 7.06395 16.8047 7.02195 16.7694 6.98658C16.734 6.9512 16.692 6.92314 16.6458 6.904C16.5996 6.88485 16.55 6.875 16.5 6.875H10.0238C9.63286 6.875 9.25687 7.02526 8.9736 7.2947C8.69033 7.56415 8.52145 7.93216 8.5019 8.32262L8.5 8.39881V19.3512C8.5 19.7421 8.65026 20.1181 8.9197 20.4014C9.18915 20.6847 9.55716 20.8535 9.94762 20.8731L10.0238 20.875H16.5ZM18.9747 17.9539L22.2455 14.683C22.4506 14.4779 22.57 14.2025 22.5796 13.9126C22.5891 13.6227 22.4881 13.34 22.297 13.1219L22.2455 13.067L18.9747 9.79614C18.9032 9.72472 18.8063 9.6846 18.7053 9.6846C18.6043 9.6846 18.5074 9.72472 18.436 9.79614L17.8973 10.3348C17.8259 10.4062 17.7858 10.5031 17.7858 10.6041C17.7858 10.7052 17.8259 10.802 17.8973 10.8735L20.1362 13.1131H12.4524C12.4024 13.1131 12.3528 13.1229 12.3066 13.1421C12.2604 13.1612 12.2184 13.1893 12.183 13.2247C12.1476 13.26 12.1196 13.302 12.1004 13.3483C12.0813 13.3945 12.0714 13.444 12.0714 13.494V14.256C12.0714 14.306 12.0813 14.3555 12.1004 14.4017C12.1196 14.448 12.1476 14.49 12.183 14.5253C12.2184 14.5607 12.2604 14.5888 12.3066 14.6079C12.3528 14.6271 12.4024 14.6369 12.4524 14.6369H20.1362L17.8973 16.8765C17.8259 16.948 17.7858 17.0448 17.7858 17.1459C17.7858 17.2469 17.8259 17.3438 17.8973 17.4152L18.436 17.9539C18.5074 18.0253 18.6043 18.0654 18.7053 18.0654C18.8063 18.0654 18.9032 18.0253 18.9747 17.9539Z" fill="#EF424C"/>
</svg>
