<svg width="30" height="30" viewBox="0 0 30 30" fill="none" xmlns="http://www.w3.org/2000/svg">
<circle cx="15" cy="15.625" r="8.375" stroke="black" stroke-width="2"/>
<path fill-rule="evenodd" clip-rule="evenodd" d="M4.94526 15.5641C5.28084 15.84 5.31655 16.3365 5.02503 16.6731C4.39079 17.4053 3.97911 18.0631 3.77707 18.6119C3.57603 19.1579 3.60559 19.524 3.72855 19.7685C3.8655 20.0409 4.19655 20.3128 4.89033 20.4727C5.58074 20.6319 6.52705 20.6517 7.6876 20.5017C10.0017 20.2028 12.9887 19.2527 16.0784 17.6992C19.168 16.1457 21.7121 14.3146 23.3322 12.6355C24.1447 11.7933 24.6932 11.0219 24.9772 10.3728C25.2626 9.72057 25.2417 9.29265 25.1048 9.02027C24.9834 8.77888 24.7131 8.54029 24.1695 8.37601C23.6226 8.21072 22.8679 8.14483 21.9236 8.20934C21.4795 8.23968 21.1046 7.91234 21.0862 7.47819C21.0679 7.04405 21.4131 6.66751 21.8572 6.63717C22.9159 6.56485 23.8851 6.62749 24.684 6.86892C25.4862 7.11135 26.1837 7.55764 26.553 8.29208C26.9719 9.12528 26.842 10.0717 26.4541 10.9582C26.0648 11.8478 25.3758 12.7795 24.4874 13.7003C22.7057 15.547 19.9942 17.4813 16.7811 19.0969C13.568 20.7125 10.3982 21.7353 7.85332 22.0641C6.58436 22.2281 5.4256 22.2255 4.47936 22.0074C3.53647 21.79 2.69925 21.3299 2.28031 20.4967C1.90592 19.7521 1.97042 18.9138 2.26444 18.1152C2.55745 17.3194 3.10094 16.4922 3.8098 15.6739C4.10132 15.3373 4.60969 15.2882 4.94526 15.5641Z" fill="black"/>
<circle cx="10.9375" cy="13.4375" r="1.5625" fill="black"/>
<circle cx="10.9375" cy="13.4375" r="1.5625" fill="black"/>
<ellipse cx="13.75" cy="15" rx="0.625" ry="0.625" fill="black"/>
</svg>
