<svg width="48" height="48" viewBox="0 0 48 48" fill="none" xmlns="http://www.w3.org/2000/svg">
<path d="M11.5314 25.1025C12.2268 24.2996 12.1565 23.084 11.3252 22.4005C10.5049 21.726 9.29205 21.8587 8.60437 22.6526C7.44121 23.9954 6.51877 25.3864 6.01313 26.7598C5.50585 28.1376 5.36006 29.6792 6.06778 31.0867C6.85992 32.6621 8.41574 33.4752 10.021 33.8452C11.6379 34.2179 13.5763 34.2149 15.6486 33.9472C19.8106 33.4095 24.9532 31.7446 30.1418 29.1357C35.3304 26.5268 39.7338 23.3919 42.6476 20.3718C44.0985 18.868 45.2569 17.3138 45.9221 15.7937C46.5824 14.2845 46.8577 12.5508 46.0655 10.9753C45.3675 9.58709 44.0687 8.787 42.6825 8.36807C41.3022 7.95094 39.6656 7.85223 37.9273 7.97099C36.8794 8.04257 36.0437 8.93166 36.0886 9.99254C36.134 11.0678 37.0622 11.8558 38.1221 11.7834C39.5886 11.6832 40.7102 11.7902 41.4832 12.0238C42.2476 12.2548 42.499 12.5495 42.5869 12.7244C42.6854 12.9203 42.7834 13.3867 42.368 14.336C41.9559 15.2777 41.1343 16.4484 39.8637 17.7654C37.3346 20.3867 33.3293 23.2763 28.4334 25.738C23.5375 28.1997 18.8293 29.6914 15.2169 30.1581C13.4019 30.3926 11.9723 30.3539 10.9705 30.123C9.96083 29.8903 9.64487 29.5334 9.5464 29.3376C9.45741 29.1606 9.36948 28.7745 9.65328 28.0036C9.93972 27.2256 10.5455 26.2406 11.5314 25.1025Z" fill="black" stroke="white" stroke-width="1.3" stroke-linecap="round"/>
<path fill-rule="evenodd" clip-rule="evenodd" d="M14.4695 31.2485C14.4695 31.2484 14.4694 31.2482 14.4693 31.2481C14.613 31.2289 14.7587 31.2081 14.9063 31.1857C18.9333 30.5747 24.08 28.8205 29.3518 26.029C34.2607 23.4296 38.3189 20.4389 41.0227 17.6629C41.0228 17.6632 41.0229 17.6634 41.023 17.6636C38.3191 20.4394 34.2611 23.4301 29.3523 26.0293C24.0805 28.8208 18.9338 30.575 14.9068 31.1861C14.7591 31.2085 14.6134 31.2293 14.4695 31.2485ZM17.6659 34.7428C20.2276 36.7817 23.4715 38 27 38C35.2843 38 42 31.2843 42 23C42 22.7849 41.9955 22.5708 41.9865 22.3578C39.1216 24.8658 35.4798 27.3488 31.3639 29.5282C26.6086 32.0462 21.8332 33.8344 17.6659 34.7428ZM40.4454 16.3426C37.9927 11.3985 32.8932 8 27 8C18.7157 8 12 14.7157 12 23C12 25.5387 12.6307 27.9301 13.7439 30.0261C14.0487 29.9932 14.3668 29.9519 14.6982 29.9016C18.5317 29.32 23.5274 27.6295 28.6979 24.8917C33.7792 22.2011 37.8787 19.1081 40.4454 16.3426Z" fill="black"/>
<circle cx="20.5" cy="17.5" r="2.5" fill="white"/>
<circle cx="25" cy="21" r="1" fill="white"/>
</svg>
