<svg width="18" height="18" viewBox="0 0 18 18" fill="none" xmlns="http://www.w3.org/2000/svg">
<circle cx="9" cy="9" r="9" fill="#F4F4F4"/>
<path fill-rule="evenodd" clip-rule="evenodd" d="M14.8519 5.07148C14.8519 4.47963 14.3837 4 13.8059 4H4.04593C3.46815 4 3 4.47963 3 5.07148V12.9285C3 13.5204 3.46815 14 4.04593 14H13.8059C14.3837 14 14.8519 13.5204 14.8519 12.9285V5.07148ZM4.04587 5.07191H13.8059V12.9289H4.04587V5.07191ZM12.6507 6.64164V7.71201C11.007 7.68793 9.98258 8.21942 9.48925 9.28979L9.45147 9.37534L9.4048 9.48201C8.68591 11.0746 7.29554 11.8672 5.33073 11.8398V10.7683C6.90332 10.795 7.91147 10.2261 8.45073 9.04349L8.49221 8.94904L8.53517 8.85127C9.21591 7.35016 10.6181 6.61904 12.6507 6.64164ZM7.36597 6.50026C7.18745 6.19077 6.85697 6 6.49993 6V6.00052C5.94737 6.00052 5.5 6.4479 5.5 7C5.5 7.5521 5.94737 8 6.49993 8C6.85995 7.99835 7.19105 7.80729 7.36597 7.50026C7.54468 7.18973 7.54468 6.81079 7.36597 6.50026Z" fill="black"/>
</svg>
