<svg width="30" height="30" viewBox="0 0 30 30" fill="none" xmlns="http://www.w3.org/2000/svg">
<path d="M21.3141 8.20263L21.3436 8.23158L21.3732 8.25576C21.3732 8.25571 21.3732 8.25572 21.3733 8.25582C21.3733 8.25586 21.3739 8.25628 21.3739 8.25635C21.3742 8.25654 21.3741 8.25645 21.3745 8.25683L21.3747 8.25693L21.3751 8.25729L21.3876 8.26793C21.4008 8.27929 21.4229 8.29854 21.4526 8.32553C21.5121 8.37954 21.6022 8.46429 21.7137 8.57866C21.9371 8.80785 22.244 9.15324 22.5638 9.60571C23.2049 10.5128 23.8825 11.8279 24.067 13.4886C24.4279 16.7364 21.8345 19.2961 19.4184 19.0312L19.4184 19.0312C17.8145 18.8555 16.3988 19.0702 15.6304 20.0216C14.8193 21.0259 15.0964 22.3544 15.6823 23.4777C15.8907 23.8775 15.8827 24.0923 15.865 24.177C15.8498 24.2498 15.8057 24.3358 15.6616 24.4337C15.3232 24.6636 14.6783 24.7772 14.1033 24.7025C9.78615 24.0403 6.81983 20.7827 6.07461 17.3899C5.3336 14.0161 6.93975 9.29675 11.0128 7.03425L11.0129 7.03417C14.8053 4.92673 19.084 6.01323 21.3141 8.20263Z" stroke="black" stroke-width="1.8"/>
<path d="M10.3259 16.2287C9.45561 16.2287 8.75 15.5137 8.75 14.6319C8.75 13.7501 9.45561 13.0351 10.3259 13.0351C11.1961 13.0351 11.9017 13.7501 11.9017 14.6319C11.9017 15.5137 11.1973 16.2287 10.3259 16.2287ZM12.8538 12.2343C11.9835 12.2343 11.2779 11.5194 11.2779 10.6375C11.2779 9.75574 11.9835 9.04076 12.8538 9.04076C13.724 9.04076 14.4296 9.75574 14.4296 10.6375C14.4308 11.5194 13.7252 12.2343 12.8538 12.2343ZM17.8401 11.9436C16.9698 11.9436 16.2642 11.2286 16.2642 10.3468C16.2642 9.46498 16.9698 8.75 17.8401 8.75C18.7104 8.75 19.416 9.46498 19.416 10.3468C19.416 11.2286 18.7104 11.9436 17.8401 11.9436ZM20.368 16.0488C19.4978 16.0488 18.7921 15.3338 18.7921 14.452C18.7921 13.5702 19.4978 12.8552 20.368 12.8552C21.2383 12.8552 21.9439 13.5702 21.9439 14.452C21.9439 15.3338 21.2383 16.0488 20.368 16.0488Z" fill="black"/>
<path fill-rule="evenodd" clip-rule="evenodd" d="M22.6562 21.25C22.6562 20.8185 22.3065 20.4688 21.875 20.4688C21.4435 20.4688 21.0938 20.8185 21.0938 21.25V22.3438L20 22.3438C19.5685 22.3438 19.2188 22.6935 19.2188 23.125C19.2188 23.5565 19.5685 23.9062 20 23.9062L21.0938 23.9062V25C21.0938 25.4315 21.4435 25.7812 21.875 25.7812C22.3065 25.7812 22.6563 25.4315 22.6563 25V23.9062L23.75 23.9062C24.1815 23.9062 24.5312 23.5565 24.5312 23.125C24.5312 22.6935 24.1815 22.3438 23.75 22.3438L22.6562 22.3438V21.25Z" fill="black"/>
</svg>
