<svg width="48" height="48" viewBox="0 0 48 48" fill="none" xmlns="http://www.w3.org/2000/svg">
<path d="M38.9422 21.6092C38.325 16.0438 34.4169 12.8483 34.4169 12.8483C30.6762 9.16858 23.6126 7.39543 17.3637 10.875C10.7046 14.5815 8.06088 22.2899 9.29335 27.9125C10.5258 33.5351 15.403 38.8737 22.4648 39.9528C24.5948 40.2369 27.8462 39.2721 26.2205 36.1472C24.5948 33.0242 25.8272 30.9231 30.4805 31.434C35.1319 31.945 39.5594 27.1747 38.9422 21.6092ZM14.9533 24.86C13.5609 24.86 12.4319 23.7161 12.4319 22.3052C12.4319 20.8943 13.5609 19.7503 14.9533 19.7503C16.3457 19.7503 17.4747 20.8943 17.4747 22.3052C17.4747 23.7161 16.3476 24.86 14.9533 24.86ZM19.998 18.4691C18.6055 18.4691 17.4766 17.3251 17.4766 15.9142C17.4766 14.5033 18.6055 13.3593 19.998 13.3593C21.3904 13.3593 22.5193 14.5033 22.5193 15.9142C22.5212 17.3251 21.3922 18.4691 19.998 18.4691ZM27.9761 18.0038C26.5837 18.0038 25.4547 16.8599 25.4547 15.449C25.4547 14.0381 26.5837 12.8941 27.9761 12.8941C29.3685 12.8941 30.4975 14.0381 30.4975 15.449C30.4975 16.8599 29.3685 18.0038 27.9761 18.0038ZM33.0207 24.5721C31.6283 24.5721 30.4993 23.4282 30.4993 22.0173C30.4993 20.6064 31.6283 19.4624 33.0207 19.4624C34.4131 19.4624 35.5421 20.6064 35.5421 22.0173C35.5421 23.4282 34.4131 24.5721 33.0207 24.5721Z" fill="black"/>
<path fill-rule="evenodd" clip-rule="evenodd" d="M36.25 34.25C36.25 33.5596 35.6904 33 35 33C34.3096 33 33.75 33.5596 33.75 34.25V36L32 36C31.3096 36 30.75 36.5596 30.75 37.25C30.75 37.9404 31.3096 38.5 32 38.5H33.75V40.25C33.75 40.9404 34.3096 41.5 35 41.5C35.6904 41.5 36.25 40.9404 36.25 40.25V38.5H38C38.6904 38.5 39.25 37.9404 39.25 37.25C39.25 36.5596 38.6904 36 38 36L36.25 36V34.25Z" fill="black"/>
</svg>
