<svg width="18" height="18" viewBox="0 0 18 18" fill="none" xmlns="http://www.w3.org/2000/svg">
<circle cx="9" cy="9" r="9" fill="#F4F4F4"/>
<path d="M7.18095 9.78127C6.27905 9.18853 5.68359 8.16771 5.68359 7.00781C5.68359 5.17621 7.16839 3.69141 9 3.69141C10.8316 3.69141 12.3164 5.17621 12.3164 7.00781C12.3164 8.16771 11.721 9.18853 10.8191 9.78127C12.4712 10.488 13.6289 12.1284 13.6289 14.0391C13.6289 14.3238 13.398 14.5547 13.1133 14.5547C12.8285 14.5547 12.5977 14.3238 12.5977 14.0391C12.5977 12.0521 10.9869 10.4414 9 10.4414C7.01307 10.4414 5.40234 12.0521 5.40234 14.0391C5.40234 14.3238 5.17148 14.5547 4.88672 14.5547C4.60195 14.5547 4.37109 14.3238 4.37109 14.0391C4.37109 12.1284 5.52875 10.488 7.18095 9.78127ZM9 9.29297C10.2621 9.29297 11.2852 8.26988 11.2852 7.00781C11.2852 5.74575 10.2621 4.72266 9 4.72266C7.73794 4.72266 6.71484 5.74575 6.71484 7.00781C6.71484 8.26988 7.73794 9.29297 9 9.29297Z" fill="black"/>
</svg>
