<svg width="48" height="48" viewBox="0 0 48 48" fill="none" xmlns="http://www.w3.org/2000/svg">
<path d="M11.4 24.4H35.6V36C35.6 36.8837 34.8837 37.6 34 37.6H13C12.1163 37.6 11.4 36.8837 11.4 36V24.4Z" stroke="#9a9a9a" stroke-width="2.8"/>
<path d="M12 18.4H35C35.8837 18.4 36.6 19.1163 36.6 20V24.6H10.4V20C10.4 19.1163 11.1163 18.4 12 18.4Z" stroke="#9a9a9a" stroke-width="2.8"/>
<path d="M23.2623 17.9087C15.6947 16.3346 11.3262 12.9493 14.3424 9.75245C17.1555 6.77085 22.2922 10.7557 23.2623 17.9087Z" stroke="#9a9a9a" stroke-width="3"/>
<path d="M24.0004 17.9087C31.568 16.3346 35.9365 12.9493 32.9203 9.75245C30.1072 6.77085 24.9705 10.7557 24.0004 17.9087Z" stroke="#9a9a9a" stroke-width="3"/>
<path d="M23.5 17V37.5" stroke="#9a9a9a" stroke-width="2.8"/>
</svg>
