<svg width="48" height="48" viewBox="0 0 48 48" fill="none" xmlns="http://www.w3.org/2000/svg">
<path d="M10 26H37V36C37 37.6569 35.6569 39 34 39H13C11.3431 39 10 37.6569 10 36V26Z" fill="black"/>
<path d="M9 20C9 18.3431 10.3431 17 12 17H35C36.6569 17 38 18.3431 38 20V24H9V20Z" fill="black"/>
<path d="M23.2623 17.9087C15.6947 16.3346 11.3262 12.9493 14.3424 9.75245C17.1555 6.77085 22.2922 10.7557 23.2623 17.9087Z" stroke="black" stroke-width="2.5"/>
<path d="M24.0004 17.9087C31.568 16.3346 35.9365 12.9493 32.9203 9.75245C30.1072 6.77085 24.9705 10.7557 24.0004 17.9087Z" stroke="black" stroke-width="2.5"/>
<path d="M23.5 17V39" stroke="white" stroke-width="2.5"/>
</svg>
