<svg width="14" height="16" viewBox="0 0 14 16" fill="none" xmlns="http://www.w3.org/2000/svg">
<path fill-rule="evenodd" clip-rule="evenodd" d="M4.86487 3.55902L0.527183 13.8904L0.961255 14.8894L2.03354 15.2868L2.79044 14.9578L6.8953 4.28387L12.3049 7.23463L12.5497 7.08018C10.9529 3.6835 7.58803 2.48309 7.58803 2.48309L7.36469 2.32816L7.37439 2.24L7.48318 2.04885C7.29053 1.41264 6.41233 1.15863 6.41233 1.15863L6.12283 1.04457L5.89831 1.19043L5.46834 1.85696L5.02096 1.37975L2.37675 0.706047L0.507816 2.47798L4.86487 3.55902ZM6.25568 10.1075C6.25568 10.3506 6.3465 10.5913 6.52296 10.8159C6.69942 11.0405 6.95806 11.2446 7.28411 11.4165C7.61017 11.5884 7.99725 11.7247 8.42326 11.8177C8.84927 11.9108 9.30587 11.9587 9.76698 11.9587C10.2281 11.9587 10.6847 11.9108 11.1107 11.8177C11.5367 11.7247 11.9238 11.5884 12.2498 11.4165C12.5759 11.2446 12.8345 11.0405 13.011 10.8159C13.1875 10.5913 13.2783 10.3506 13.2783 10.1075C13.2783 9.86441 13.1875 9.6237 13.011 9.39911C12.8345 9.17452 12.5759 8.97045 12.2498 8.79855C11.9238 8.62666 11.5367 8.4903 11.1107 8.39727C10.6847 8.30424 10.2281 8.25636 9.76698 8.25636C9.30587 8.25636 8.84927 8.30424 8.42326 8.39727C7.99725 8.4903 7.61017 8.62666 7.28411 8.79855C6.95806 8.97045 6.69942 9.17452 6.52296 9.39911C6.3465 9.6237 6.25568 9.86441 6.25568 10.1075ZM9.76015 12.7715C11.5045 12.7715 12.9522 12.1006 13.2244 11.2211C13.2597 11.3259 13.2783 11.4336 13.2793 11.5433C13.2793 12.5659 11.7073 13.3945 9.76798 13.3945C7.82868 13.3945 6.25668 12.5659 6.25668 11.5433C6.25668 11.4414 6.27235 11.3406 6.30271 11.2426C6.59165 12.1114 8.02947 12.7715 9.76015 12.7715ZM13.2244 12.5432C12.9522 13.4227 11.5045 14.0936 9.76015 14.0936C8.02947 14.0936 6.59165 13.4335 6.30271 12.5647C6.27235 12.6627 6.25668 12.7636 6.25668 12.8654C6.25668 13.888 7.82868 14.7166 9.76798 14.7166C11.7073 14.7166 13.2793 13.888 13.2793 12.8654C13.2783 12.7557 13.2597 12.648 13.2244 12.5432ZM13.2244 13.8262C12.9522 14.7058 11.5045 15.3767 9.76015 15.3767C8.02947 15.3767 6.59165 14.7165 6.30271 13.8478C6.27235 13.9457 6.25668 14.0466 6.25668 14.1485C6.25668 15.171 7.82868 15.9996 9.76798 15.9996C11.7073 15.9996 13.2793 15.171 13.2793 14.1485C13.2783 14.0388 13.2597 13.931 13.2244 13.8262Z" fill="white"/>
</svg>
