<svg width="20" height="19" viewBox="0 0 20 19" fill="none" xmlns="http://www.w3.org/2000/svg">
<path fill-rule="evenodd" clip-rule="evenodd" d="M14.0336 14.0706C17.6189 13.2928 20.0641 9.87812 19.5711 6.17755C19.0521 2.28166 15.4731 -0.455854 11.5772 0.0631391C9.40837 0.352066 7.59851 1.58934 6.50966 3.3017C2.84064 3.75378 0 6.8816 0 10.6729C0 14.7749 3.32532 18.1002 7.42731 18.1002C10.3049 18.1002 12.8003 16.4637 14.0336 14.0706ZM14.7109 12.1341C16.892 11.1815 18.2732 8.87124 17.9432 6.39441C17.544 3.39757 14.7909 1.29179 11.7941 1.69102C10.5114 1.86189 9.39201 2.46394 8.56236 3.33175C12.1256 3.87817 14.8546 6.95682 14.8546 10.6729C14.8546 11.173 14.8052 11.6617 14.7109 12.1341ZM7.42731 16.6002C10.7009 16.6002 13.3546 13.9464 13.3546 10.6729C13.3546 7.39932 10.7009 4.74557 7.42731 4.74557C4.15375 4.74557 1.5 7.39932 1.5 10.6729C1.5 13.9464 4.15375 16.6002 7.42731 16.6002ZM8.64139 6.10223V7.00683H10.4506V8.81605H6.83217C6.71221 8.81605 6.59717 8.8637 6.51235 8.94853C6.42752 9.03335 6.37987 9.1484 6.37987 9.26835C6.37987 9.38831 6.42752 9.50336 6.51235 9.58818C6.59717 9.67301 6.71221 9.72066 6.83217 9.72066H8.18908C8.78884 9.72072 9.36401 9.95901 9.78808 10.3831C10.2121 10.8072 10.4504 11.3824 10.4504 11.9822C10.4504 12.5819 10.2121 13.1571 9.78808 13.5812C9.36401 14.0053 8.78884 14.2436 8.18908 14.2436H8.64139V15.1483H6.83217V14.2437H4.57065V12.4345H8.18908C8.30904 12.4345 8.42409 12.3868 8.50891 12.302C8.59373 12.2172 8.64139 12.1021 8.64139 11.9822C8.64139 11.8622 8.59373 11.7472 8.50891 11.6624C8.42409 11.5775 8.30904 11.5299 8.18908 11.5299H6.83217C6.23242 11.5298 5.65725 11.2915 5.23318 10.8674C4.80911 10.4433 4.57087 9.86811 4.57087 9.26835C4.57087 8.6686 4.80911 8.09341 5.23318 7.6693C5.65725 7.24518 6.23242 7.00689 6.83217 7.00683V6.10223H8.64139Z" fill="white"/>
</svg>
