<svg width="13" height="13" viewBox="0 0 13 13" fill="none" xmlns="http://www.w3.org/2000/svg">
<circle cx="6.5" cy="6.5" r="6" fill="#229C1F" stroke="white"/>
<path fill-rule="evenodd" clip-rule="evenodd" d="M5.3204 3.90846C5.48357 3.70064 5.48357 3.36369 5.3204 3.15587C5.15722 2.94804 4.89266 2.94804 4.72948 3.15587L3.1224 5.20265C3.00289 5.35485 2.96714 5.58374 3.03182 5.7826C3.09649 5.98145 3.24885 6.11111 3.41785 6.11111H9.58191C9.81268 6.11111 9.99976 5.87285 9.99976 5.57895C9.99976 5.28504 9.81268 5.04678 9.58191 5.04678H4.42661L5.3204 3.90846ZM7.67963 9.09154C7.51645 9.29936 7.51645 9.63631 7.67963 9.84413C7.84281 10.052 8.10737 10.052 8.27055 9.84413L9.87763 7.79735C9.99713 7.64515 10.0329 7.41626 9.96821 7.2174C9.90353 7.01855 9.75117 6.88889 9.58217 6.88889H3.41811C3.18734 6.88889 3.00027 7.12715 3.00027 7.42105C3.00027 7.71496 3.18734 7.95322 3.41811 7.95322H8.57341L7.67963 9.09154Z" fill="white"/>
</svg>
