<svg width="48" height="48" viewBox="0 0 48 48" fill="none" xmlns="http://www.w3.org/2000/svg">
<path fill-rule="evenodd" clip-rule="evenodd" d="M23.113 12.2034C23.3632 11.2698 22.8092 10.3102 21.8756 10.0601C20.942 9.80992 19.9825 10.3639 19.7323 11.2975L18.2229 16.9307H12.6211C11.6546 16.9307 10.8711 17.7142 10.8711 18.6807C10.8711 19.6472 11.6546 20.4307 12.6211 20.4307H17.2851L15.716 26.2864H10.75C9.7835 26.2864 9 27.0699 9 28.0364C9 29.0029 9.7835 29.7864 10.75 29.7864H14.7782L13.4574 34.7156C13.2073 35.6492 13.7613 36.6087 14.6949 36.8589C15.6285 37.109 16.588 36.555 16.8382 35.6215L18.4017 29.7864H25.8369L24.5161 34.7156C24.266 35.6492 24.82 36.6087 25.7535 36.8589C26.6871 37.109 27.6467 36.555 27.8968 35.6215L29.4603 29.7864H34.3813C35.3478 29.7864 36.1313 29.0029 36.1313 28.0364C36.1313 27.0699 35.3478 26.2864 34.3813 26.2864H30.3982L31.9672 20.4307H36.2524C37.2189 20.4307 38.0024 19.6472 38.0024 18.6807C38.0024 17.7142 37.2189 16.9307 36.2524 16.9307H32.905L34.1717 12.2034C34.4218 11.2698 33.8678 10.3102 32.9343 10.0601C32.0007 9.80992 31.0411 10.3639 30.791 11.2975L29.2815 16.9307H21.8464L23.113 12.2034ZM26.7747 26.2864L28.3437 20.4307H20.9085L19.3395 26.2864H26.7747Z" fill="black"/>
</svg>
