<svg width="48" height="48" viewBox="0 0 48 48" fill="none" xmlns="http://www.w3.org/2000/svg">
<path fill-rule="evenodd" clip-rule="evenodd" d="M23.0483 12.4439C23.3342 11.377 22.7011 10.2803 21.6341 9.99443C20.5672 9.70854 19.4705 10.3417 19.1846 11.4086L17.7052 16.9298H12.8711C11.7665 16.9298 10.8711 17.8252 10.8711 18.9298C10.8711 20.0344 11.7665 20.9298 12.8711 20.9298H16.6335L15.1984 26.2855H11C9.89543 26.2855 9 27.1809 9 28.2855C9 29.3901 9.89543 30.2855 11 30.2855H14.1266L13.0392 34.3438C12.7533 35.4107 13.3865 36.5074 14.4534 36.7933C15.5203 37.0791 16.617 36.446 16.9029 35.379L18.2677 30.2855H25.1853L24.0978 34.3438C23.812 35.4107 24.4451 36.5074 25.5121 36.7933C26.579 37.0791 27.6757 36.446 27.9615 35.379L29.3264 30.2855H34.1313C35.2359 30.2855 36.1313 29.3901 36.1313 28.2855C36.1313 27.1809 35.2359 26.2855 34.1313 26.2855H30.3982L31.8332 20.9298H36.0024C37.107 20.9298 38.0024 20.0344 38.0024 18.9298C38.0024 17.8252 37.107 16.9298 36.0024 16.9298H32.905L34.107 12.4439C34.3929 11.377 33.7597 10.2803 32.6928 9.99443C31.6259 9.70854 30.5292 10.3417 30.2433 11.4086L28.7639 16.9298H21.8464L23.0483 12.4439ZM26.257 26.2855L27.6921 20.9298H20.7746L19.3395 26.2855H26.257Z" fill="black"/>
</svg>
