<svg width="30" height="30" viewBox="0 0 30 30" fill="none" xmlns="http://www.w3.org/2000/svg">
<path fill-rule="evenodd" clip-rule="evenodd" d="M21.25 7.8125H8.75C8.23223 7.8125 7.8125 8.23223 7.8125 8.75V21.25C7.8125 21.7678 8.23223 22.1875 8.75 22.1875H21.25C21.7678 22.1875 22.1875 21.7678 22.1875 21.25V8.75C22.1875 8.23223 21.7678 7.8125 21.25 7.8125ZM8.75 6.25C7.36929 6.25 6.25 7.36929 6.25 8.75V21.25C6.25 22.6307 7.36929 23.75 8.75 23.75H21.25C22.6307 23.75 23.75 22.6307 23.75 21.25V8.75C23.75 7.36929 22.6307 6.25 21.25 6.25H8.75Z" fill="black"/>
<path fill-rule="evenodd" clip-rule="evenodd" d="M20.5524 12.2601C20.8575 12.5652 20.8575 13.0598 20.5524 13.3649L14.9274 18.9899C14.6223 19.295 14.1277 19.295 13.8226 18.9899L10.3851 15.5524C10.08 15.2473 10.08 14.7527 10.3851 14.4476C10.6902 14.1425 11.1848 14.1425 11.4899 14.4476L14.375 17.3326L19.4476 12.2601C19.7527 11.955 20.2473 11.955 20.5524 12.2601Z" fill="black"/>
</svg>
