<svg width="20" height="20" viewBox="0 0 20 20" fill="none" xmlns="http://www.w3.org/2000/svg">
<path d="M16.975 4.90674H16.9399V3.05011C16.9399 2.59471 16.7617 2.15796 16.4444 1.83594C16.1272 1.51392 15.6969 1.33301 15.2482 1.33301L3.02527 3.26475C1.81946 3.51502 1.3335 4.24801 1.3335 5.1965V6.44827H1.34238C1.33654 6.50661 1.33358 6.5652 1.3335 6.62384V16.2826C1.3335 16.738 1.51174 17.1747 1.82901 17.4967C2.14628 17.8188 2.57659 17.9997 3.02527 17.9997H16.975C17.4237 17.9997 17.854 17.8188 18.1713 17.4967C18.4886 17.1747 18.6668 16.738 18.6668 16.2826V6.62384C18.6668 6.16844 18.4886 5.73169 18.1713 5.40967C17.854 5.08765 17.4237 4.90674 16.975 4.90674ZM3.29067 4.7434L15.3078 2.84406C15.3954 2.87025 15.4596 2.95267 15.4596 3.05011V4.90674H3.02527C2.97706 4.90674 2.92969 4.91017 2.88232 4.91425C2.94407 4.84685 3.06165 4.79319 3.29067 4.7434ZM17.1865 12.858H13.9886C13.2256 12.858 12.6048 12.2278 12.6048 11.4534C12.6048 10.679 13.2256 10.0486 13.9886 10.0486H17.1865V12.858ZM13.9886 8.54614C12.407 8.54614 11.1245 9.8475 11.1245 11.4534C11.1245 13.0587 12.4068 14.3605 13.9886 14.3605H17.1865V16.2826C17.1865 16.3108 17.1811 16.3387 17.1704 16.3647C17.1598 16.3907 17.1442 16.4144 17.1246 16.4343C17.1049 16.4543 17.0816 16.4701 17.056 16.4809C17.0303 16.4917 17.0028 16.4972 16.975 16.4972H3.02527C2.9975 16.4972 2.97001 16.4917 2.94435 16.4809C2.91869 16.4701 2.89538 16.4543 2.87574 16.4343C2.8561 16.4144 2.84053 16.3907 2.8299 16.3647C2.81927 16.3387 2.8138 16.3108 2.8138 16.2826V6.62384C2.8138 6.50558 2.90854 6.4092 3.02527 6.4092H15.4596H16.9399H16.975C17.0918 6.4092 17.1865 6.50558 17.1865 6.62384V8.54614H13.9886Z" fill="black"/>
<path d="M13.3335 11.3337C13.3335 11.5105 13.4037 11.68 13.5288 11.8051C13.6538 11.9301 13.8234 12.0003 14.0002 12.0003C14.177 12.0003 14.3465 11.9301 14.4716 11.8051C14.5966 11.68 14.6668 11.5105 14.6668 11.3337C14.6668 11.1568 14.5966 10.9873 14.4716 10.8623C14.3465 10.7372 14.177 10.667 14.0002 10.667C13.8234 10.667 13.6538 10.7372 13.5288 10.8623C13.4037 10.9873 13.3335 11.1568 13.3335 11.3337Z" fill="black"/>
</svg>
