<svg width="30" height="30" viewBox="0 0 30 30" fill="none" xmlns="http://www.w3.org/2000/svg">
<path fill-rule="evenodd" clip-rule="evenodd" d="M18.8459 7.57593C18.9038 7.36038 18.7236 7.15535 18.5024 7.18512L5.58331 8.92423C5.42823 8.94511 5.3125 9.07746 5.3125 9.23393V17.7608C5.3125 17.9151 5.42504 18.0463 5.57748 18.0697L9.07984 18.6085L7.91485 22.6692L12.9257 19.2002L18.4417 20.0488C18.6676 20.0836 18.8532 19.8719 18.7892 19.6525L17.3012 14.5508C17.189 14.166 17.1846 13.7577 17.2887 13.3706L18.8459 7.57593ZM18.2522 5.32689C19.8007 5.11844 21.0621 6.55366 20.6566 8.06253L19.0994 13.8572C19.0846 13.9125 19.0852 13.9708 19.1012 14.0258L20.5892 19.1275C21.0373 20.6637 19.7382 22.1453 18.1566 21.902L13.3788 21.167L8.26248 24.709C7.05525 25.5448 5.46626 24.4049 5.87118 22.9935L6.69041 20.138L5.29238 19.9229C4.22524 19.7587 3.4375 18.8405 3.4375 17.7608V9.23393C3.4375 8.1386 4.24762 7.21212 5.33316 7.06599L18.2522 5.32689Z" fill="black"/>
<path d="M24.2456 19.9556C23.9969 19.9556 23.7483 19.8696 23.5576 19.6952C23.1792 19.3489 23.1792 18.7852 23.5576 18.4389C24.8478 17.2584 25.5578 15.6886 25.5578 14.0178C25.5578 12.3469 24.8478 10.7771 23.5576 9.59662C23.1792 9.25031 23.1792 8.68661 23.5576 8.3403C23.9361 7.99399 24.5522 7.99399 24.9307 8.3403C26.5883 9.85698 27.5 11.8716 27.5 14.0178C27.5 16.1639 26.5883 18.1785 24.9307 19.6952C24.7428 19.8696 24.4942 19.9556 24.2456 19.9556ZM21.5968 17.903C21.3481 17.903 21.0995 17.817 20.9089 17.6426C20.5304 17.2963 20.5304 16.7326 20.9089 16.3863C22.3372 15.0794 22.3372 12.9535 20.9089 11.6467C20.5304 11.3004 20.5304 10.7367 20.9089 10.3903C21.2874 10.044 21.9034 10.044 22.2819 10.3903C24.4672 12.3898 24.4672 15.6431 22.2819 17.6426C22.0941 17.817 21.8454 17.903 21.5968 17.903Z" fill="black"/>
</svg>
