<svg width="48" height="48" viewBox="0 0 48 48" fill="none" xmlns="http://www.w3.org/2000/svg">
<path fill-rule="evenodd" clip-rule="evenodd" d="M6.96696 12.146C5.84059 12.296 5 13.2474 5 14.3722V29.6952C5 30.8039 5.81737 31.7468 6.92464 31.9153L11.3737 32.5927L9.35313 39.5627C9.05903 40.5772 10.2132 41.3966 11.09 40.7959L16.0138 37.4224L20.9376 34.0489L30.2837 35.4718C31.9248 35.7217 33.2727 34.2002 32.8078 32.6227L30.1059 23.455C29.9894 23.0598 29.9849 22.6406 30.0929 22.2431L32.9205 11.8299C33.3412 10.2805 32.0323 8.80675 30.4256 9.02079L6.96696 12.146Z" fill="black"/>
<path d="M38.7929 31.9277C38.3951 31.9277 37.9972 31.7902 37.6922 31.5112C37.0867 30.9571 37.0867 30.0551 37.6922 29.501C39.7565 27.6123 40.8925 25.1006 40.8925 22.4272C40.8925 19.7538 39.7565 17.2422 37.6922 15.3534C37.0867 14.7993 37.0867 13.8974 37.6922 13.3433C38.2978 12.7892 39.2835 12.7892 39.8891 13.3433C42.5413 15.77 44 18.9935 44 22.4272C44 25.861 42.5413 29.0845 39.8891 31.5112C39.5885 31.7902 39.1907 31.9277 38.7929 31.9277ZM34.5548 28.6436C34.157 28.6436 33.7592 28.5061 33.4542 28.227C32.8486 27.6729 32.8486 26.771 33.4542 26.2169C35.7395 24.1259 35.7395 20.7245 33.4542 18.6335C32.8486 18.0794 32.8486 17.1775 33.4542 16.6234C34.0598 16.0693 35.0455 16.0693 35.6511 16.6234C39.1475 19.8226 39.1475 25.0278 35.6511 28.227C35.3505 28.5061 34.9527 28.6436 34.5548 28.6436Z" fill="black"/>
</svg>
