<svg width="24" height="24" viewBox="0 0 24 24" fill="none" xmlns="http://www.w3.org/2000/svg">
<mask id="mask0_4030_3953" style="mask-type:alpha" maskUnits="userSpaceOnUse" x="0" y="0" width="24" height="24">
<path d="M12 24C18.6274 24 24 18.6274 24 12C24 5.37258 18.6274 0 12 0C5.37258 0 0 5.37258 0 12C0 18.6274 5.37258 24 12 24Z" fill="white"/>
</mask>
<g mask="url(#mask0_4030_3953)">
<path fill-rule="evenodd" clip-rule="evenodd" d="M12 29C21.3888 29 29 21.3888 29 12C29 2.61117 21.3888 -5 12 -5C2.61117 -5 -5 2.61117 -5 12C-5 21.3888 2.61117 29 12 29ZM5.60188 16.6696C6.067 16.816 6.57088 16.8892 7.11352 16.8892C8.36247 16.8892 9.35731 16.6007 10.098 16.0236C10.8388 15.4379 11.3556 14.555 11.6484 13.375C11.7346 13.0046 11.8164 12.6342 11.8939 12.2638C11.9801 11.8934 12.0532 11.5188 12.1136 11.1398C12.2169 10.5541 12.1997 10.0416 12.0619 9.60232C11.9327 9.16304 11.7044 8.79264 11.3771 8.4912C11.0584 8.18976 10.6665 7.96576 10.2014 7.81936C9.74491 7.66432 9.24532 7.5868 8.70268 7.5868C7.44516 7.5868 6.44596 7.88824 5.70524 8.4912C4.96452 9.09416 4.452 9.977 4.16776 11.1398C4.0816 11.5188 3.99552 11.8934 3.90936 12.2638C3.83184 12.6342 3.7586 13.0046 3.68972 13.375C3.595 13.9606 3.6122 14.4732 3.7414 14.9124C3.87924 15.3517 4.10744 15.7178 4.42616 16.0106C4.74488 16.3035 5.13676 16.5232 5.60188 16.6696ZM8.50888 14.6153C8.15576 14.8909 7.7466 15.0287 7.28148 15.0287C6.80772 15.0287 6.46752 14.8909 6.2608 14.6153C6.05408 14.3397 6.0024 13.9004 6.10576 13.2974C6.17464 12.9185 6.2436 12.561 6.31248 12.2251C6.39 11.8892 6.47616 11.5403 6.57088 11.1786C6.71728 10.5756 6.96276 10.1363 7.30732 9.86072C7.66044 9.58512 8.0696 9.44728 8.53472 9.44728C8.99984 9.44728 9.34004 9.58512 9.5554 9.86072C9.77076 10.1363 9.82244 10.5756 9.71044 11.1786C9.65012 11.5403 9.58124 11.8892 9.50372 12.2251C9.43484 12.561 9.35296 12.9185 9.25824 13.2974C9.11184 13.9004 8.862 14.3397 8.50888 14.6153ZM12.4355 16.6696C12.4872 16.7299 12.556 16.76 12.6422 16.76H14.3993C14.494 16.76 14.5758 16.7299 14.6448 16.6696C14.7223 16.6092 14.7696 16.5317 14.7869 16.437L15.3812 13.6075H17.1254C18.2366 13.6075 19.1194 13.3707 19.774 12.8969C20.4372 12.4232 20.8765 11.6911 21.0919 10.7005C21.1952 10.2009 21.1909 9.766 21.0789 9.3956C20.967 9.01664 20.7689 8.7022 20.4846 8.45244C20.2004 8.20268 19.8429 8.01744 19.4123 7.89688C18.9902 7.77632 18.5164 7.716 17.9911 7.716H14.5544C14.4682 7.716 14.3864 7.74612 14.3089 7.80644C14.2314 7.86676 14.184 7.94427 14.1668 8.039L12.3838 16.437C12.3665 16.5317 12.3838 16.6092 12.4355 16.6696ZM17.203 11.8246H15.7172L16.221 9.51188H17.7714C18.0815 9.51188 18.3097 9.56356 18.4562 9.66692C18.6112 9.77028 18.7017 9.90811 18.7275 10.0804C18.7533 10.2526 18.7447 10.4508 18.7017 10.6747C18.6155 11.0623 18.4303 11.3508 18.1461 11.5403C17.8704 11.7298 17.5561 11.8246 17.203 11.8246Z" fill="black" fill-opacity="0.4"/>
</g>
</svg>
