<svg width="24" height="24" viewBox="0 0 24 24" fill="none" xmlns="http://www.w3.org/2000/svg">
<circle cx="12" cy="12" r="12" fill="black" fill-opacity="0.4"/>
<path d="M8.9032 10.8031L11.8677 7.89L14.8337 10.8044L16.5586 9.10938L11.8677 4.5L7.1784 9.108L8.90326 10.803L8.9032 10.8031ZM4.23535 12L5.96033 10.3047L7.68519 11.9996L5.96021 13.6947L4.23535 12ZM8.9032 13.1971L11.8677 16.11L14.8336 13.1957L16.5595 14.8898L16.5586 14.8907L11.8677 19.5L7.1784 14.892L7.17596 14.8896L8.90338 13.1969L8.9032 13.1971ZM16.0503 12.0007L17.7753 10.3057L19.5001 12.0006L17.7752 13.6957L16.0503 12.0007Z" fill="white"/>
<path d="M13.6176 11.9995H13.6184L11.8682 10.2795L10.5745 11.5504L10.4259 11.6965L10.1194 11.9978L10.1169 12.0001L10.1194 12.0026L11.8682 13.7213L13.6185 12.0013L13.6194 12.0003L13.6178 11.9995" fill="white"/>
</svg>
