<svg width="24" height="24" viewBox="0 0 24 24" fill="none" xmlns="http://www.w3.org/2000/svg">
<circle cx="12" cy="12" r="12" fill="black" fill-opacity="0.4"/>
<path d="M15.9511 9.08246C15.6467 8.89219 15.2509 8.89219 14.9161 9.08246L12.5415 10.5412L10.928 11.4926L8.55352 12.9514C8.24908 13.1416 7.85334 13.1416 7.51845 12.9514L5.63099 11.8097C5.32658 11.6195 5.11348 11.2706 5.11348 10.8901V8.63848C5.11348 8.25794 5.29613 7.90909 5.63099 7.71882L7.48801 6.60887C7.79243 6.4186 8.1882 6.4186 8.52308 6.60887L10.3801 7.71882C10.6845 7.90909 10.8976 8.25794 10.8976 8.63848V10.0972L12.5111 9.11418V7.65538C12.5111 7.27484 12.3284 6.92599 11.9936 6.73572L8.55352 4.6427C8.24908 4.45243 7.85334 4.45243 7.51845 4.6427L4.01753 6.73572C3.68265 6.92599 3.5 7.27484 3.5 7.65538V11.8731C3.5 12.2537 3.68265 12.6025 4.01753 12.7928L7.51845 14.8858C7.8229 15.0761 8.21864 15.0761 8.55352 14.8858L10.928 13.4588L12.5415 12.4757L14.9161 11.0486C15.2205 10.8584 15.6162 10.8584 15.9511 11.0486L17.8081 12.1586C18.1125 12.3488 18.3257 12.6977 18.3257 13.0782V15.3298C18.3257 15.7104 18.143 16.0592 17.8081 16.2495L15.9511 17.3911C15.6467 17.5814 15.2509 17.5814 14.9161 17.3911L13.059 16.2812C12.7546 16.0909 12.5415 15.7421 12.5415 15.3615V13.9028L10.928 14.8858V16.3446C10.928 16.7252 11.1107 17.074 11.4456 17.2643L14.9465 19.3573C15.2509 19.5476 15.6467 19.5476 15.9815 19.3573L19.4825 17.2643C19.7869 17.074 20 16.7252 20 16.3446V12.1269C20 11.7463 19.8174 11.3975 19.4825 11.2072L15.9511 9.08246Z" fill="white"/>
</svg>
