<svg width="24" height="24" viewBox="0 0 24 24" fill="none" xmlns="http://www.w3.org/2000/svg">
<path d="M12 24C10.3796 24 8.80819 23.6828 7.32936 23.0573C5.90059 22.4529 4.61708 21.5876 3.51485 20.4851C2.41263 19.3827 1.54713 18.0994 0.94269 16.6706C0.317193 15.1918 0 13.6204 0 12C0 10.3796 0.317193 8.80819 0.94269 7.32936C1.54713 5.90058 2.4124 4.61708 3.51485 3.51485C4.61731 2.41263 5.90059 1.54713 7.32936 0.94269C8.80819 0.317193 10.3796 0 12 0C13.6204 0 15.1918 0.317193 16.6706 0.94269C18.0994 1.54713 19.3829 2.4124 20.4851 3.51485C21.5874 4.61731 22.4529 5.90058 23.0573 7.32936C23.6828 8.80819 24 10.3796 24 12C24 13.6204 23.6828 15.1918 23.0573 16.6706C22.4529 18.0994 21.5876 19.3829 20.4851 20.4851C19.3827 21.5874 18.0994 22.4529 16.6704 23.0573C15.1916 23.6828 13.6201 24 11.9998 24H12Z" fill="black" fill-opacity="0.4"/>
<path d="M19.4965 19.3066L14.9121 6.18925C14.8667 6.05971 14.691 6.05971 14.6459 6.18925L13.82 8.55189C13.7972 8.6175 13.7972 8.68928 13.82 8.75462L17.5092 19.3105C17.5501 19.4274 17.6564 19.5051 17.7755 19.5051H19.3632C19.4615 19.5051 19.5301 19.403 19.4965 19.3066ZM13.5232 10.1628C13.4778 10.0332 13.3021 10.0332 13.2569 10.1628L12.4311 12.5254C12.4082 12.591 12.4082 12.6628 12.4311 12.7281L14.7316 19.3105C14.7724 19.4274 14.8788 19.5051 14.9978 19.5051H16.5856C16.6839 19.5051 16.7524 19.403 16.7188 19.3066L13.5232 10.1628ZM11.4666 4.49536H9.87885C9.75983 4.49536 9.65345 4.57303 9.61261 4.68996L4.50412 19.3066C4.47027 19.403 4.53877 19.5051 4.63737 19.5051H6.22513C6.34414 19.5051 6.45053 19.4274 6.49137 19.3105L11.5999 4.69388C11.6337 4.59743 11.5652 4.49536 11.4666 4.49536ZM14.2442 4.49536H12.6565C12.5375 4.49536 12.4311 4.57303 12.3902 4.68996L7.28175 19.3066C7.2479 19.403 7.31641 19.5051 7.415 19.5051H9.00276C9.12178 19.5051 9.22817 19.4274 9.269 19.3105L14.3775 4.69388C14.4113 4.59743 14.3428 4.49536 14.2442 4.49536Z" fill="white"/>
</svg>
