<svg width="24" height="24" viewBox="0 0 24 24" fill="none" xmlns="http://www.w3.org/2000/svg">
<path d="M0 0H24V24H10C4.47715 24 0 19.5228 0 14V0Z" fill="#627EEA"/>
<g clip-path="url(#clip0_1_15415)">
<path d="M12 3V9.2819L17 11.6538L12 3Z" fill="#C0CBF6"/>
<path d="M12 3L7 11.6538L12 9.2819V3Z" fill="white"/>
<path d="M12 15.7256V19.9999L17 12.6494L12 15.7256Z" fill="#C0CBF6"/>
<path d="M12 19.9999V15.7337L7 12.6414L12 19.9999Z" fill="white"/>
<path d="M12 14.7382L17 11.6539L12 9.28198V14.7382Z" fill="#8197EE"/>
<path d="M7 11.6539L12 14.7382V9.28198L7 11.6539Z" fill="#C0CBF6"/>
</g>
<defs>
<clipPath id="clip0_1_15415">
<rect width="10" height="17" fill="white" transform="translate(7 3)"/>
</clipPath>
</defs>
</svg>
