<svg width="24" height="24" viewBox="0 0 24 24" fill="none" xmlns="http://www.w3.org/2000/svg">
<path d="M0 0H24V24H10C4.47715 24 0 19.5228 0 14V0Z" fill="black"/>
<path d="M8.50426 10.5637L12 7.068L15.4974 10.5653L17.5314 8.53126L12 3L6.4704 8.5296L8.50433 10.5636L8.50426 10.5637ZM3 12L5.03407 9.96564L7.068 11.9996L5.03393 14.0336L3 12ZM8.50426 13.4365L12 16.932L15.4973 13.4348L17.5324 15.4677L17.5314 15.4688L12 21L6.4704 15.4704L6.46752 15.4675L8.50447 13.4363L8.50426 13.4365ZM16.932 12.0009L18.9661 9.96679L21 12.0007L18.966 14.0348L16.932 12.0009Z" fill="#F3BA2F"/>
<path d="M14.0633 11.9993H14.0641L12.0003 9.9353L10.4749 11.4603L10.2996 11.6357L9.93818 11.9972L9.9353 12L9.93818 12.0029L12.0003 14.0654L14.0643 12.0014L14.0653 12.0003L14.0634 11.9993" fill="#F3BA2F"/>
</svg>
