<svg width="24" height="24" viewBox="0 0 24 24" fill="none" xmlns="http://www.w3.org/2000/svg">
<path d="M0 0H24V24H10C4.47715 24 0 19.5228 0 14V0Z" fill="#1B4ADD"/>
<path d="M20.9908 18.7884L16.104 4.80564C16.0556 4.66755 15.8683 4.66755 15.8202 4.80564L14.9399 7.32415C14.9155 7.3941 14.9155 7.47061 14.9399 7.54026L18.8724 18.7926C18.916 18.9172 19.0294 19 19.1562 19H20.8487C20.9536 19 21.0266 18.8912 20.9908 18.7884ZM14.6234 9.04132C14.575 8.90323 14.3877 8.90323 14.3396 9.04132L13.4593 11.5598C13.4349 11.6298 13.4349 11.7063 13.4593 11.7759L15.9115 18.7926C15.9551 18.9172 16.0685 19 16.1954 19H17.8879C17.9927 19 18.0657 18.8912 18.0299 18.7884L14.6234 9.04132ZM12.4312 3H10.7387C10.6118 3 10.4984 3.08279 10.4549 3.20744L5.00933 18.7884C4.97325 18.8912 5.04628 19 5.15138 19H6.84388C6.97075 19 7.08416 18.9172 7.12769 18.7926L12.5732 3.21162C12.6093 3.1088 12.5363 3 12.4312 3ZM15.3921 3H13.6995C13.5727 3 13.4593 3.08279 13.4157 3.20744L7.97022 18.7884C7.93414 18.8912 8.00716 19 8.11226 19H9.80477C9.93164 19 10.045 18.9172 10.0886 18.7926L15.5341 3.21162C15.5702 3.1088 15.4972 3 15.3921 3Z" fill="white"/>
</svg>
