<svg width="24" height="24" viewBox="0 0 24 24" fill="none" xmlns="http://www.w3.org/2000/svg">
<mask id="mask0_4031_3971" style="mask-type:alpha" maskUnits="userSpaceOnUse" x="0" y="0" width="24" height="24">
<path d="M0 0H24V24H10C4.47715 24 0 19.5228 0 14V0Z" fill="#1B4ADD"/>
</mask>
<g mask="url(#mask0_4031_3971)">
<path d="M12 31C22.4934 31 31 22.4934 31 12C31 1.50659 22.4934 -7 12 -7C1.50659 -7 -7 1.50659 -7 12C-7 22.4934 1.50659 31 12 31Z" fill="white"/>
<path fill-rule="evenodd" clip-rule="evenodd" d="M12 31C22.4934 31 31 22.4934 31 12C31 1.5066 22.4934 -7 12 -7C1.5066 -7 -7 1.5066 -7 12C-7 22.4934 1.5066 31 12 31ZM4.84916 17.2189C5.369 17.3825 5.93216 17.4644 6.53864 17.4644C7.93453 17.4644 9.04641 17.1419 9.87428 16.4969C10.7021 15.8423 11.2797 14.8555 11.6071 13.5367C11.7034 13.1227 11.7948 12.7089 11.8814 12.2949C11.9777 11.8809 12.0595 11.4621 12.1269 11.0386C12.2424 10.384 12.2232 9.8112 12.0692 9.32024C11.9248 8.82928 11.6696 8.41531 11.3038 8.0784C10.9476 7.74149 10.5096 7.49115 9.9898 7.32752C9.47961 7.15424 8.92124 7.0676 8.31476 7.0676C6.90929 7.0676 5.79255 7.40451 4.96468 8.0784C4.13681 8.75229 3.564 9.739 3.24632 11.0386C3.15003 11.4621 3.05381 11.8809 2.95752 12.2949C2.87088 12.7089 2.78903 13.1227 2.71204 13.5367C2.60617 14.1913 2.6254 14.7641 2.7698 15.2551C2.92385 15.746 3.17891 16.1551 3.53512 16.4825C3.89133 16.8098 4.32932 17.0553 4.84916 17.2189ZM8.09816 14.923C7.70349 15.231 7.2462 15.385 6.72636 15.385C6.19687 15.385 5.81664 15.231 5.5856 14.923C5.35456 14.6149 5.2968 14.124 5.41232 13.4501C5.48931 13.0265 5.56637 12.627 5.64336 12.2516C5.73 11.8761 5.82629 11.4862 5.93216 11.0819C6.09579 10.408 6.37015 9.91707 6.75524 9.60904C7.14991 9.30101 7.6072 9.14696 8.12704 9.14696C8.64688 9.14696 9.02711 9.30101 9.2678 9.60904C9.50849 9.91707 9.56625 10.408 9.44108 11.0819C9.37367 11.4862 9.29668 11.8761 9.21004 12.2516C9.13305 12.627 9.04155 13.0265 8.93568 13.4501C8.77205 14.124 8.49283 14.6149 8.09816 14.923ZM12.4867 17.2189C12.5445 17.2863 12.6215 17.32 12.7177 17.32H14.6816C14.7875 17.32 14.8789 17.2863 14.9559 17.2189C15.0426 17.1515 15.0955 17.0649 15.1148 16.959L15.779 13.7966H17.7284C18.9703 13.7966 19.957 13.5319 20.6886 13.0024C21.4299 12.4729 21.9208 11.6547 22.1615 10.5476C22.277 9.98927 22.2722 9.50317 22.1471 9.0892C22.0219 8.66565 21.8005 8.31423 21.4828 8.03508C21.1651 7.75593 20.7656 7.54891 20.2843 7.41416C19.8126 7.27941 19.2831 7.212 18.6959 7.212H14.8549C14.7586 7.212 14.6671 7.24567 14.5805 7.31308C14.4939 7.38049 14.4409 7.46713 14.4217 7.573L12.4289 16.959C12.4096 17.0649 12.4289 17.1515 12.4867 17.2189ZM17.8151 11.8039H16.1545L16.7176 9.21916H18.4504C18.797 9.21916 19.052 9.27692 19.2157 9.39244C19.389 9.50796 19.4901 9.66201 19.519 9.85452C19.5479 10.047 19.5382 10.2685 19.4901 10.5188C19.3938 10.952 19.1869 11.2744 18.8692 11.4862C18.5611 11.6981 18.2097 11.8039 17.8151 11.8039Z" fill="#FF0420"/>
</g>
</svg>
