<svg width="28" height="29" viewBox="0 0 28 29" fill="none" xmlns="http://www.w3.org/2000/svg">
<circle cx="14" cy="15" r="12" fill="white"/>
<path d="M4.10003 23.901C2.79608 22.6038 1.76235 21.0609 1.05859 19.3616C0.354829 17.6623 -0.00495468 15.8403 5.50638e-05 14.001C-0.00512033 12.1617 0.354575 10.3396 1.05834 8.64031C1.76211 6.94096 2.79595 5.39809 4.10003 4.10101C5.40007 2.80084 6.94349 1.76948 8.64215 1.06582C10.3408 0.362167 12.1614 0 14.0001 0C15.8387 0 17.6593 0.362167 19.358 1.06582C21.0566 1.76948 22.6 2.80084 23.9001 4.10101C25.2042 5.39809 26.238 6.94096 26.9418 8.64031C27.6455 10.3396 28.0052 12.1617 28.0001 14.001C28.0051 15.8403 27.6453 17.6623 26.9415 19.3616C26.2378 21.0609 25.204 22.6038 23.9001 23.901C22.6 25.2012 21.0566 26.2325 19.358 26.9362C17.6593 27.6399 15.8387 28.002 14.0001 28.002C12.1614 28.002 10.3408 27.6399 8.64215 26.9362C6.94349 26.2325 5.40007 25.2012 4.10003 23.901ZM6.45007 8.32601C4.87032 11.3254 4.01417 14.6527 3.95007 18.042C4.26117 18.5152 4.65638 18.9273 5.11608 19.258C6.28615 20.0966 7.69053 20.5455 9.13006 20.541C9.13006 20.541 9.13003 20.541 9.13903 20.528C9.31703 20.294 9.78107 19.69 10.2441 19.155C9.0714 18.8474 8.03127 18.1651 7.28204 17.212C7.28971 17.2145 7.29712 17.2179 7.30407 17.222C7.35907 17.252 7.52506 17.342 7.74706 17.489H7.83007C7.84544 17.4893 7.86051 17.493 7.87432 17.4997C7.88814 17.5064 7.90032 17.5161 7.91003 17.528V17.539C7.91953 17.552 7.93208 17.5626 7.94653 17.5697C7.96098 17.5768 7.97692 17.5804 7.99304 17.58L8.09307 17.623C8.52507 17.8 8.93203 17.967 9.27703 18.133C10.0761 18.4751 10.912 18.7241 11.7681 18.875C12.5245 18.9885 13.2881 19.047 14.053 19.05C14.7756 19.051 15.4971 18.9925 16.2101 18.875L16.2701 18.862C17.1027 18.7018 17.9171 18.4582 18.701 18.135C18.85 18.059 19.0081 17.982 19.1741 17.902C19.6767 17.67 20.1643 17.4069 20.634 17.114V17.119C19.8555 18.0799 18.7846 18.7603 17.584 19.057C18.035 19.693 18.6781 20.434 18.6841 20.441C19.6534 20.4516 20.6143 20.2589 21.5046 19.8753C22.3949 19.4917 23.1949 18.9258 23.8531 18.214C23.9531 18.114 24.0101 18.048 24.0331 18.048C24.0353 18.0472 24.0378 18.0472 24.04 18.048C23.9699 14.658 23.1098 11.3312 21.5281 8.33201C20.1676 7.27239 18.5109 6.66283 16.7881 6.58801L16.795 6.58101L16.774 6.58801H16.7881L16.532 6.84201C18.09 7.24052 19.545 7.96667 20.8 8.97201C19.1813 8.13818 17.4244 7.60584 15.615 7.40101C15.1186 7.32638 14.6171 7.29061 14.115 7.29401C13.406 7.29401 12.7011 7.35601 12.1871 7.40101H11.9111C10.5675 7.52286 9.25329 7.86652 8.02203 8.41801C7.38203 8.69501 7.00808 8.88201 7.00408 8.88301V8.87701C8.28934 7.8191 9.81343 7.09101 11.444 6.75601L11.2571 6.57001H11.2051C9.47764 6.65224 7.81754 7.26508 6.45104 8.32501L6.45007 8.32601ZM16.0001 14.751C16.0001 14.4049 16.1027 14.0665 16.295 13.7788C16.4873 13.491 16.7606 13.2667 17.0804 13.1342C17.4001 13.0018 17.752 12.9671 18.0915 13.0346C18.431 13.1022 18.7427 13.2688 18.9875 13.5136C19.2322 13.7583 19.3989 14.0701 19.4664 14.4096C19.5339 14.7491 19.4993 15.1009 19.3668 15.4207C19.2344 15.7405 19.0101 16.0138 18.7223 16.2061C18.4345 16.3984 18.0962 16.501 17.7501 16.501C17.2859 16.501 16.8408 16.3166 16.5126 15.9884C16.1844 15.6603 16.0001 15.2151 16.0001 14.751ZM9.00006 14.751C9.00006 14.4049 9.10268 14.0665 9.29498 13.7788C9.48727 13.491 9.76061 13.2667 10.0804 13.1342C10.4001 13.0018 10.752 12.9671 11.0915 13.0346C11.431 13.1022 11.7427 13.2688 11.9875 13.5136C12.2322 13.7583 12.3989 14.0701 12.4664 14.4096C12.5339 14.7491 12.4993 15.1009 12.3668 15.4207C12.2344 15.7405 12.0101 16.0138 11.7223 16.2061C11.4345 16.3984 11.0962 16.501 10.7501 16.501C10.2859 16.501 9.84082 16.3166 9.51263 15.9884C9.18444 15.6603 9.00006 15.2151 9.00006 14.751Z" fill="#7389DC"/>
</svg>
