<svg width="27" height="27" viewBox="0 0 27 27" fill="none" xmlns="http://www.w3.org/2000/svg">
<circle cx="13.5" cy="13.5" r="13.5" fill="#F7F3FD"/>
<path d="M14.1488 17.4693L12.6971 18.9198C12.207 19.3875 11.5532 19.645 10.8756 19.6373C10.1979 19.6295 9.55018 19.3571 9.07097 18.8783C8.59176 18.3996 8.31911 17.7524 8.31136 17.0754C8.30362 16.3983 8.56138 15.7452 9.02951 15.2556L10.4812 13.8051C10.5402 13.7462 10.587 13.6763 10.6189 13.5994C10.6508 13.5224 10.6672 13.4399 10.6672 13.3567C10.6672 13.2734 10.6508 13.1909 10.6189 13.1139C10.587 13.037 10.5402 12.9671 10.4812 12.9082C10.4223 12.8493 10.3523 12.8026 10.2753 12.7707C10.1983 12.7388 10.1157 12.7224 10.0324 12.7224C9.94899 12.7224 9.86644 12.7388 9.78942 12.7707C9.71239 12.8026 9.64241 12.8493 9.58346 12.9082L8.13173 14.3586C7.40704 15.0835 7 16.0662 7 17.0908C7 18.1154 7.40704 19.0981 8.13173 19.8231C8.88306 20.5737 9.87636 20.9554 10.8633 20.9554C11.8502 20.9554 12.8435 20.5801 13.5948 19.8231L15.0466 18.3727C15.2949 18.1246 15.2949 17.7238 15.0466 17.4757C14.7983 17.2276 14.3971 17.2212 14.1488 17.4693ZM18.9242 9.03403C19.4104 9.52002 19.6835 10.179 19.6835 10.8661C19.6835 11.5533 19.4104 12.2122 18.9242 12.6982L17.4725 14.1487C17.3836 14.2375 17.3232 14.3507 17.2989 14.4739C17.2746 14.5971 17.2875 14.7248 17.3359 14.8407C17.3844 14.9566 17.4662 15.0555 17.571 15.1248C17.6758 15.1941 17.7989 15.2308 17.9246 15.2301C18.0901 15.2301 18.2493 15.1665 18.3767 15.0456L19.8284 13.5952C20.5531 12.8702 20.9601 11.8875 20.9601 10.863C20.9601 9.83836 20.5531 8.85566 19.8284 8.1307C19.1028 7.40667 18.1192 7 17.0937 7C16.0681 7 15.0845 7.40667 14.3589 8.1307L12.9072 9.58111C12.8482 9.64001 12.8015 9.70993 12.7696 9.78688C12.7377 9.86383 12.7212 9.94631 12.7212 10.0296C12.7212 10.1129 12.7377 10.1954 12.7696 10.2723C12.8015 10.3493 12.8482 10.4192 12.9072 10.4781C12.9661 10.537 13.0361 10.5837 13.1131 10.6156C13.1901 10.6474 13.2727 10.6639 13.3561 10.6639C13.4394 10.6639 13.522 10.6474 13.599 10.6156C13.676 10.5837 13.746 10.537 13.805 10.4781L15.2567 9.02767C15.7454 8.54556 16.405 8.27575 17.0918 8.27695C17.7786 8.27814 18.4372 8.55023 18.9242 9.03403ZM17.4025 17.9401C17.3741 17.8615 17.3306 17.7892 17.2743 17.7275C17.2179 17.6657 17.15 17.6157 17.0743 17.5802C16.9985 17.5448 16.9166 17.5246 16.833 17.5208C16.7495 17.5171 16.666 17.5299 16.5875 17.5584C16.2564 17.6793 16.0844 18.0419 16.2054 18.3727L17.0077 20.5801C17.036 20.6587 17.0796 20.731 17.1359 20.7927C17.1922 20.8545 17.2602 20.9045 17.3359 20.94C17.4116 20.9754 17.4936 20.9956 17.5771 20.9994C17.6607 21.0031 17.7441 20.9903 17.8227 20.9618C18.1538 20.8409 18.3257 20.4783 18.2047 20.1475L17.4025 17.9401ZM20.5797 16.7187L18.3703 15.9171C18.2917 15.8886 18.2082 15.8758 18.1247 15.8796C18.0412 15.8833 17.9592 15.9035 17.8835 15.939C17.8078 15.9744 17.7398 16.0245 17.6835 16.0862C17.6272 16.148 17.5836 16.2202 17.5553 16.2988C17.4343 16.6296 17.6062 16.9922 17.9373 17.1131L20.1468 17.9147C20.2253 17.9432 20.3088 17.956 20.3923 17.9522C20.4759 17.9485 20.5578 17.9283 20.6336 17.8928C20.7093 17.8574 20.7772 17.8073 20.8336 17.7456C20.8899 17.6838 20.9334 17.6116 20.9618 17.533C20.9903 17.4544 21.0031 17.3711 20.9994 17.2876C20.9956 17.2041 20.9754 17.1222 20.9399 17.0466C20.9044 16.971 20.8543 16.903 20.7925 16.8468C20.7307 16.7905 20.6584 16.747 20.5797 16.7187ZM10.6595 10.1346C10.6878 10.2132 10.7314 10.2854 10.7877 10.3472C10.8441 10.4089 10.912 10.459 10.9877 10.4944C11.0634 10.5299 11.1454 10.5501 11.229 10.5538C11.3125 10.5576 11.396 10.5448 11.4745 10.5163C11.8056 10.3954 11.9776 10.0328 11.8566 9.70198L11.0543 7.49455C11.026 7.41594 10.9824 7.34369 10.9261 7.28193C10.8698 7.22018 10.8018 7.17014 10.7261 7.13468C10.6504 7.09922 10.5684 7.07904 10.4849 7.0753C10.4013 7.07155 10.3179 7.08432 10.2393 7.11286C9.90819 7.23373 9.73628 7.59633 9.85725 7.92713L10.6595 10.1346ZM7.48226 11.356L9.6917 12.1575C9.77029 12.1861 9.85375 12.1988 9.93729 12.1951C10.0208 12.1913 10.1028 12.1712 10.1785 12.1357C10.2542 12.1002 10.3222 12.0502 10.3785 11.9884C10.4348 11.9267 10.4784 11.8544 10.5067 11.7758C10.5353 11.6973 10.5481 11.6139 10.5443 11.5305C10.5406 11.447 10.5204 11.3651 10.4849 11.2895C10.4494 11.2138 10.3993 11.1459 10.3375 11.0896C10.2757 11.0334 10.2034 10.9898 10.1247 10.9616L7.91524 10.16C7.83665 10.1315 7.75319 10.1187 7.66966 10.1224C7.58612 10.1262 7.50415 10.1464 7.42843 10.1818C7.35272 10.2173 7.28475 10.2673 7.22843 10.3291C7.17211 10.3908 7.12854 10.4631 7.10023 10.5417C6.97925 10.8725 7.15117 11.2351 7.48226 11.356Z" fill="#6F4293"/>
</svg>
