<svg width="28" height="28" viewBox="0 0 28 28" fill="none" xmlns="http://www.w3.org/2000/svg">
<path d="M14 28C21.732 28 28 21.732 28 14C28 6.26801 21.732 0 14 0C6.26801 0 0 6.26801 0 14C0 21.732 6.26801 28 14 28Z" fill="#D0D0D0"/>
<path d="M14.2321 11.789C13.754 11.789 13.2867 11.9308 12.8893 12.1963C12.4918 12.4619 12.182 12.8394 11.9991 13.2811C11.8161 13.7227 11.7683 14.2087 11.8615 14.6775C11.9548 15.1464 12.185 15.5771 12.523 15.9151C12.861 16.2531 13.2917 16.4833 13.7605 16.5766C14.2294 16.6698 14.7154 16.622 15.157 16.439C15.5987 16.2561 15.9762 15.9463 16.2417 15.5488C16.5073 15.1513 16.6491 14.684 16.6491 14.206C16.6478 13.5654 16.3927 12.9514 15.9397 12.4984C15.4867 12.0454 14.8727 11.7903 14.2321 11.789ZM21.4801 14.206C21.4801 13.206 21.4891 12.214 21.4331 11.215C21.4615 10.6549 21.3721 10.0951 21.1707 9.57166C20.9693 9.04826 20.6603 8.57292 20.2637 8.17636C19.8672 7.77979 19.3918 7.47082 18.8684 7.2694C18.345 7.06798 17.7852 6.97859 17.2251 7.007C16.2251 6.951 15.2321 6.96001 14.2341 6.96001C13.2361 6.96001 12.2421 6.951 11.2431 7.007C10.683 6.97859 10.1231 7.06798 9.59974 7.2694C9.07633 7.47082 8.60099 7.77979 8.20443 8.17636C7.80787 8.57292 7.4989 9.04826 7.29748 9.57166C7.09606 10.0951 7.00667 10.6549 7.03508 11.215C6.97908 12.215 6.98808 13.207 6.98808 14.206C6.98808 15.205 6.97908 16.198 7.03508 17.197C7.00667 17.7571 7.09606 18.3169 7.29748 18.8404C7.4989 19.3638 7.80787 19.8391 8.20443 20.2357C8.60099 20.6322 9.07633 20.9412 9.59974 21.1426C10.1231 21.344 10.683 21.4334 11.2431 21.405C12.2431 21.461 13.2351 21.452 14.2341 21.452C15.2331 21.452 16.2261 21.461 17.2251 21.405C17.7859 21.4335 18.3464 21.3439 18.8704 21.142C19.3944 20.9401 19.8701 20.6304 20.2668 20.233C20.6635 19.8355 20.9723 19.3592 21.1732 18.8348C21.3741 18.3105 21.4626 17.7498 21.4331 17.189C21.4911 16.195 21.4801 15.203 21.4801 14.202V14.206ZM14.2321 17.924C13.4967 17.924 12.7779 17.706 12.1665 17.2974C11.555 16.8889 11.0785 16.3082 10.7971 15.6288C10.5157 14.9494 10.4421 14.2019 10.5855 13.4807C10.729 12.7594 11.0831 12.097 11.6031 11.577C12.123 11.057 12.7855 10.7029 13.5067 10.5594C14.228 10.416 14.9755 10.4896 15.6549 10.771C16.3343 11.0524 16.9149 11.529 17.3235 12.1404C17.732 12.7518 17.9501 13.4707 17.9501 14.206C17.9503 14.6942 17.8543 15.1776 17.6675 15.6287C17.4808 16.0797 17.2068 16.4895 16.8615 16.8346C16.5162 17.1796 16.1062 17.4532 15.655 17.6396C15.2038 17.826 14.7203 17.9217 14.2321 17.921V17.924ZM18.1061 11.2C17.9055 11.1998 17.7113 11.1301 17.5564 11.0027C17.4014 10.8754 17.2955 10.6982 17.2565 10.5015C17.2175 10.3048 17.2479 10.1007 17.3426 9.92385C17.4372 9.74704 17.5902 9.60851 17.7755 9.53185C17.9609 9.45519 18.167 9.44514 18.3589 9.50342C18.5508 9.56169 18.7165 9.68469 18.8279 9.85145C18.9393 10.0182 18.9894 10.2184 18.9698 10.418C18.9501 10.6176 18.8619 10.8042 18.7201 10.946C18.6395 11.0266 18.5437 11.0906 18.4384 11.1342C18.333 11.1777 18.2201 11.2001 18.1061 11.2Z" fill="white"/>
</svg>
