<svg width="28" height="28" viewBox="0 0 28 28" fill="none" xmlns="http://www.w3.org/2000/svg">
<path d="M14 28C21.732 28 28 21.732 28 14C28 6.26801 21.732 0 14 0C6.26801 0 0 6.26801 0 14C0 21.732 6.26801 28 14 28Z" fill="url(#paint0_linear_550_2809)"/>
<path d="M14.2318 11.789C13.7538 11.789 13.2865 11.9308 12.889 12.1963C12.4915 12.4619 12.1818 12.8394 11.9988 13.2811C11.8159 13.7227 11.768 14.2087 11.8613 14.6775C11.9545 15.1464 12.1847 15.5771 12.5228 15.9151C12.8608 16.2531 13.2915 16.4833 13.7603 16.5766C14.2292 16.6698 14.7151 16.622 15.1568 16.439C15.5984 16.2561 15.9759 15.9463 16.2415 15.5488C16.5071 15.1513 16.6488 14.684 16.6488 14.206C16.6475 13.5654 16.3924 12.9514 15.9395 12.4984C15.4865 12.0454 14.8725 11.7903 14.2318 11.789ZM21.4798 14.206C21.4798 13.206 21.4888 12.214 21.4328 11.215C21.4612 10.6549 21.3719 10.0951 21.1704 9.57166C20.969 9.04826 20.66 8.57292 20.2635 8.17636C19.8669 7.77979 19.3916 7.47082 18.8682 7.2694C18.3448 7.06798 17.7849 6.97859 17.2248 7.007C16.2248 6.951 15.2318 6.96001 14.2338 6.96001C13.2358 6.96001 12.2418 6.951 11.2428 7.007C10.6827 6.97859 10.1229 7.06798 9.59949 7.2694C9.07609 7.47082 8.60075 7.77979 8.20419 8.17636C7.80763 8.57292 7.49866 9.04826 7.29724 9.57166C7.09582 10.0951 7.00642 10.6549 7.03483 11.215C6.97883 12.215 6.98784 13.207 6.98784 14.206C6.98784 15.205 6.97883 16.198 7.03483 17.197C7.00642 17.7571 7.09582 18.3169 7.29724 18.8404C7.49866 19.3638 7.80763 19.8391 8.20419 20.2357C8.60075 20.6322 9.07609 20.9412 9.59949 21.1426C10.1229 21.344 10.6827 21.4334 11.2428 21.405C12.2428 21.461 13.2348 21.452 14.2338 21.452C15.2328 21.452 16.2258 21.461 17.2248 21.405C17.7856 21.4335 18.3462 21.3439 18.8702 21.142C19.3942 20.9401 19.8699 20.6304 20.2666 20.233C20.6633 19.8355 20.9721 19.3592 21.173 18.8348C21.3739 18.3105 21.4624 17.7498 21.4328 17.189C21.4908 16.195 21.4798 15.203 21.4798 14.202V14.206ZM14.2318 17.924C13.4965 17.924 12.7776 17.706 12.1662 17.2974C11.5548 16.8889 11.0783 16.3082 10.7969 15.6288C10.5154 14.9494 10.4418 14.2019 10.5853 13.4807C10.7287 12.7594 11.0828 12.097 11.6028 11.577C12.1228 11.057 12.7853 10.7029 13.5065 10.5594C14.2277 10.416 14.9753 10.4896 15.6547 10.771C16.334 11.0524 16.9147 11.529 17.3232 12.1404C17.7318 12.7518 17.9498 13.4707 17.9498 14.206C17.9501 14.6942 17.8541 15.1776 17.6673 15.6287C17.4805 16.0797 17.2066 16.4895 16.8613 16.8346C16.5159 17.1796 16.1059 17.4532 15.6547 17.6396C15.2035 17.826 14.72 17.9217 14.2318 17.921V17.924ZM18.1058 11.2C17.9053 11.1998 17.711 11.1301 17.5561 11.0027C17.4012 10.8754 17.2952 10.6982 17.2563 10.5015C17.2173 10.3048 17.2477 10.1007 17.3423 9.92385C17.437 9.74704 17.59 9.60851 17.7753 9.53185C17.9606 9.45519 18.1668 9.44514 18.3587 9.50342C18.5505 9.56169 18.7163 9.68469 18.8277 9.85145C18.9391 10.0182 18.9892 10.2184 18.9695 10.418C18.9499 10.6176 18.8616 10.8042 18.7198 10.946C18.6392 11.0266 18.5435 11.0906 18.4381 11.1342C18.3328 11.1777 18.2199 11.2001 18.1058 11.2Z" fill="white"/>
<defs>
<linearGradient id="paint0_linear_550_2809" x1="28" y1="0" x2="-0.530088" y2="27.449" gradientUnits="userSpaceOnUse">
<stop stop-color="#5A50D0"/>
<stop offset="0.114583" stop-color="#5D4ADD"/>
<stop offset="0.414589" stop-color="#9F43D7"/>
<stop offset="0.664756" stop-color="#CF5A7C"/>
<stop offset="0.839685" stop-color="#EC811E"/>
<stop offset="0.979167" stop-color="#FFA858"/>
</linearGradient>
</defs>
</svg>
