<svg width="28" height="28" viewBox="0 0 28 28" fill="none" xmlns="http://www.w3.org/2000/svg">
<circle cx="14" cy="14" r="11" fill="white"/>
<path fill-rule="evenodd" clip-rule="evenodd" d="M14 28C21.732 28 28 21.732 28 14C28 6.26801 21.732 0 14 0C6.26801 0 0 6.26801 0 14C0 21.732 6.26801 28 14 28ZM22.1667 7.80907L20.863 9.06172C20.7524 9.14679 20.695 9.28928 20.7184 9.42752V18.6363C20.695 18.7745 20.7524 18.917 20.863 19.0021L22.1369 20.2547V20.5291H15.7312V20.2547L17.0519 18.9723C17.1795 18.8426 17.1795 18.8022 17.1795 18.6065V11.1651L13.5087 20.5057H13.0132L8.74484 11.1651V17.4262C8.70655 17.6899 8.79588 17.9536 8.9809 18.1429L10.6951 20.2271V20.5014H5.83333V20.2313L7.54961 18.1408C7.73251 17.9515 7.81545 17.6856 7.76866 17.424V10.1868C7.7878 9.98685 7.71124 9.78694 7.56237 9.65082L6.03963 7.80907V7.53472H10.7737L14.4339 15.5823L17.6516 7.53472H22.1667V7.80907Z" fill="#D0D0D0"/>
</svg>
