<svg width="28" height="28" viewBox="0 0 28 28" fill="none" xmlns="http://www.w3.org/2000/svg">
<circle cx="14" cy="14" r="14" fill="#D0D0D0"/>
<path d="M14.0045 5C18.977 5 23 9.0275 23 14C23 18.9725 18.977 23 14.0045 23C9.032 23 5 18.9725 5 14C5 9.0275 9.032 5 14.0045 5ZM7.772 10.4H10.427C10.7195 9.275 11.129 8.195 11.669 7.19602C10.013 7.763 8.63602 8.9105 7.772 10.4ZM14 6.8315C13.2485 7.91149 12.6635 9.11299 12.281 10.4H15.719C15.3365 9.11299 14.7515 7.91149 14 6.8315ZM20.966 15.8C21.1145 15.224 21.2 14.621 21.2 14C21.2 13.379 21.1145 12.776 20.966 12.2H17.9285C18.0005 12.7895 18.05 13.388 18.05 14C18.05 14.612 18.0005 15.2105 17.924 15.8H20.966ZM20.2325 17.6H17.5775C17.285 18.725 16.8755 19.805 16.3355 20.8085C17.9915 20.2415 19.3685 19.0895 20.2325 17.6ZM17.5775 10.4H20.2325C19.3685 8.91052 17.9915 7.75851 16.3355 7.19152C16.8755 8.195 17.285 9.275 17.5775 10.4ZM14 21.1685C14.747 20.0885 15.332 18.887 15.719 17.6H12.281C12.668 18.887 13.253 20.0885 14 21.1685ZM11.894 15.8H16.106C16.1915 15.2105 16.25 14.612 16.25 14C16.25 13.388 16.1915 12.7895 16.106 12.2H11.894C11.8085 12.7895 11.75 13.388 11.75 14C11.75 14.612 11.8085 15.2105 11.894 15.8ZM11.6645 20.804C11.1245 19.8005 10.715 18.725 10.4225 17.6H7.7675C8.636 19.0895 10.013 20.237 11.6645 20.804ZM10.076 15.8C10.004 15.2105 9.95001 14.612 9.95001 14C9.95001 13.388 9.9995 12.7895 10.076 12.2H7.03852C6.89002 12.776 6.80002 13.379 6.80002 14C6.80002 14.621 6.88551 15.224 7.03852 15.8H10.076Z" fill="white"/>
</svg>
