<svg width="30" height="30" viewBox="0 0 30 30" fill="none" xmlns="http://www.w3.org/2000/svg">
<path fill-rule="evenodd" clip-rule="evenodd" d="M18.4013 8C19.2842 8 20 7.32843 20 6.5C20 5.67158 19.2843 5 18.4013 5H12.5987C11.7158 5 11 5.67158 11 6.5C11 7.32843 11.7158 8 12.5987 8H18.4013ZM20.4771 6H22.0054C23.107 6 24 6.83148 24 7.85717V23.1428C24 24.1685 23.107 25 22.0054 25H8.99458C7.89301 25 7 24.1685 7 23.1428V7.85718C7 6.83149 7.89301 6 8.99458 6H10.5229C10.29 6.29362 10.1523 6.65664 10.1523 7.04964C10.1523 8.02661 11.0029 8.8186 12.0522 8.8186H18.9478C19.9971 8.8186 20.8477 8.02661 20.8477 7.04964C20.8477 6.65664 20.71 6.29362 20.4771 6ZM10.1945 22.2889H14.9089C15.2354 22.2889 15.5 21.7961 15.5 21.1882C15.5 20.5803 15.2354 20.0875 14.9089 20.0875H10.1945C9.8681 20.0875 9.60348 20.5803 9.60348 21.1882C9.60348 21.7961 9.8681 22.2889 10.1945 22.2889ZM10.4966 17.9517H17.62C18.1133 17.9517 18.5131 17.4589 18.5131 16.851C18.5131 16.2431 18.1133 15.7503 17.62 15.7503H10.4966C10.0033 15.7503 9.60348 16.2431 9.60348 16.851C9.60348 17.4589 10.0033 17.9517 10.4966 17.9517ZM10.7856 13.6407H20.2144C20.8673 13.6407 21.3965 13.1479 21.3965 12.54C21.3965 11.9321 20.8673 11.4393 20.2144 11.4393H10.7856C10.1327 11.4393 9.60348 11.9321 9.60348 12.54C9.60348 13.1479 10.1327 13.6407 10.7856 13.6407Z" fill="#F6D86B"/>
</svg>
