<svg width="30" height="30" viewBox="0 0 30 30" fill="none" xmlns="http://www.w3.org/2000/svg">
<path d="M21.6316 7H8.36842C7.0421 7 6 8.01081 6 9.2973V19.4054C6 20.6919 7.0421 21.7027 8.36842 21.7027H12.4895L14.6684 23.8622C14.7632 23.9541 14.8579 24 15 24C15.1421 24 15.2368 23.9541 15.3316 23.8622L17.5579 21.7027H21.6316C22.9105 21.7027 24 20.6919 24 19.4054V9.2973C24 8.05676 22.9105 7 21.6316 7ZM10.4526 15.2703C9.78947 15.2703 9.26842 14.7649 9.26842 14.1216C9.26842 13.4784 9.78947 12.973 10.4526 12.973C11.1158 12.973 11.6368 13.4784 11.6368 14.1216C11.6368 14.7649 11.1158 15.2703 10.4526 15.2703ZM15 15.2703C14.3368 15.2703 13.8158 14.7649 13.8158 14.1216C13.8158 13.4784 14.3368 12.973 15 12.973C15.6632 12.973 16.1842 13.4784 16.1842 14.1216C16.1842 14.7649 15.6632 15.2703 15 15.2703ZM19.4526 15.2703C18.7895 15.2703 18.2684 14.7649 18.2684 14.1216C18.2684 13.4784 18.7895 12.973 19.4526 12.973C20.1158 12.973 20.6368 13.4784 20.6368 14.1216C20.6368 14.7649 20.1158 15.2703 19.4526 15.2703Z" fill="#7EA7E3"/>
</svg>
