<svg width="14" height="17" viewBox="0 0 14 17" fill="none" xmlns="http://www.w3.org/2000/svg">
<path d="M6.85358 17C7.72879 17 8.45758 16.2605 8.45758 15.3731H5.10482C5.10482 16.2605 5.97838 17 6.85358 17ZM0 14.3395V14.158C0 13.8952 0.10342 13.643 0.287898 13.4559L1.604 12.121V7.3916C1.604 4.7311 2.9168 2.5126 5.54078 1.7748V1.3311C5.54078 0.7395 6.12479 0 6.85358 0C7.4376 0 8.16639 0.5916 8.16639 1.3311V1.6269C11.0832 1.921 12.396 4.5832 12.396 7.2437V12.1227L13.7121 13.4576C13.8966 13.6447 14 13.8969 14 14.1597V14.3412" fill="black"/>
</svg>
