<svg width="10" height="7" viewBox="0 0 10 7" fill="none" xmlns="http://www.w3.org/2000/svg">
<path d="M9.7719 7C9.68439 7 9.60284 6.95153 9.56545 6.87321C9.48092 6.69894 9.13986 6.25166 8.6827 5.83224C8.33523 5.51345 7.4218 4.7477 4.33531 4.7477C3.82419 4.7477 3.77235 4.74432 3.77235 4.74432V6.31021C3.77235 6.3969 3.71733 6.47615 3.6318 6.50969C3.54722 6.54323 3.36044 6.52462 3.29559 6.46308L0.0668702 3.46911C0.0245849 3.42903 0 3.37404 0 3.31714C0 3.2603 0.0236168 3.20532 0.0668604 3.16522L3.29559 0.0631268C3.36044 0.00158685 3.52758 -0.0170689 3.61211 0.0165245C3.69665 0.0500622 3.75271 0.128348 3.75271 0.215961V1.78124C3.75271 1.78124 4.12503 1.77869 4.40917 1.77869C5.34602 1.77869 6.70564 1.94598 7.85785 2.58076C8.50861 2.93965 9.01984 3.42154 9.37669 4.0116C9.79057 4.69574 10 5.8143 10 6.78467C10 6.88625 9.92525 6.97386 9.82008 6.99532C9.80434 6.99904 9.78764 6.99999 9.7719 6.99999V7Z" fill="#9A9A9A"/>
</svg>
