<svg width="50" height="50" viewBox="0 0 50 50" fill="none" xmlns="http://www.w3.org/2000/svg">
<circle cx="25" cy="25" r="25" fill="black"/>
<path d="M16 14C16 13.4477 16.4477 13 17 13H33C33.5523 13 34 13.4477 34 14V14.9231C34 15.4754 33.5523 15.9231 33 15.9231H17C16.4477 15.9231 16 15.4754 16 14.9231V14ZM33 27.1538H28.5V35C28.5 35.5523 28.0523 36 27.5 36H22.5C21.9477 36 21.5 35.5523 21.5 35V27.1538H17L24.2612 19.1944C24.6578 18.7597 25.3422 18.7597 25.7388 19.1944L33 27.1538Z" fill="white"/>
</svg>
