<svg width="50" height="50" viewBox="0 0 50 50" fill="none" xmlns="http://www.w3.org/2000/svg">
<circle cx="25" cy="25" r="25" fill="black"/>
<path fill-rule="evenodd" clip-rule="evenodd" d="M36.7289 12.2074C37.2428 12.6847 37.2706 13.4862 36.791 13.9976L22.5364 29.1976C22.0568 29.709 21.2514 29.7367 20.7376 29.2594C20.2237 28.782 20.1959 27.9805 20.6755 27.4691L34.9301 12.2691C35.4097 11.7577 36.2151 11.73 36.7289 12.2074Z" fill="white"/>
<path fill-rule="evenodd" clip-rule="evenodd" d="M29.7017 14.4336H17.5333C15.8581 14.4336 14.5 15.7917 14.5 17.4669V32.4003C14.5 34.0755 15.8581 35.4336 17.5333 35.4336H32.4667C34.1419 35.4336 35.5 34.0755 35.5 32.4003V18.7856L33.1667 21.2737V32.4003C33.1667 32.7869 32.8533 33.1003 32.4667 33.1003H17.5333C17.1467 33.1003 16.8333 32.7869 16.8333 32.4003V17.4669C16.8333 17.0803 17.1467 16.7669 17.5333 16.7669H27.5135L29.7017 14.4336Z" fill="white"/>
</svg>
