<svg width="30" height="30" viewBox="0 0 30 30" fill="none" xmlns="http://www.w3.org/2000/svg">
<path fill-rule="evenodd" clip-rule="evenodd" d="M1 15C1 7.26818 7.26818 1 15 1C22.7318 1 29 7.26818 29 15C29 22.7318 22.7318 29 15 29C7.26818 29 1 22.7318 1 15ZM14.9994 3.5458C10.9071 3.5458 7.12563 5.72902 5.07947 9.27307C3.03332 12.8171 3.03332 17.1836 5.07947 20.7276C7.12563 24.2717 10.9071 26.4549 14.9994 26.4549C21.3256 26.4549 26.4539 21.3265 26.4539 15.0003C26.4539 8.67417 21.3256 3.5458 14.9994 3.5458ZM17.2812 12.1896C17.0425 12.4283 16.9084 12.752 16.9084 13.0895C16.9084 13.7924 17.4782 14.3623 18.1811 14.3623H20.7266C21.4295 14.3623 21.9993 13.7924 21.9993 13.0895C21.9993 12.3866 21.4295 11.8168 20.7266 11.8168H18.1811C17.8436 11.8168 17.5199 11.9509 17.2812 12.1896ZM9.32778 18.8726C9.82478 18.3758 10.6304 18.3758 11.1274 18.8726C12.1545 19.8999 13.5477 20.4771 15.0003 20.4771C16.453 20.4771 17.8462 19.8999 18.8732 18.8726C19.3726 18.3903 20.1664 18.3972 20.6574 18.8881C21.1483 19.3791 21.1552 20.1729 20.6729 20.6723C19.1684 22.1768 17.128 23.022 15.0003 23.022C12.8727 23.022 10.8322 22.1768 9.32778 20.6723C8.83093 20.1753 8.83093 19.3696 9.32778 18.8726ZM11.8184 11.8185C11.8184 11.1156 11.2485 10.5458 10.5456 10.5458C9.84272 10.5458 9.2729 11.1156 9.2729 11.8185V14.2049C9.27301 14.9077 9.84279 15.4774 10.5456 15.4774C11.2485 15.4774 11.8182 14.9077 11.8184 14.2049V11.8185Z" fill="black"/>
</svg>
