<svg width="35" height="35" viewBox="0 0 35 35" fill="none" xmlns="http://www.w3.org/2000/svg">
<path fill-rule="evenodd" clip-rule="evenodd" d="M18.1956 28.483C23.9059 28.483 28.5351 23.8539 28.5351 18.1435L28.535 18.0946C26.3444 19.819 23.6724 21.5127 20.6927 23.011C17.6767 24.5275 14.6879 25.6714 11.9711 26.4002C13.7027 27.7077 15.8586 28.483 18.1956 28.483ZM19.7075 21.0515C23.0889 19.3512 26.0041 17.4139 28.2009 15.5259C27.0418 11.083 23.0016 7.80394 18.1956 7.80394C12.4852 7.80394 7.85601 12.4331 7.85601 18.1435C7.85601 20.5834 8.70112 22.8259 10.1146 24.5942C12.9607 23.962 16.2892 22.7702 19.7075 21.0515ZM18.1956 5C23.762 5 28.5202 8.46031 30.4364 13.3472C31.2718 12.4016 31.8542 11.5323 32.1834 10.7801C32.5835 9.86565 32.5543 9.26572 32.3623 8.88385C32.1921 8.54542 31.8132 8.21092 31.0511 7.9806C30.2843 7.74888 29.2263 7.6565 27.9024 7.74694C27.2797 7.78948 26.7541 7.33055 26.7284 6.7219C26.7027 6.11324 27.1866 5.58534 27.8093 5.54281C29.2935 5.44141 30.6524 5.52924 31.7724 5.86771C32.8971 6.20759 33.8749 6.83328 34.3926 7.86295C34.98 9.03106 34.7978 10.358 34.254 11.6008C33.7082 12.848 32.7423 14.1541 31.4967 15.4451C31.3785 15.5677 31.2573 15.6905 31.1332 15.8136C31.2684 16.5698 31.339 17.3484 31.339 18.1435C31.339 25.4024 25.4545 31.287 18.1956 31.287C14.4043 31.287 10.9879 29.6817 8.58902 27.1138C8.45016 27.1343 8.31254 27.1533 8.1762 27.1709C6.39716 27.4008 4.77261 27.3972 3.446 27.0914C2.1241 26.7867 0.950341 26.1416 0.362998 24.9735C-0.161884 23.9296 -0.0714622 22.7543 0.340747 21.6347C0.751539 20.5189 1.5135 19.3593 2.5073 18.212C2.916 17.7402 3.62872 17.6713 4.09919 18.0581C4.56966 18.4449 4.61973 19.141 4.21102 19.6129C3.32183 20.6394 2.74467 21.5617 2.46141 22.331C2.17957 23.0966 2.221 23.6097 2.39339 23.9526C2.58539 24.3344 3.04951 24.7157 4.02217 24.9399C4.80149 25.1195 5.81335 25.1725 7.0273 25.0766C5.77525 23.064 5.05206 20.6882 5.05206 18.1435C5.05206 10.8845 10.9366 5 18.1956 5ZM12.5002 17.2673C13.71 17.2673 14.6908 16.2865 14.6908 15.0767C14.6908 13.8669 13.71 12.8861 12.5002 12.8861C11.2904 12.8861 10.3096 13.8669 10.3096 15.0767C10.3096 16.2865 11.2904 17.2673 12.5002 17.2673ZM16.4432 18.1436C16.9271 18.1436 17.3194 17.7513 17.3194 17.2673C17.3194 16.7834 16.9271 16.3911 16.4432 16.3911C15.9593 16.3911 15.567 16.7834 15.567 17.2673C15.567 17.7513 15.9593 18.1436 16.4432 18.1436Z" fill="#7A2472"/>
</svg>
