<svg width="25" height="25" viewBox="0 0 25 25" fill="none" xmlns="http://www.w3.org/2000/svg">
<circle cx="12.5" cy="12.5" r="12" fill="black" stroke="white"/>
<path d="M17.9624 9.17512L19 8.21113V8H15.4064L12.8453 14.1931L9.93216 8H6.16419V8.21113L7.37617 9.62848C7.49466 9.73322 7.5556 9.88707 7.54036 10.0409V15.6105C7.5776 15.8118 7.51159 16.0164 7.36602 16.162L6 17.7709V17.9787H9.86953V17.7676L8.50521 16.1637C8.35794 16.018 8.28685 15.8151 8.31732 15.6121V10.7938L11.7146 17.982H12.109L15.0306 10.7938V16.5205C15.0306 16.671 15.0306 16.7021 14.929 16.802L13.8779 17.7889V18H18.9763V17.7889L17.9624 16.8249C17.8743 16.7594 17.8286 16.6498 17.8473 16.5434V9.45663C17.8286 9.35025 17.8743 9.24059 17.9624 9.17512Z" fill="white"/>
</svg>
