<svg width="35" height="35" viewBox="0 0 35 35" fill="none" xmlns="http://www.w3.org/2000/svg">
<path d="M16.5455 8.2V5.4C16.5455 5.0287 16.6987 4.6726 16.9715 4.41005C17.2443 4.1475 17.6142 4 18 4C18.3858 4 18.7557 4.1475 19.0285 4.41005C19.3013 4.6726 19.4545 5.0287 19.4545 5.4V8.2H23.8124C29.4451 8.2 34 12.5869 34 18.0049V28.5028C34.0004 28.9622 33.9066 29.4172 33.7241 29.8417C33.5416 30.2662 33.2739 30.6519 32.9364 30.9768C32.5988 31.3016 32.198 31.5592 31.757 31.7347C31.3159 31.9103 30.8431 32.0005 30.3658 32H27.4524C25.7935 32 23.7971 31.0389 22.8 29.76L20.6182 26.96C20.4087 26.6919 19.8015 26.4 19.4509 26.4H16.5491C16.1985 26.4 15.5913 26.6919 15.3818 26.96L13.2 29.76C12.2036 31.0389 10.2065 32 8.54764 32H5.63418C5.15686 32.0005 4.68413 31.9103 4.24304 31.7347C3.80196 31.5592 3.40117 31.3016 3.06362 30.9768C2.72607 30.6519 2.45838 30.2662 2.27587 29.8417C2.09336 29.4172 1.99962 28.9622 2 28.5028V18.0049C2 12.5869 6.55491 8.2 12.1876 8.2H16.5455ZM23.8124 11H12.1876C11.2317 10.9993 10.2849 11.1799 9.40152 11.5317C8.51815 11.8835 7.7155 12.3994 7.03948 13.05C6.36346 13.7006 5.82734 14.4731 5.46179 15.3233C5.09624 16.1735 4.90842 17.0848 4.90909 18.0049V28.5028C4.90909 28.8906 5.23127 29.2 5.63418 29.2H8.54764C9.29091 29.2 10.4255 28.654 10.8727 28.08L13.0545 25.28C13.8138 24.3056 15.2844 23.6 16.5491 23.6H19.4509C20.7156 23.6 22.1855 24.3056 22.9455 25.28L25.1273 28.08C25.5745 28.654 26.7091 29.2 27.4524 29.2H30.3658C30.4611 29.2005 30.5556 29.1827 30.6437 29.1479C30.7318 29.113 30.8119 29.0617 30.8794 28.9969C30.9468 28.932 31.0002 28.855 31.0365 28.7702C31.0728 28.6854 31.0913 28.5945 31.0909 28.5028V18.0049C31.0916 17.0848 30.9038 16.1735 30.5382 15.3233C30.1727 14.4731 29.6365 13.7006 28.9605 13.05C28.2845 12.3994 27.4819 11.8835 26.5985 11.5317C25.7151 11.1799 24.7684 10.9993 23.8124 11ZM12.9091 16.6H14.3636C14.7494 16.6 15.1194 16.7475 15.3922 17.01C15.6649 17.2726 15.8182 17.6287 15.8182 18C15.8182 18.3713 15.6649 18.7274 15.3922 18.9899C15.1194 19.2525 14.7494 19.4 14.3636 19.4H12.9091V20.8C12.9091 20.9838 12.8715 21.1659 12.7984 21.3358C12.7253 21.5056 12.6181 21.6599 12.4831 21.7899C12.348 21.9199 12.1877 22.0231 12.0112 22.0934C11.8347 22.1638 11.6456 22.2 11.4545 22.2C11.2635 22.2 11.0744 22.1638 10.8979 22.0934C10.7214 22.0231 10.5611 21.9199 10.426 21.7899C10.291 21.6599 10.1838 21.5056 10.1107 21.3358C10.0376 21.1659 10 20.9838 10 20.8V19.4H8.54546C8.15969 19.4 7.78972 19.2525 7.51694 18.9899C7.24416 18.7274 7.09091 18.3713 7.09091 18C7.09091 17.6287 7.24416 17.2726 7.51694 17.01C7.78972 16.7475 8.15969 16.6 8.54546 16.6H10V15.2C10 15.0161 10.0376 14.8341 10.1107 14.6642C10.1838 14.4944 10.291 14.3401 10.426 14.21C10.5611 14.08 10.7214 13.9769 10.8979 13.9066C11.0744 13.8362 11.2635 13.8 11.4545 13.8C11.6456 13.8 11.8347 13.8362 12.0112 13.9066C12.1877 13.9769 12.348 14.08 12.4831 14.21C12.6181 14.3401 12.7253 14.4944 12.7984 14.6642C12.8715 14.8341 12.9091 15.0161 12.9091 15.2V16.6ZM24.5455 15.9C24.3544 15.9 24.1653 15.8638 23.9888 15.7935C23.8123 15.7231 23.6519 15.62 23.5168 15.49C23.3817 15.36 23.2745 15.2057 23.2014 15.0358C23.1283 14.8659 23.0907 14.6839 23.0907 14.5C23.0907 14.3161 23.1283 14.1341 23.2014 13.9642C23.2745 13.7943 23.3817 13.64 23.5168 13.51C23.6519 13.38 23.8123 13.2768 23.9888 13.2065C24.1653 13.1362 24.3544 13.1 24.5455 13.1C24.9312 13.1001 25.3011 13.2476 25.5738 13.5101C25.8466 13.7727 25.9998 14.1287 25.9998 14.5C25.9998 14.8713 25.8466 15.2273 25.5738 15.4899C25.3011 15.7524 24.9312 15.8999 24.5455 15.9ZM24.5455 22.9C24.3544 22.9 24.1653 22.8638 23.9888 22.7935C23.8123 22.7231 23.6519 22.62 23.5168 22.49C23.3817 22.36 23.2745 22.2057 23.2014 22.0358C23.1283 21.8659 23.0907 21.6839 23.0907 21.5C23.0907 21.3161 23.1283 21.1341 23.2014 20.9642C23.2745 20.7943 23.3817 20.64 23.5168 20.51C23.6519 20.38 23.8123 20.2768 23.9888 20.2065C24.1653 20.1362 24.3544 20.1 24.5455 20.1C24.9312 20.1001 25.3011 20.2476 25.5738 20.5101C25.8466 20.7727 25.9998 21.1287 25.9998 21.5C25.9998 21.8713 25.8466 22.2273 25.5738 22.4899C25.3011 22.7524 24.9312 22.8999 24.5455 22.9V22.9ZM20.9091 19.4C20.5233 19.4 20.1534 19.2525 19.8806 18.9899C19.6078 18.7274 19.4545 18.3713 19.4545 18C19.4545 17.6287 19.6078 17.2726 19.8806 17.01C20.1534 16.7475 20.5233 16.6 20.9091 16.6C21.2949 16.6 21.6648 16.7475 21.9376 17.01C22.2104 17.2726 22.3636 17.6287 22.3636 18C22.3636 18.3713 22.2104 18.7274 21.9376 18.9899C21.6648 19.2525 21.2949 19.4 20.9091 19.4ZM28.1818 19.4C27.7961 19.4 27.4261 19.2525 27.1533 18.9899C26.8805 18.7274 26.7273 18.3713 26.7273 18C26.7273 17.6287 26.8805 17.2726 27.1533 17.01C27.4261 16.7475 27.7961 16.6 28.1818 16.6C28.5676 16.6 28.9376 16.7475 29.2103 17.01C29.4831 17.2726 29.6364 17.6287 29.6364 18C29.6364 18.3713 29.4831 18.7274 29.2103 18.9899C28.9376 19.2525 28.5676 19.4 28.1818 19.4V19.4Z" fill="#7A2472"/>
</svg>
