<svg width="35" height="35" viewBox="0 0 35 35" fill="none" xmlns="http://www.w3.org/2000/svg">
<path fill-rule="evenodd" clip-rule="evenodd" d="M12.7635 19.5363H12.7581C12.6536 19.5363 11.4522 19.5049 11.4123 18.086C11.4116 18.0718 11.4099 17.9836 11.4241 17.8557C11.464 11.1044 13.7258 4 17.8859 4C20.1842 4 21.5516 5.20915 22.6052 8.17369C22.85 8.86299 22.4898 9.62062 21.8005 9.86549C21.1116 10.111 20.3536 9.75016 20.1087 9.06085C19.2517 6.64931 18.5881 6.64931 17.8859 6.64931C16.3321 6.64931 14.0751 11.0817 14.0731 18.0275C14.0738 18.0942 14.0694 18.1594 14.0603 18.2237C14.0126 18.6242 13.7907 19.5218 12.7635 19.5363ZM26.968 22.7054C26.5655 22.075 26.7502 21.2376 27.381 20.8351C28.0111 20.4326 28.8492 20.6172 29.252 21.248C30.6611 23.456 30.8048 25.1089 29.7316 26.7746C28.6875 28.3957 26.9775 28.7154 25.701 28.7154C25.1243 28.7154 24.6363 28.6504 24.338 28.6105C24.3326 28.6098 24.3282 28.6075 24.3227 28.6068C23.6717 28.5679 23.0202 28.4735 22.3786 28.3376C21.1668 30.7569 19.5413 32.0256 17.9249 32.0726C17.864 32.0743 17.8035 32.0753 17.7436 32.0753C14.9742 32.0753 13.1657 30.19 12.3662 26.4685C12.2126 25.7532 12.6679 25.0487 13.3832 24.8951C14.0975 24.7405 14.8027 25.1968 14.9566 25.9122C15.7243 29.4865 17.1051 29.4463 17.8479 29.4246L17.8481 29.4246C18.4444 29.407 19.1435 28.7515 19.7811 27.5695C16.7604 26.4381 14.3857 24.7744 14.0559 24.5379C14.0495 24.5335 14.0431 24.5295 14.0367 24.5254C6.26155 19.5004 3.89364 14.0537 5.57699 11.2636C6.69144 9.41592 8.22325 9.15887 10.1806 9.34253C10.9253 9.4122 11.4726 10.0724 11.4029 10.8175C11.3332 11.5623 10.6747 12.1085 9.92791 12.0399C8.36159 11.8938 8.20567 12.1505 7.89653 12.6629C7.07972 14.0171 9.55755 18.3308 15.2779 22.0997L15.2793 22.1007C15.308 22.1183 15.3361 22.1366 15.3632 22.1558C15.4264 22.1974 15.4897 22.2384 15.5536 22.2796L15.5506 22.2844C15.5599 22.2905 15.5696 22.2956 15.5793 22.3008C15.5917 22.3074 15.6041 22.3141 15.6158 22.3226C15.6483 22.3463 17.9465 23.9944 20.7819 25.0514C21.3278 23.1945 21.6991 20.8134 21.6991 18.0369L21.6995 17.65C21.7012 16.5866 21.7015 16.2284 21.5652 15.1962C21.4695 14.4707 21.9799 13.8051 22.705 13.7093C23.4281 13.6143 24.0961 14.1237 24.1918 14.8492C24.3512 16.056 24.3505 16.5565 24.3488 17.6534L24.3484 18.0366C24.3484 21.1056 23.9791 23.6893 23.3686 25.7721C23.7762 25.8425 24.1844 25.8902 24.5889 25.9094C24.6092 25.9104 24.6285 25.9141 24.6478 25.9177C24.6611 25.9202 24.6744 25.9227 24.688 25.9243C24.6895 25.9245 24.691 25.9245 24.6924 25.9245H24.6924C24.6938 25.9245 24.6951 25.9245 24.6965 25.9247C26.8688 26.215 27.2639 25.6023 27.4537 25.3079L27.454 25.3074C27.7439 24.8572 28.0439 24.3912 26.968 22.7054ZM10.4051 25.1322C8.119 25.3358 7.94414 24.8177 7.77536 24.3167C7.67153 24.009 7.57378 23.7184 8.50187 21.9235C8.84551 21.2589 8.58541 20.4417 7.9208 20.0981C7.25619 19.7548 6.43904 20.0145 6.0954 20.6791C5.10914 22.5867 4.72458 23.7472 5.20824 25.1816C5.95605 27.4007 7.76488 27.885 9.52737 27.885C9.9055 27.885 10.2823 27.8627 10.6452 27.8302C11.3903 27.7639 11.9409 27.1061 11.8746 26.361C11.808 25.6165 11.1525 25.0663 10.4051 25.1322ZM15.5363 12.5026C14.9173 12.8631 14.6833 13.6498 15.0154 14.2938C15.3587 14.9584 16.1755 15.2192 16.8405 14.8762L16.8452 14.8738C16.8726 14.8596 16.907 14.8418 16.946 14.8194C24.4164 12.0504 27.7343 12.4241 28.3053 13.5883C28.6776 14.3483 27.9268 16.1814 25.3979 18.41C24.8364 18.9045 24.7826 19.7605 25.2771 20.322C25.545 20.626 25.9184 20.7809 26.2938 20.7809C26.6121 20.7809 26.9314 20.6693 27.1888 20.4427C30.5145 17.512 31.8079 14.5789 30.7378 12.3957C29.1765 9.2113 24.3362 9.18086 15.9408 12.3027C15.8464 12.3379 15.6942 12.3947 15.5363 12.5026ZM17.8579 21.2412C16.5212 21.2412 15.4338 20.1538 15.4338 18.8171C15.4338 17.4805 16.5212 16.3931 17.8579 16.3931C19.1946 16.3931 20.2819 17.4805 20.2819 18.8171C20.2819 20.1538 19.1946 21.2412 17.8579 21.2412Z" fill="#7A2472"/>
</svg>
