<svg width="36" height="28" viewBox="0 0 36 28" fill="none" xmlns="http://www.w3.org/2000/svg">
<path fill-rule="evenodd" clip-rule="evenodd" d="M18.9546 24.2355C24.665 24.2355 29.2941 19.6063 29.2941 13.8959L29.294 13.847C27.1035 15.5714 24.4315 17.2652 21.4518 18.7634C18.4358 20.2799 15.447 21.4239 12.7301 22.1527C14.4617 23.4601 16.6176 24.2355 18.9546 24.2355ZM20.4665 16.8039C23.8479 15.1037 26.7631 13.1664 28.9599 11.2784C27.8008 6.83544 23.7606 3.55639 18.9546 3.55639C13.2442 3.55639 8.61504 8.18556 8.61504 13.8959C8.61504 16.3358 9.46015 18.5783 10.8736 20.3467C13.7197 19.7145 17.0483 18.5226 20.4665 16.8039ZM18.9546 0.752441C24.521 0.752441 29.2792 4.21275 31.1955 9.09964C32.0309 8.15401 32.6133 7.28471 32.9424 6.53254C33.3425 5.61809 33.3133 5.01816 33.1213 4.63629C32.9511 4.29786 32.5722 3.96336 31.8101 3.73305C31.0433 3.50132 29.9853 3.40894 28.6614 3.49938C28.0387 3.54192 27.5131 3.08299 27.4874 2.47434C27.4617 1.86568 27.9456 1.33779 28.5683 1.29525C30.0525 1.19385 31.4114 1.28168 32.5314 1.62015C33.6561 1.96003 34.6339 2.58572 35.1517 3.61539C35.739 4.7835 35.5568 6.11041 35.013 7.35321C34.4673 8.60043 33.5013 9.90659 32.2558 11.1975C32.1375 11.3201 32.0163 11.443 31.8922 11.5661C32.0275 12.3223 32.0981 13.1009 32.0981 13.8959C32.0981 21.1549 26.2135 27.0394 18.9546 27.0394C15.1633 27.0394 11.7469 25.4342 9.34805 22.8663C9.20919 22.8867 9.07157 22.9058 8.93523 22.9234C7.15619 23.1532 5.53164 23.1496 4.20503 22.8438C2.88313 22.5392 1.70937 21.894 1.12203 20.7259C0.597148 19.682 0.68757 18.5068 1.09978 17.3872C1.51057 16.2714 2.27253 15.1117 3.26633 13.9644C3.67504 13.4926 4.38775 13.4237 4.85822 13.8105C5.32869 14.1974 5.37876 14.8935 4.97005 15.3653C4.08086 16.3918 3.50371 17.3141 3.22044 18.0835C2.9386 18.849 2.98003 19.3622 3.15242 19.705C3.34443 20.0869 3.80854 20.4681 4.7812 20.6923C5.56052 20.872 6.57239 20.925 7.78634 20.8291C6.53428 18.8165 5.8111 16.4407 5.8111 13.8959C5.8111 6.63698 11.6956 0.752441 18.9546 0.752441ZM13.2592 13.0197C14.4691 13.0197 15.4498 12.039 15.4498 10.8291C15.4498 9.61931 14.4691 8.63855 13.2592 8.63855C12.0494 8.63855 11.0687 9.61931 11.0687 10.8291C11.0687 12.039 12.0494 13.0197 13.2592 13.0197ZM17.2022 13.896C17.6862 13.896 18.0785 13.5037 18.0785 13.0198C18.0785 12.5359 17.6862 12.1436 17.2022 12.1436C16.7183 12.1436 16.326 12.5359 16.326 13.0198C16.326 13.5037 16.7183 13.896 17.2022 13.896Z" fill="#7A2472"/>
</svg>
