<svg width="35" height="35" viewBox="0 0 35 35" fill="none" xmlns="http://www.w3.org/2000/svg">
<path d="M17.5 32C23.0389 32 29 28.4942 29 20.7994C29 20.546 28.9648 14.5831 25.8977 11.4091C25.7284 11.234 25.5172 11.1086 25.2856 11.0455C25.0541 10.9825 24.8106 10.9842 24.5799 11.0504C24.3492 11.1166 24.1396 11.2449 23.9726 11.4223C23.8055 11.5997 23.6868 11.8198 23.6288 12.0602C23.2432 13.6577 22.6222 14.6923 21.9796 15.3629C22.6588 12.819 22.5154 10.5901 21.5439 8.71121C19.4821 4.7252 14.4965 4.03637 14.2854 4.00977C14.0951 3.9866 13.9023 4.00476 13.7192 4.0631C13.5361 4.12144 13.3667 4.21867 13.222 4.34858C13.0782 4.48004 12.963 4.64166 12.8842 4.8227C12.8053 5.00374 12.7646 5.20006 12.7647 5.39864C12.7647 5.43364 12.7376 9.04582 10.4552 11.4091C7.67629 14.2849 6 16.0196 6 20.7994C6 28.5362 11.7771 32 17.5 32ZM12.3683 13.3888C14.3044 11.3853 15.0322 8.80501 15.3055 7.12493C16.5448 7.53095 18.3091 8.37799 19.1641 10.0441C20.0868 11.839 19.8027 14.3045 18.3199 17.3721C18.2165 17.5855 18.1676 17.8228 18.1778 18.0613C18.1881 18.2998 18.257 18.5316 18.3783 18.7348C18.4995 18.938 18.6689 19.1057 18.8703 19.222C19.0718 19.3383 19.2987 19.3993 19.5294 19.3994C19.7053 19.3994 23.204 19.3462 25.2632 15.433C26.2711 17.8565 26.2941 20.763 26.2941 20.7994C26.2941 25.5387 23.5246 27.9356 20.4088 28.805C19.0383 28.9674 14.9849 28.6132 12.7647 19.3994C12.7647 19.3994 10.8882 24.2646 11.8339 27.5002C10.0115 26.1897 8.70588 24.0476 8.70588 20.7994C8.70588 17.1788 9.703 16.147 12.3683 13.3888V13.3888Z" fill="#7A2472"/>
</svg>
