<svg width="30" height="30" viewBox="0 0 30 30" fill="none" xmlns="http://www.w3.org/2000/svg">
<path fill-rule="evenodd" clip-rule="evenodd" d="M29 5.15637C29 3.75812 27.894 2.625 26.529 2.625H3.471C2.106 2.625 1 3.75812 1 5.15637V23.7186C1 25.1169 2.106 26.25 3.471 26.25H26.529C27.894 26.25 29 25.1169 29 23.7186V5.15637ZM3.47086 5.15738H26.5289V23.7196H3.47086V5.15738ZM23.7998 8.86587V11.3946C19.9166 11.3377 17.4963 12.5934 16.3308 15.1221L16.2416 15.3242L16.1313 15.5762C14.433 19.3387 11.1482 21.2112 6.50635 21.1465V18.6151C10.2216 18.6781 12.6033 17.3341 13.8773 14.5402L13.9753 14.3171L14.0768 14.0861C15.6851 10.5397 18.9978 8.81249 23.7998 8.86587ZM9.87407 9.02633C9.58006 8.50396 9.03582 8.18196 8.44782 8.18196V8.18283C7.53782 8.18283 6.80107 8.93796 6.80107 9.86983C6.80107 10.8017 7.53782 11.5577 8.44782 11.5577C9.04072 11.5549 9.58599 11.2324 9.87407 10.7142C10.1684 10.1901 10.1684 9.55047 9.87407 9.02633Z" fill="black"/>
</svg>
