<svg width="10" height="10" viewBox="0 0 10 10" fill="none" xmlns="http://www.w3.org/2000/svg">
<path d="M8.4758 0.500001C8.73708 0.499624 8.9886 0.602681 9.17876 0.788034C9.36893 0.973387 9.48333 1.22699 9.4985 1.49682L9.5 1.55702V8.0267C9.49988 8.13197 9.47972 8.23618 9.44067 8.33339C9.40162 8.4306 9.34444 8.5189 9.2724 8.59325C9.20036 8.6676 9.11487 8.72654 9.02081 8.76672C8.92675 8.80689 8.82596 8.8275 8.7242 8.82738C8.52755 8.82753 8.33819 8.75035 8.19448 8.61148C8.05077 8.47261 7.96345 8.28243 7.9502 8.07946L7.94841 8.0267L7.9481 3.18693L1.81372 9.27613C1.66532 9.42347 1.46649 9.50392 1.26083 9.49985C1.05518 9.49578 0.859472 9.40751 0.716626 9.25441C0.580664 9.10862 0.503276 8.91487 0.500102 8.71232C0.496927 8.50977 0.568204 8.31352 0.699527 8.16325L0.737926 8.12197L6.80331 2.10136H2.20702C2.01031 2.10159 1.82088 2.02444 1.67711 1.88557C1.53333 1.74669 1.44597 1.55647 1.43272 1.35344L1.43092 1.30068C1.43113 1.09714 1.50617 0.901303 1.64083 0.752897C1.77548 0.604492 1.95967 0.514633 2.15602 0.501553L2.20702 0.500001H8.4758Z" fill="#213425"/>
</svg>
