<svg width="20" height="17" viewBox="0 0 20 17" fill="none" xmlns="http://www.w3.org/2000/svg">
<path d="M20 2.65059C19.2645 2.96302 18.4641 3.18787 17.6397 3.27544C18.4906 2.77604 19.1371 1.98787 19.4424 1.05059C18.6564 1.51213 17.7671 1.85059 16.8417 2.02574C16.0918 1.23757 15.027 0.75 13.8469 0.75C11.5755 0.75 9.74883 2.56302 9.74883 4.78787C9.74883 5.1003 9.78729 5.41272 9.84978 5.71331C6.44874 5.53817 3.41546 3.93817 1.39887 1.48846C1.04314 2.08964 0.841245 2.77604 0.841245 3.52633C0.841245 4.92751 1.56472 6.16302 2.66795 6.88964C1.99495 6.86361 1.36041 6.67663 0.814806 6.37604V6.42574C0.814806 8.38787 2.22329 10.0139 4.10047 10.3879C3.75676 10.4754 3.38902 10.5251 3.02127 10.5251C2.75448 10.5251 2.5021 10.4991 2.24733 10.4636C2.76649 12.0636 4.27833 13.2257 6.0786 13.2636C4.67011 14.35 2.9059 14.9891 0.990266 14.9891C0.646557 14.9891 0.329287 14.9772 0 14.9393C1.81709 16.0873 3.97308 16.75 6.29492 16.75C13.8325 16.75 17.957 10.6009 17.957 5.26361C17.957 5.08846 17.957 4.91331 17.945 4.73817C18.7429 4.16302 19.4424 3.45059 20 2.65059Z" fill="#EBEBEB"/>
</svg>
