<svg width="18" height="19" viewBox="0 0 18 19" fill="none" xmlns="http://www.w3.org/2000/svg">
<path d="M4.41106 7.63235H1.62C1.42328 8.32101 1.32384 9.0338 1.32459 9.75C1.32459 10.4848 1.42729 11.1953 1.62106 11.8676H4.41212C4.29565 11.19 4.23635 10.4838 4.23635 9.75C4.23635 9.01624 4.29565 8.31 4.41212 7.63235H4.41106ZM5.48788 7.63235C5.35634 8.3305 5.29146 9.03957 5.29412 9.75C5.29412 10.4891 5.35765 11.1953 5.48788 11.8676H8.47059V7.63235H5.48788ZM7.03906 17.1734C5.90975 15.9724 5.08926 14.5149 4.64823 12.9265H2.00965C2.48163 13.9623 3.17756 14.8805 4.04727 15.6149C4.91697 16.3493 5.93879 16.8816 7.03906 17.1734ZM8.47059 17.0993V12.9265H5.75259C6.25024 14.5211 7.15553 15.9092 8.47059 17.1004V17.0993ZM7.03906 2.32765C5.93889 2.61933 4.91714 3.15146 4.04744 3.88567C3.17774 4.61988 2.48176 5.53789 2.00965 6.57353H4.64823C5.08895 4.98516 5.90907 3.5277 7.038 2.32659L7.03906 2.32765ZM8.47059 2.40176C7.15553 3.58976 6.25129 4.97788 5.75259 6.57353H8.47059V2.39965V2.40176ZM13.5889 7.63235C13.7054 8.31 13.7647 9.01624 13.7647 9.75C13.7647 10.4838 13.7054 11.19 13.5889 11.8676H16.3811C16.5738 11.1953 16.6765 10.4848 16.6765 9.75C16.6765 9.01518 16.5738 8.30471 16.38 7.63235H13.5889ZM12.5121 7.63235H9.52941V11.8676H12.5121C12.6413 11.1953 12.7059 10.4891 12.7059 9.75C12.7059 9.01094 12.6424 8.30471 12.5121 7.63235ZM10.9609 17.1734C12.0612 16.8816 13.083 16.3493 13.9527 15.6149C14.8224 14.8805 15.5184 13.9623 15.9904 12.9265H13.3518C12.911 14.5148 12.0909 15.9723 10.962 17.1734H10.9609ZM9.52941 17.0993C10.8445 15.9092 11.7487 14.5211 12.2474 12.9265H9.52941V17.1004V17.0993ZM10.9609 2.32765C12.0901 3.52834 12.9106 4.98544 13.3518 6.57353H15.9914C15.5194 5.53769 14.8235 4.61947 13.9538 3.88507C13.0841 3.15067 12.0623 2.61839 10.962 2.32659L10.9609 2.32765ZM9.52941 2.40176V6.57353H12.2474C11.7498 4.97894 10.8445 3.59082 9.52941 2.39965V2.40176ZM9 18.75C6.61305 18.75 4.32387 17.8018 2.63604 16.114C0.948212 14.4261 0 12.1369 0 9.75C0 7.36305 0.948212 5.07387 2.63604 3.38604C4.32387 1.69821 6.61305 0.75 9 0.75C11.3869 0.75 13.6761 1.69821 15.364 3.38604C17.0518 5.07387 18 7.36305 18 9.75C18 12.1369 17.0518 14.4261 15.364 16.114C13.6761 17.8018 11.3869 18.75 9 18.75Z" fill="#EBEBEB"/>
</svg>
