<svg width="24" height="24" viewBox="0 0 24 24" fill="none" xmlns="http://www.w3.org/2000/svg">
<path d="M8.26904 4.49962C8.58722 4.49962 8.88642 4.3482 9.07485 4.0918L9.57748 3.40783C9.7659 3.15143 10.0651 3 10.3833 3H13.0453C13.3635 3 13.6627 3.15143 13.8511 3.40783L14.3537 4.0918C14.5421 4.3482 14.8413 4.49962 15.1595 4.49962H18.6782C19.0926 4.49962 19.4286 4.83558 19.4286 5.25C19.4286 5.66442 19.0926 6.00038 18.6782 6.00038H4.75038C4.33595 6.00038 4 5.66442 4 5.25C4 4.83558 4.33595 4.49962 4.75038 4.49962H8.26904ZM5.8371 8.5C5.8371 7.94772 6.28482 7.5 6.8371 7.5H16.5915C17.1438 7.5 17.5915 7.94772 17.5915 8.5V20C17.5915 20.5523 17.1438 21 16.5915 21H6.8371C6.28482 21 5.8371 20.5523 5.8371 20V8.5ZM10.9792 11.2349C10.9792 10.8292 10.6504 10.5004 10.2447 10.5004C9.83906 10.5004 9.5102 10.8292 9.5102 11.2349V17.2651C9.5102 17.6708 9.83906 17.9996 10.2447 17.9996C10.6504 17.9996 10.9792 17.6708 10.9792 17.2651V11.2349ZM13.9184 11.2349C13.9184 10.8292 13.5895 10.5004 13.1839 10.5004C12.7782 10.5004 12.4493 10.8292 12.4493 11.2349V17.2651C12.4493 17.6708 12.7782 17.9996 13.1839 17.9996C13.5895 17.9996 13.9184 17.6708 13.9184 17.2651V11.2349Z" fill="white"/>
</svg>
