<svg width="30" height="30" viewBox="0 0 30 30" fill="none" xmlns="http://www.w3.org/2000/svg">
<path fill-rule="evenodd" clip-rule="evenodd" d="M27.5668 2.365C28.1174 2.87642 28.1471 3.7352 27.6333 4.28315L12.3605 20.5689C11.8467 21.1168 10.9838 21.1464 10.4332 20.635C9.88264 20.1236 9.85288 19.2648 10.3667 18.7169L25.6395 2.43114C26.1533 1.8832 27.0162 1.85358 27.5668 2.365Z" fill="black"/>
<path fill-rule="evenodd" clip-rule="evenodd" d="M20.0375 4.75H7C5.20507 4.75 3.75 6.20508 3.75 8V24C3.75 25.7949 5.20508 27.25 7 27.25H23C24.7949 27.25 26.25 25.7949 26.25 24V9.41283L23.75 12.0786V24C23.75 24.4142 23.4142 24.75 23 24.75H7C6.58579 24.75 6.25 24.4142 6.25 24V8C6.25 7.58579 6.58579 7.25 7 7.25H17.693L20.0375 4.75Z" fill="black"/>
</svg>
