<svg width="46" height="45" viewBox="0 0 46 45" fill="none" xmlns="http://www.w3.org/2000/svg">
<path fill-rule="evenodd" clip-rule="evenodd" d="M34.4201 10.9702C39.5385 15.8191 44.6199 18.8687 45.767 17.7793C46.917 16.6925 43.6979 11.8786 38.5796 7.02976C33.4613 2.18088 28.3817 -0.86868 27.2327 0.2207C26.0837 1.31008 29.3018 6.12136 34.4201 10.9702ZM15.1934 16.2318C15.1286 16.2984 15.0876 16.386 15.0557 16.4845L15 16.563L15.0347 16.5949C14.8212 17.9334 17.227 21.5246 20.8526 25.1496C24.4772 28.7746 28.0682 31.1816 29.4047 30.9681L29.4394 31L29.5151 30.9453C29.6164 30.9179 29.703 30.8741 29.7696 30.8093C29.7836 30.7941 29.7932 30.7756 29.8028 30.7569L29.8028 30.7569C29.8077 30.7475 29.8125 30.7381 29.818 30.729L45 20.1761C41.5998 18.927 36.9259 14.9252 34.001 12C31.0761 9.07755 27.0719 4.40055 25.8238 1L15.2719 16.1816C15.2613 16.19 15.2485 16.1971 15.2356 16.2043C15.2207 16.2126 15.2056 16.221 15.1934 16.2318ZM25.7864 4.23814C26.8055 6.47445 28.3829 7.74818 28.3829 7.74818L18.2607 20.3148C17.039 19.0931 16.4789 17.6168 16.4789 17.6168L25.7864 4.23814ZM27.0246 38.2752L27.0105 38.2591C26.9721 38.3352 26.9298 38.4122 26.8679 38.4705C25.612 39.6725 19.4634 36.749 13.8429 31.3802C8.2234 26.0133 5.25652 20.2343 6.51438 19.035C6.57259 18.9794 6.64877 18.9418 6.72331 18.905L6.73387 18.8997L6.7198 18.8863L13.3364 17C14.0136 19.4479 16.9271 22.9276 19.8583 25.7293C22.7895 28.531 26.4365 31.3104 29 31.957L27.0246 38.2752ZM7.65967 20.0946C7.65967 20.0946 7.76754 21.9908 8.86781 23.3405L14.0896 21.1515C14.0896 21.1515 12.8337 19.9531 12.8852 19.1031L7.65967 20.0946ZM14.9432 33.9267C12.7455 32.4282 11.1762 30.3296 11.1762 30.3296L0 45L14.9432 33.9267Z" fill="white"/>
</svg>
