<svg width="22" height="18" viewBox="0 0 22 18" fill="none" xmlns="http://www.w3.org/2000/svg">
<path fill-rule="evenodd" clip-rule="evenodd" d="M12.654 0.0726178C12.9913 -0.0691037 13.3821 0.00024636 13.6475 0.248904L21.7162 7.80849C21.8974 7.97831 22 8.21358 22 8.45957C22 8.70556 21.8975 8.94083 21.7162 9.11067L13.6475 16.6714C13.3822 16.9201 12.9913 16.9895 12.654 16.8478C12.3167 16.706 12.098 16.3805 12.098 16.0203V12.5078C9.74506 12.5911 7.86962 13.0036 6.2886 13.7412C4.51353 14.5694 3.04468 15.8378 1.67164 17.6392C1.44145 17.9412 1.04387 18.0702 0.675718 17.9624C0.307563 17.8546 0.0469501 17.5328 0.0228907 17.1563C-0.363776 11.106 4.16824 5.80334 12.098 4.44854V0.900018C12.098 0.539834 12.3167 0.214339 12.654 0.0726178ZM13.9313 3.00285V5.21961C13.9313 5.66965 13.5927 6.05052 13.1386 6.11135C6.73881 6.96857 2.96933 10.4289 2.05342 14.4815C3.08354 13.5054 4.21497 12.7158 5.50173 12.1154C7.59765 11.1376 10.0406 10.692 13.0147 10.692C13.5209 10.692 13.9313 11.0949 13.9313 11.592V13.9173L19.7556 8.45965L13.9313 3.00285Z" fill="white"/>
</svg>
