<svg width="18" height="21" viewBox="0 0 18 21" fill="none" xmlns="http://www.w3.org/2000/svg">
<path d="M17.4706 0C17.7628 0 18 0.235419 18 0.524996V20.4748C17.9964 20.6177 17.9386 20.7532 17.8394 20.8517C17.7401 20.9501 17.6075 21.0034 17.4706 20.9998H0.529412C0.39254 21.0034 0.259909 20.9501 0.160646 20.8517C0.0613831 20.7532 0.00360473 20.6177 0 20.4748V0.524996C0 0.235419 0.237177 -2.59044e-08 0.529412 0H17.4706V0ZM15.8824 2.21051H2.11765V18.7893H15.8824V2.21051ZM14.2539 0V9.79919L10.7238 8.51267L7.19471 9.79919V0H14.2539ZM12.1352 2.21051H9.31235V6.68458L10.7238 6.17174L12.1352 6.68458V2.21051V2.21051Z" fill="white"/>
</svg>
