<svg width="21" height="20" viewBox="0 0 21 20" fill="none" xmlns="http://www.w3.org/2000/svg">
<path fill-rule="evenodd" clip-rule="evenodd" d="M10.1374 0C4.52263 0 0 4.49963 0 10.0007L0.00135328 9.99932C0.00135328 15.25 4.1356 19.5832 9.44313 20H18.6982L17.7874 16.5843C19.3844 14.7616 20.2705 12.424 20.2828 10.0007C20.2828 4.50098 15.7534 0 10.1374 0ZM16.0947 18.2056L9.37532 17.959H9.39107C5.08289 17.6298 2 14.3498 2 10.0823C2 5.56816 5.38987 2.20557 9.99715 2.20557C14.6031 2.20557 17.9995 5.56816 17.9995 10.0823C18.0192 12.0735 17.3974 13.7954 16.0947 15.2175C15.709 15.6306 15.4545 16.397 15.6067 16.9501L16.0947 18.2056Z" fill="#9a9a9a"/>
</svg>
