<svg width="16" height="16" viewBox="0 0 16 16" fill="none" xmlns="http://www.w3.org/2000/svg">
<path d="M5.25247 2.16637C5.5688 2.16637 5.86648 2.0167 6.05514 1.7628L6.32206 1.40358C6.51072 1.14967 6.8084 1 7.12473 1H9.0086C9.32493 1 9.62261 1.14967 9.81128 1.40358L10.0782 1.76279C10.2669 2.0167 10.5645 2.16637 10.8809 2.16637H13.5497C13.872 2.16637 14.1333 2.42767 14.1333 2.75C14.1333 3.07233 13.872 3.33363 13.5497 3.33363H2.58362C2.2613 3.33363 2 3.07233 2 2.75C2 2.42767 2.2613 2.16637 2.58363 2.16637H5.25247ZM3.44473 5.5C3.44473 4.94772 3.89245 4.5 4.44473 4.5H11.6886C12.2409 4.5 12.6886 4.94772 12.6886 5.5V14C12.6886 14.5523 12.2409 15 11.6886 15H4.44473C3.89245 15 3.44473 14.5523 3.44473 14V5.5ZM7.4886 7.41126C7.4886 7.09224 7.22998 6.83362 6.91097 6.83362C6.59195 6.83362 6.33333 7.09224 6.33333 7.41126V12.0887C6.33333 12.4078 6.59195 12.6664 6.91097 12.6664C7.22998 12.6664 7.4886 12.4078 7.4886 12.0887V7.41126ZM9.8 7.41126C9.8 7.09224 9.54138 6.83362 9.22237 6.83362C8.90335 6.83362 8.64473 7.09224 8.64473 7.41126V12.0887C8.64473 12.4078 8.90335 12.6664 9.22237 12.6664C9.54138 12.6664 9.8 12.4078 9.8 12.0887V7.41126Z" fill="black"/>
</svg>
