<svg width="24" height="36" viewBox="0 0 24 36" fill="none" xmlns="http://www.w3.org/2000/svg">
<rect x="0.5" y="0.5" width="23" height="35" rx="3.5" fill="white" stroke="#DEDEDE"/>
<path fill-rule="evenodd" clip-rule="evenodd" d="M14 12C14 13.1046 13.1046 14 12 14C10.8954 14 10 13.1046 10 12C10 10.8954 10.8954 10 12 10C13.1046 10 14 10.8954 14 12ZM14 18.3333C14 19.4379 13.1046 20.3333 12 20.3333C10.8954 20.3333 10 19.4379 10 18.3333C10 17.2288 10.8954 16.3333 12 16.3333C13.1046 16.3333 14 17.2288 14 18.3333ZM12 26.6666C13.1046 26.6666 14 25.7712 14 24.6666C14 23.5621 13.1046 22.6666 12 22.6666C10.8954 22.6666 10 23.5621 10 24.6666C10 25.7712 10.8954 26.6666 12 26.6666Z" fill="black"/>
</svg>
