<svg width="22" height="20" viewBox="0 0 22 20" fill="none" xmlns="http://www.w3.org/2000/svg">
<path d="M21.4683 4.09938C21.1268 3.29755 20.6344 2.57099 20.0189 1.96038C18.7515 0.700297 17.0465 -0.00332979 15.2722 0.00147108C13.7187 0.000256269 12.2115 0.538765 11.0014 1.52744C9.79155 0.538237 8.28439 -0.000797437 6.73066 8.85476e-07C5.82667 8.85476e-07 4.95093 0.176413 4.123 0.524827C3.32591 0.859112 2.59969 1.346 1.984 1.95891C1.35667 2.58037 0.858016 3.32274 0.517316 4.14246C0.176616 4.96217 0.000734976 5.84269 0 6.73233C0 7.59234 0.173844 8.4891 0.517186 9.4013C0.804753 10.1635 1.21763 10.9545 1.74496 11.7535C2.58014 13.0163 3.72823 14.3342 5.15448 15.6713C7.51803 17.8853 9.85841 19.4149 9.95692 19.4774L10.561 19.8699C10.8283 20.0434 11.1717 20.0434 11.4397 19.8699L12.043 19.4774C12.1423 19.4127 14.4798 17.8853 16.8455 15.6706C18.2725 14.3342 19.4206 13.017 20.2557 11.7527C20.7823 10.9545 21.1974 10.1635 21.4828 9.4013C21.8268 8.48984 22 7.59308 22 6.7316C22.0029 5.82612 21.8217 4.92976 21.4676 4.09864L21.4683 4.09938Z" fill="#FF6B6B"/>
</svg>
