<svg width="22" height="20" viewBox="0 0 22 20" fill="none" xmlns="http://www.w3.org/2000/svg">
<path d="M19.9354 4.56308C19.6342 3.86615 19.1999 3.23465 18.657 2.70392C17.5391 1.60868 16.0353 0.997106 14.4703 1.00128C13.1001 1.00022 11.7708 1.46828 10.7034 2.32761C9.63631 1.46782 8.30697 0.999307 6.93656 1C6.13922 1 5.36681 1.15333 4.63656 1.45617C3.9335 1.74672 3.29297 2.16991 2.74992 2.70264C2.1966 3.24279 1.75678 3.88805 1.45628 4.60052C1.15578 5.313 1.00065 6.07833 1 6.85158C1 7.59908 1.15333 8.37853 1.45617 9.17139C1.70981 9.83392 2.07397 10.5214 2.53908 11.2158C3.27572 12.3134 4.28836 13.459 5.54633 14.6211C7.63103 16.5454 9.69528 17.875 9.78217 17.9293L10.315 18.2704C10.5508 18.4212 10.8536 18.4212 11.09 18.2704L11.6222 17.9293C11.7097 17.8731 13.7714 16.5454 15.858 14.6205C17.1166 13.459 18.1293 12.3141 18.8659 11.2152C19.3304 10.5214 19.6964 9.83392 19.9482 9.17139C20.2516 8.37917 20.4043 7.59972 20.4043 6.85095C20.407 6.06392 20.2471 5.28483 19.9347 4.56245L19.9354 4.56308Z" stroke="#9a9a9a" stroke-width="2"/>
</svg>
