<svg width="37" height="32" viewBox="0 0 37 32" fill="none" xmlns="http://www.w3.org/2000/svg">
<path fill-rule="evenodd" clip-rule="evenodd" d="M9 12H7V25H9V12ZM15 12H13V25H15V12ZM19 12H21V25H19V12ZM26 12H24V25H26V12Z" fill="#7A7A7A"/>
<path d="M31.8786 13.071C32.176 13.071 32.4612 12.955 32.6715 12.7484C32.8818 12.5419 33 12.2617 33 11.9696V8.22496C33.0006 8.01288 32.9388 7.80514 32.8221 7.6267C32.7054 7.44826 32.5387 7.3067 32.3421 7.21904L18.4635 0.0968267C18.3189 0.033001 18.1622 0 18.0037 0C17.8452 0 17.6885 0.033001 17.544 0.0968267L3.6579 7.21904C3.46127 7.3067 3.29459 7.44826 3.17788 7.6267C3.06118 7.80514 2.99941 8.01288 3 8.22496V11.9696C3 12.1143 3.02901 12.2575 3.08537 12.3911C3.14172 12.5247 3.22433 12.6461 3.32846 12.7484C3.43259 12.8507 3.55622 12.9318 3.69228 12.9872C3.82833 13.0425 3.97416 13.071 4.12143 13.071H5.85684V24.2316H4.12143C3.82401 24.2316 3.53877 24.3476 3.32846 24.5542C3.11815 24.7607 3 25.0409 3 25.333V29.8986C3 30.1907 3.11815 30.4709 3.32846 30.6774C3.53877 30.884 3.82401 31 4.12143 31H31.8786C32.176 31 32.4612 30.884 32.6715 30.6774C32.8818 30.4709 33 30.1907 33 29.8986V25.333C33 25.0409 32.8818 24.7607 32.6715 24.5542C32.4612 24.3476 32.176 24.2316 31.8786 24.2316H30.1432V13.071H31.8786ZM5.24285 8.93718L18 2.32894L30.7572 8.93718V10.8683H5.24285V8.93718ZM19.1214 24.2316V13.071H22.4268V24.2316H19.1214ZM16.8786 13.071V24.2316H13.5732V13.071H16.8786ZM8.09968 13.071H11.3303V24.2316H8.09968V13.071ZM30.7572 28.7973H5.24285V26.4343H30.7572V28.7973ZM27.9003 24.2316H24.6697V13.071H27.9003V24.2316Z" fill="black"/>
<path d="M26.7774 10C25.6479 10 24.7049 10.9053 24.7049 12.0556C24.7049 13.2058 25.6479 14.1111 26.7774 14.1111H28.6101L21.098 20.9594L16.0677 16.1038C15.2577 15.3219 13.965 15.3279 13.1624 16.1178L1.61266 27.4854C0.79576 28.2894 0.795785 29.5996 1.61271 30.4036C2.42076 31.1988 3.72435 31.1988 4.53237 30.4035L14.6364 20.4589L19.6118 25.2616C20.4003 26.0226 21.6504 26.0398 22.4599 25.3019L31.855 16.7369V18.9573C31.855 20.1075 32.798 21.0128 33.9275 21.0128C35.057 21.0128 36 20.1075 36 18.9573V12.0556C36 10.9053 35.057 10 33.9275 10H26.7774Z" fill="#229C1F" stroke="white" stroke-width="2" stroke-linecap="round" stroke-linejoin="round"/>
</svg>
