<svg width="34" height="30" viewBox="0 0 34 30" fill="none" xmlns="http://www.w3.org/2000/svg">
<path d="M15.3959 4.5V1.5C15.3959 1.10217 15.5581 0.720644 15.8468 0.43934C16.1356 0.158035 16.5272 0 16.9355 0C17.3438 0 17.7354 0.158035 18.0241 0.43934C18.3129 0.720644 18.4751 1.10217 18.4751 1.5V4.5H23.0877C29.0497 4.5 33.871 9.20025 33.871 15.0052V26.253C33.8714 26.7452 33.7721 27.2327 33.579 27.6876C33.3858 28.1424 33.1024 28.5556 32.7452 28.9037C32.3879 29.2517 31.9637 29.5277 31.4968 29.7158C31.0299 29.9039 30.5295 30.0005 30.0243 30H26.9405C25.1846 30 23.0715 28.9702 22.0161 27.6L19.7067 24.6C19.485 24.3127 18.8423 24 18.4712 24H15.3997C15.0287 24 14.3859 24.3127 14.1642 24.6L11.8548 27.6C10.8002 28.9702 8.68636 30 6.93046 30H3.84667C3.34144 30.0005 2.84107 29.9039 2.37419 29.7158C1.90731 29.5277 1.48309 29.2517 1.12581 28.9037C0.76852 28.5556 0.48518 28.1424 0.292001 27.6876C0.0988222 27.2327 -0.000403852 26.7452 1.23532e-06 26.253V15.0052C1.23532e-06 9.20025 4.82123 4.5 10.7833 4.5H15.3959ZM23.0877 7.5H10.7833C9.77141 7.49921 8.76929 7.69279 7.83427 8.06968C6.89925 8.44657 6.04967 8.99936 5.33413 9.69643C4.61858 10.3935 4.05112 11.2212 3.66419 12.1321C3.27727 13.0431 3.07847 14.0194 3.07918 15.0052V26.253C3.07918 26.6685 3.4202 27 3.84667 27H6.93046C7.71719 27 8.91807 26.415 9.3915 25.8L11.7009 22.8C12.5045 21.756 14.0611 21 15.3997 21H18.4712C19.8099 21 21.3657 21.756 22.1701 22.8L24.4795 25.8C24.9529 26.415 26.1538 27 26.9405 27H30.0243C30.1252 27.0005 30.2251 26.9815 30.3184 26.9442C30.4117 26.9068 30.4965 26.8518 30.5679 26.7824C30.6392 26.7129 30.6957 26.6304 30.7342 26.5395C30.7726 26.4486 30.7922 26.3513 30.7918 26.253V15.0052C30.7925 14.0194 30.5937 13.0431 30.2068 12.1321C29.8199 11.2212 29.2524 10.3935 28.5368 9.69643C27.8213 8.99936 26.9717 8.44657 26.0367 8.06968C25.1017 7.69279 24.0996 7.49921 23.0877 7.5ZM11.5469 13.5H13.0865C13.4948 13.5 13.8864 13.658 14.1752 13.9393C14.4639 14.2206 14.6261 14.6022 14.6261 15C14.6261 15.3978 14.4639 15.7794 14.1752 16.0607C13.8864 16.342 13.4948 16.5 13.0865 16.5H11.5469V18C11.5469 18.197 11.5071 18.392 11.4297 18.574C11.3524 18.756 11.239 18.9214 11.096 19.0607C10.953 19.1999 10.7833 19.3104 10.5965 19.3858C10.4097 19.4612 10.2095 19.5 10.0073 19.5C9.80515 19.5 9.60495 19.4612 9.41816 19.3858C9.23137 19.3104 9.06164 19.1999 8.91868 19.0607C8.77571 18.9214 8.66231 18.756 8.58494 18.574C8.50757 18.392 8.46774 18.197 8.46774 18V16.5H6.92815C6.51983 16.5 6.12823 16.342 5.8395 16.0607C5.55077 15.7794 5.38856 15.3978 5.38856 15C5.38856 14.6022 5.55077 14.2206 5.8395 13.9393C6.12823 13.658 6.51983 13.5 6.92815 13.5H8.46774V12C8.46774 11.803 8.50757 11.608 8.58494 11.426C8.66231 11.244 8.77571 11.0786 8.91868 10.9393C9.06164 10.8 9.23137 10.6896 9.41816 10.6142C9.60495 10.5388 9.80515 10.5 10.0073 10.5C10.2095 10.5 10.4097 10.5388 10.5965 10.6142C10.7833 10.6896 10.953 10.8 11.096 10.9393C11.239 11.0786 11.3524 11.244 11.4297 11.426C11.5071 11.608 11.5469 11.803 11.5469 12V13.5ZM23.8636 12.75C23.6614 12.75 23.4612 12.7113 23.2744 12.6359C23.0876 12.5605 22.9178 12.45 22.7748 12.3107C22.6318 12.1714 22.5184 12.0061 22.441 11.8241C22.3636 11.6421 22.3238 11.447 22.3238 11.25C22.3238 11.053 22.3636 10.8579 22.441 10.6759C22.5184 10.4939 22.6318 10.3285 22.7748 10.1893C22.9178 10.05 23.0876 9.93948 23.2744 9.86411C23.4612 9.78874 23.6614 9.74997 23.8636 9.75C24.2719 9.75006 24.6635 9.90812 24.9521 10.1894C25.2408 10.4707 25.403 10.8522 25.403 11.25C25.403 11.6478 25.2408 12.0293 24.9521 12.3106C24.6635 12.5919 24.2719 12.7499 23.8636 12.75ZM23.8636 20.25C23.6614 20.25 23.4612 20.2113 23.2744 20.1359C23.0876 20.0605 22.9178 19.95 22.7748 19.8107C22.6318 19.6714 22.5184 19.5061 22.441 19.3241C22.3636 19.1421 22.3238 18.947 22.3238 18.75C22.3238 18.553 22.3636 18.3579 22.441 18.1759C22.5184 17.9939 22.6318 17.8285 22.7748 17.6893C22.9178 17.55 23.0876 17.4395 23.2744 17.3641C23.4612 17.2887 23.6614 17.25 23.8636 17.25C24.2719 17.2501 24.6635 17.4081 24.9521 17.6894C25.2408 17.9707 25.403 18.3522 25.403 18.75C25.403 19.1478 25.2408 19.5293 24.9521 19.8106C24.6635 20.0919 24.2719 20.2499 23.8636 20.25ZM20.0147 16.5C19.6063 16.5 19.2147 16.342 18.926 16.0607C18.6373 15.7794 18.4751 15.3978 18.4751 15C18.4751 14.6022 18.6373 14.2206 18.926 13.9393C19.2147 13.658 19.6063 13.5 20.0147 13.5C20.423 13.5 20.8146 13.658 21.1033 13.9393C21.392 14.2206 21.5543 14.6022 21.5543 15C21.5543 15.3978 21.392 15.7794 21.1033 16.0607C20.8146 16.342 20.423 16.5 20.0147 16.5ZM27.7126 16.5C27.3043 16.5 26.9127 16.342 26.624 16.0607C26.3352 15.7794 26.173 15.3978 26.173 15C26.173 14.6022 26.3352 14.2206 26.624 13.9393C26.9127 13.658 27.3043 13.5 27.7126 13.5C28.1209 13.5 28.5125 13.658 28.8013 13.9393C29.09 14.2206 29.2522 14.6022 29.2522 15C29.2522 15.3978 29.09 15.7794 28.8013 16.0607C28.5125 16.342 28.1209 16.5 27.7126 16.5Z" fill="white"/>
</svg>
