<svg width="25" height="30" viewBox="0 0 25 30" fill="none" xmlns="http://www.w3.org/2000/svg">
<path d="M12.5 30C18.5206 30 25 26.2438 25 17.9994C25 17.7279 24.9618 11.339 21.6279 7.93837C21.4439 7.75076 21.2143 7.61633 20.9627 7.5488C20.711 7.48127 20.4463 7.48305 20.1956 7.55398C19.9448 7.6249 19.717 7.76241 19.5354 7.95249C19.3538 8.14257 19.2248 8.3784 19.1618 8.63591C18.7426 10.3475 18.0676 11.4561 17.3691 12.1746C18.1074 9.44895 17.9515 7.06082 16.8956 5.04772C14.6544 0.777003 9.23529 0.038966 9.00588 0.0104646C8.79906 -0.0143613 8.58943 0.00510156 8.3904 0.0676093C8.19137 0.130117 8.00732 0.234295 7.85 0.373483C7.69367 0.51433 7.5685 0.687488 7.4828 0.88146C7.3971 1.07543 7.35284 1.28578 7.35294 1.49854C7.35294 1.53604 7.32353 5.40624 4.84265 7.93837C1.82206 11.0195 0 12.8781 0 17.9994C0 26.2888 6.27941 30 12.5 30ZM6.92206 10.0595C9.02647 7.91287 9.81765 5.14823 10.1147 3.34814C11.4618 3.78316 13.3794 4.6907 14.3088 6.47579C15.3118 8.39889 15.0029 11.0405 13.3912 14.3272C13.2788 14.5559 13.2257 14.8101 13.2368 15.0657C13.2479 15.3212 13.3229 15.5696 13.4546 15.7873C13.5864 16.0049 13.7705 16.1846 13.9895 16.3093C14.2085 16.4339 14.4551 16.4993 14.7059 16.4993C14.8971 16.4993 18.7 16.4423 20.9382 12.2496C22.0338 14.8462 22.0588 17.9604 22.0588 17.9994C22.0588 23.0771 19.0485 25.6453 15.6618 26.5768C14.1721 26.7508 9.76618 26.3713 7.35294 16.4993C7.35294 16.4993 5.31324 21.7121 6.34118 25.1788C4.36029 23.7747 2.94118 21.4796 2.94118 17.9994C2.94118 14.1202 4.025 13.0146 6.92206 10.0595Z" fill="white"/>
</svg>
