<svg width="28" height="30" viewBox="0 0 28 30" fill="none" xmlns="http://www.w3.org/2000/svg">
<path fill-rule="evenodd" clip-rule="evenodd" d="M8.29578 16.6015H8.28999C8.17832 16.6015 6.89458 16.5679 6.85193 15.0518C6.85121 15.0366 6.8494 14.9423 6.86458 14.8057C6.90723 7.59149 9.324 0 13.7694 0C16.2252 0 17.6864 1.29205 18.8122 4.45984C19.0739 5.1964 18.6889 6.00597 17.9524 6.26763C17.2162 6.53002 16.4063 6.14439 16.1446 5.40783C15.2288 2.83095 14.5197 2.83095 13.7694 2.83095C12.1091 2.83095 9.69734 7.56728 9.69517 14.9893C9.69589 15.0605 9.69119 15.1302 9.68144 15.1989C9.63048 15.6268 9.39339 16.586 8.29578 16.6015ZM23.4741 19.9878C23.044 19.3141 23.2413 18.4192 23.9153 17.9891C24.5887 17.5591 25.4842 17.7564 25.9147 18.4304C27.4203 20.7897 27.5739 22.556 26.4272 24.3359C25.3115 26.0682 23.4842 26.4097 22.1202 26.4097C21.504 26.4097 20.9825 26.3403 20.6637 26.2977C20.6608 26.2973 20.6582 26.2965 20.6556 26.2957C20.653 26.2949 20.6503 26.2941 20.6474 26.2937C19.9517 26.2521 19.2556 26.1513 18.57 26.006C17.2751 28.5912 15.5381 29.9469 13.8109 29.9971C13.7459 29.9989 13.6812 30 13.6172 30C10.658 30 8.7255 27.9855 7.87111 24.0088C7.70703 23.2445 8.1935 22.4916 8.95788 22.3276C9.72119 22.1624 10.4747 22.6499 10.6392 23.4143C11.4595 27.2337 12.935 27.1907 13.7287 27.1676L13.7289 27.1676C14.3661 27.1488 15.1131 26.4484 15.7944 25.1852C12.5666 23.9763 10.0291 22.1985 9.67674 21.9459L9.66556 21.9385L9.65614 21.9325C1.34796 16.563 -1.18229 10.7428 0.616461 7.7615C1.80732 5.7871 3.44416 5.51243 5.53566 5.70867C6.33149 5.78312 6.91626 6.4886 6.84181 7.2848C6.76736 8.08063 6.06369 8.66431 5.26568 8.59095C3.59198 8.43482 3.42537 8.70913 3.09504 9.25667C2.22222 10.7038 4.86994 15.3132 10.9825 19.3405L10.984 19.3416C11.0147 19.3603 11.0447 19.3799 11.0736 19.4005C11.1412 19.4449 11.2088 19.4886 11.2771 19.5327L11.2738 19.5378C11.2838 19.5443 11.2942 19.5498 11.3045 19.5554L11.3046 19.5554L11.3046 19.5554C11.3178 19.5625 11.331 19.5695 11.3436 19.5786C11.3783 19.6039 13.8341 21.3651 16.8638 22.4945C17.4471 20.5104 17.844 17.966 17.844 14.9992L17.8443 14.5857C17.8461 13.4494 17.8465 13.0667 17.7008 11.9637C17.5986 11.1884 18.1439 10.4772 18.9188 10.3749C19.6915 10.2733 20.4053 10.8176 20.5076 11.5928C20.6778 12.8824 20.6771 13.4173 20.6753 14.5893L20.6749 14.9988C20.6749 18.2783 20.2802 21.0391 19.6279 23.2647C20.0634 23.3399 20.4996 23.3908 20.9319 23.4114C20.9535 23.4125 20.9742 23.4164 20.9948 23.4202C21.009 23.4229 21.0232 23.4256 21.0378 23.4273C21.0394 23.4275 21.0409 23.4275 21.0424 23.4275C21.0439 23.4275 21.0454 23.4275 21.0468 23.4277C23.368 23.738 23.7902 23.0832 23.9931 22.7686L23.9934 22.7681C24.3031 22.2871 24.6237 21.789 23.4741 19.9878ZM5.77564 22.5812C3.33284 22.7987 3.14599 22.245 2.96564 21.7098C2.85469 21.3809 2.75024 21.0704 3.74196 19.1524C4.10916 18.4422 3.83123 17.5691 3.12105 17.2019C2.41087 16.835 1.5377 17.1126 1.1705 17.8228C0.116622 19.8612 -0.294306 21.1012 0.222516 22.6339C1.0216 25.0051 2.95444 25.5227 4.83777 25.5227C5.24183 25.5227 5.64444 25.4988 6.03224 25.4641C6.82843 25.3933 7.41681 24.6904 7.34598 23.8942C7.27478 23.0987 6.57436 22.5107 5.77564 22.5812ZM11.2586 9.08561C10.5973 9.47088 10.3472 10.3115 10.7021 10.9997C11.0689 11.7098 11.9417 11.9885 12.6523 11.622L12.6574 11.6194C12.6866 11.6042 12.7234 11.5852 12.765 11.5613C20.7476 8.6024 24.293 9.00176 24.9031 10.2457C25.301 11.0578 24.4987 13.0167 21.7964 15.3981C21.1964 15.9264 21.139 16.8412 21.6674 17.4411C21.9536 17.766 22.3526 17.9316 22.7538 17.9316C23.0938 17.9316 23.435 17.8123 23.7101 17.5702C27.2638 14.4385 28.6459 11.3043 27.5024 8.9714C25.8341 5.5687 20.6619 5.53617 11.6909 8.87202C11.5901 8.9096 11.4274 8.97032 11.2586 9.08561ZM13.7395 18.4231C12.3112 18.4231 11.1493 17.2612 11.1493 15.8329C11.1493 14.4046 12.3112 13.2426 13.7395 13.2426C15.1678 13.2426 16.3298 14.4046 16.3298 15.8329C16.3298 17.2612 15.1678 18.4231 13.7395 18.4231Z" fill="#040000"/>
</svg>
