<svg width="111" height="37" viewBox="0 0 111 37" fill="none" xmlns="http://www.w3.org/2000/svg">
<rect x="1.75" y="1.75" width="107.5" height="33.5" rx="16.75" fill="url(#paint0_linear_8265_2826)" stroke="url(#paint1_linear_8265_2826)" stroke-width="3.5"/>
<path d="M11.0986 14.8016L14.7986 29.6016H29.5986L33.2986 14.8016L27.0201 20.368L22.4693 11.1016L17.4946 20.368L11.0986 14.8016Z" fill="url(#paint2_linear_8265_2826)"/>
<path d="M24.7682 9.74174C24.7682 11.0345 23.7204 12.0821 22.4275 12.0821C21.1346 12.0821 20.0869 11.0345 20.0869 9.74174C20.0869 8.44762 21.1346 7.40137 22.4275 7.40137C23.7204 7.40137 24.7682 8.44779 24.7682 9.74174Z" fill="#FF41B3"/>
<path d="M22.4275 7.40137C21.1346 7.40137 20.0869 8.44762 20.0869 9.74174C20.0869 11.0345 21.1346 12.0821 22.4275 12.0821V7.40137Z" fill="#FF5FEF"/>
<path d="M11.0986 14.8027L13.6101 29.6027H29.5986L22.1986 22.2027L11.0986 14.8027Z" fill="#F4A632"/>
<path d="M33.2998 14.8027L30.7884 29.6027H14.7998L22.1998 22.2027L33.2998 14.8027Z" fill="#F4E132"/>
<path d="M14.7998 29.6012H29.5998L22.1997 22.2012L14.7998 29.6012Z" fill="#FFBE1C"/>
<path d="M34.2456 14.076C34.2456 14.2351 34.2142 14.3928 34.1533 14.5399C34.0923 14.6869 34.003 14.8205 33.8904 14.9331C33.7777 15.0456 33.644 15.1348 33.4969 15.1956C33.3498 15.2564 33.1921 15.2876 33.0329 15.2874C32.8738 15.2875 32.7162 15.2562 32.5692 15.1954C32.4221 15.1345 32.2885 15.0453 32.176 14.9328C32.0635 14.8203 31.9742 14.6867 31.9134 14.5397C31.8525 14.3927 31.8212 14.2351 31.8213 14.076C31.8211 13.9167 31.8523 13.7591 31.9131 13.6119C31.9739 13.4648 32.0632 13.3311 32.1757 13.2184C32.2882 13.1058 32.4219 13.0165 32.5689 12.9555C32.716 12.8946 32.8737 12.8632 33.0329 12.8633C33.1922 12.8631 33.35 12.8943 33.4972 12.9552C33.6444 13.0161 33.7782 13.1054 33.8908 13.2181C34.0034 13.3307 34.0928 13.4645 34.1536 13.6117C34.2145 13.7589 34.2458 13.9166 34.2456 14.076Z" fill="#FFB950"/>
<path d="M33.0329 12.8633C32.8737 12.8632 32.716 12.8946 32.5689 12.9555C32.4219 13.0165 32.2882 13.1058 32.1757 13.2184C32.0632 13.3311 31.9739 13.4648 31.9131 13.6119C31.8523 13.759 31.8211 13.9167 31.8213 14.076C31.8212 14.2351 31.8525 14.3926 31.9134 14.5397C31.9742 14.6867 32.0635 14.8203 32.176 14.9328C32.2885 15.0453 32.4221 15.1345 32.5692 15.1954C32.7162 15.2562 32.8738 15.2875 33.0329 15.2874V12.8633Z" fill="#FFE81D"/>
<path d="M12.4162 14.076C12.4162 14.2352 12.3848 14.3928 12.3238 14.5398C12.2628 14.6869 12.1735 14.8205 12.0608 14.933C11.9482 15.0455 11.8145 15.1347 11.6674 15.1955C11.5202 15.2563 11.3626 15.2876 11.2034 15.2874C11.0442 15.2875 10.8866 15.2562 10.7395 15.1954C10.5925 15.1345 10.4588 15.0453 10.3463 14.9328C10.2337 14.8203 10.1444 14.6867 10.0835 14.5397C10.0226 14.3927 9.99121 14.2351 9.99121 14.076C9.99105 13.9167 10.0223 13.759 10.0831 13.6118C10.144 13.4646 10.2333 13.3309 10.3458 13.2183C10.4584 13.1057 10.5921 13.0163 10.7393 12.9554C10.8864 12.8945 11.0441 12.8632 11.2034 12.8633C11.3627 12.8631 11.5204 12.8944 11.6676 12.9553C11.8148 13.0162 11.9486 13.1055 12.0612 13.2181C12.1739 13.3308 12.2632 13.4645 12.3241 13.6117C12.385 13.7589 12.4163 13.9167 12.4162 14.076Z" fill="#FFB950"/>
<path d="M11.2034 12.8633C11.0441 12.8632 10.8864 12.8945 10.7393 12.9555C10.5922 13.0164 10.4585 13.1057 10.3459 13.2183C10.2333 13.331 10.144 13.4647 10.0832 13.6118C10.0223 13.759 9.99107 13.9167 9.99121 14.076C9.99119 14.2351 10.0225 14.3927 10.0834 14.5397C10.1444 14.6868 10.2337 14.8204 10.3462 14.9329C10.4588 15.0454 10.5924 15.1346 10.7395 15.1954C10.8866 15.2563 11.0442 15.2875 11.2034 15.2874V12.8633Z" fill="#FFE141"/>
<path d="M61.0235 29.9062H62.0235V28.9062V8.09375V7.09375H61.0235H56.7456H55.7456V8.09375V19.1277L47.887 7.53271L47.5894 7.09375H47.0592H42.7812H41.7812V8.09375V28.9062V29.9062H42.7812H47.0592H48.0592V28.9062V17.8964L55.9184 29.4681L56.2159 29.9062H56.7456H61.0235ZM78.3238 12.4881H78.4209H79.3238H84.0073V28.9062V29.9062H85.0073H89.2852H90.2852V28.9062V12.4881H94.9688H95.9688V11.4881V8.12353V7.12353H94.9688H79.3238H78.4209H78.3238H77.4209H64.2511H63.2511V8.12353V28.9062V29.9062H64.2511H68.529H69.529V28.9062V21.1227H75.3431H76.3431V20.1227V16.8177V15.8177H75.3431H69.529V12.4881H77.4209H78.3238Z" fill="url(#paint3_linear_8265_2826)" stroke="url(#paint4_linear_8265_2826)" stroke-width="2"/>
<defs>
<linearGradient id="paint0_linear_8265_2826" x1="111" y1="0" x2="87.6588" y2="67.3704" gradientUnits="userSpaceOnUse">
<stop stop-color="#5A50D0"/>
<stop offset="0.114583" stop-color="#5D4ADD"/>
<stop offset="0.414589" stop-color="#9F43D7"/>
<stop offset="0.664756" stop-color="#CF5A7C"/>
<stop offset="0.839685" stop-color="#EC811E"/>
<stop offset="0.979167" stop-color="#FFA858"/>
</linearGradient>
<linearGradient id="paint1_linear_8265_2826" x1="55.5" y1="0" x2="55.5" y2="37" gradientUnits="userSpaceOnUse">
<stop stop-color="#7338AA" stop-opacity="0.76"/>
<stop offset="1" stop-color="#F93F3F" stop-opacity="0.4"/>
</linearGradient>
<linearGradient id="paint2_linear_8265_2826" x1="22.1986" y1="11.1016" x2="22.1986" y2="29.6016" gradientUnits="userSpaceOnUse">
<stop stop-color="#FFD84E"/>
<stop offset="0.401042" stop-color="#FFCB41" stop-opacity="0.760417"/>
<stop offset="1" stop-color="#FFA11A" stop-opacity="0"/>
</linearGradient>
<linearGradient id="paint3_linear_8265_2826" x1="68.375" y1="8.09375" x2="68.375" y2="28.9063" gradientUnits="userSpaceOnUse">
<stop stop-color="white"/>
<stop offset="0.479167" stop-color="#FFFAFC"/>
<stop offset="0.791667" stop-color="#FFC6E1"/>
<stop offset="1" stop-color="#FFE3F4"/>
</linearGradient>
<linearGradient id="paint4_linear_8265_2826" x1="68.375" y1="8.09375" x2="68.375" y2="28.9063" gradientUnits="userSpaceOnUse">
<stop offset="0.015625" stop-color="#9E43BE"/>
<stop offset="0.359375" stop-color="#FF8863"/>
<stop offset="0.703125" stop-color="#DE4DCC"/>
<stop offset="1" stop-color="#AD3584"/>
</linearGradient>
</defs>
</svg>
