<svg width="30" height="30" viewBox="0 0 30 30" fill="none" xmlns="http://www.w3.org/2000/svg">
<path d="M19.2339 4.7784L16.4059 1.98345C15.6268 1.21346 14.3732 1.21347 13.5941 1.98345L10.7661 4.7784L6.79 4.80181C5.69464 4.80826 4.80826 5.69464 4.80181 6.79L4.7784 10.7661L1.98345 13.5941C1.21346 14.3732 1.21347 15.6268 1.98345 16.4059L4.7784 19.2339L4.80181 23.21C4.80826 24.3054 5.69464 25.1917 6.79 25.1982L10.7661 25.2216L13.5941 28.0166C14.3732 28.7865 15.6268 28.7865 16.4059 28.0166L19.2339 25.2216L23.21 25.1982C24.3054 25.1917 25.1917 24.3054 25.1982 23.21L25.2216 19.2339L28.0166 16.4059C28.7865 15.6268 28.7865 14.3732 28.0166 13.5941L25.2216 10.7661L25.1982 6.79C25.1917 5.69463 24.3054 4.80826 23.21 4.80181L19.2339 4.7784Z" fill="url(#paint0_linear_1404_1644)" stroke="#FFE380" stroke-width="2"/>
<path d="M13.6865 9.80624C13.2599 10.2672 10.4552 13.7841 10.4552 13.7841C12.4066 12.485 14.295 15.1732 14.295 15.1732C14.295 15.1732 17.22 19.2883 17.7572 19.657C18.2943 20.0258 18.7643 19.8037 18.9322 19.657C19.1001 19.5104 19.4987 19.3008 20.338 17.9599C21.1773 16.6189 20.6248 15.1663 20.2541 14.6704C19.7557 13.9497 18.9021 12.901 18.0509 11.8386C17.416 11.046 16.8037 10.2612 16.3304 9.7885C15.0714 8.69577 14.0642 9.42589 13.6865 9.80624Z" fill="#FFC5A5"/>
<path d="M13.6359 9.884C14.6644 8.7533 15.8145 9.2785 16.3633 9.82457C16.912 10.3706 17.3337 10.9372 18.0212 11.8049C18.8269 12.8217 19.5946 13.8062 19.5946 13.8062C17.6226 12.2851 15.7548 15.1905 15.7548 15.1905C15.7548 15.1905 12.8298 19.2912 12.2926 19.6587C11.7555 20.0262 11.2855 19.8049 11.1176 19.6587C10.9497 19.5125 10.5511 19.3038 9.71177 17.9675C8.87247 16.6312 9.425 15.1836 9.79569 14.6894C10.628 13.5341 12.5793 11.0456 13.6359 9.884Z" fill="white"/>
<defs>
<linearGradient id="paint0_linear_1404_1644" x1="28" y1="2" x2="8.6797" y2="20.2229" gradientUnits="userSpaceOnUse">
<stop offset="0.0208333" stop-color="#9D1FEA"/>
<stop offset="0.4375" stop-color="#F14376"/>
<stop offset="0.994792" stop-color="#FFA620"/>
</linearGradient>
</defs>
</svg>
