<svg width="27" height="28" viewBox="0 0 27 28" fill="none" xmlns="http://www.w3.org/2000/svg">
<rect opacity="0.2" width="27" height="28" rx="13.5" fill="#A5FFBE"/>
<path d="M17.4747 9.75246C17.4747 10.7477 17.073 11.7021 16.358 12.4058C15.643 13.1096 14.6733 13.5049 13.6621 13.5049C12.651 13.5049 11.6812 13.1096 10.9663 12.4058C10.2513 11.7021 9.84958 10.7477 9.84958 9.75246C9.84958 8.75724 10.2513 7.80279 10.9663 7.09907C11.6812 6.39535 12.651 6 13.6621 6C14.6733 6 15.643 6.39535 16.358 7.09907C17.073 7.80279 17.4747 8.75724 17.4747 9.75246ZM11.9131 14.7525H15.0869C16.3781 14.7523 17.6175 15.2603 18.5369 16.1666C19.4563 17.0729 19.9819 18.3046 20 19.5953V19.9096C20 21 17.7989 21 15.0869 21H11.9131C9.19123 21 7 21 7 19.9096V19.5953C7.01808 18.3046 7.54367 17.0729 8.4631 16.1666C9.38253 15.2603 10.6219 14.7523 11.9131 14.7525Z" fill="#A5FFBE"/>
</svg>
