<svg width="11" height="12" viewBox="0 0 11 12" fill="none" xmlns="http://www.w3.org/2000/svg">
<path fill-rule="evenodd" clip-rule="evenodd" d="M7.00957 0H0.657031C0.295647 0 -3.24249e-05 0.28436 -3.24249e-05 0.631911V11.3681C-3.24249e-05 11.7156 0.289076 12 0.657031 12H7.00957C7.37096 12 7.66663 11.7156 7.66663 11.3681C7.66663 11.0205 7.37753 10.7362 7.00957 10.7362H1.32067V1.26382H7.00957C7.37096 1.26382 7.66663 0.979463 7.66663 0.631911C7.66663 0.28436 7.37753 0 7.00957 0ZM6.8413 3C7.02088 3 7.19355 3.06322 7.33169 3.18333L9.93561 5.56025C10.0668 5.68036 10.1428 5.84472 10.1428 6.00909C10.1424 6.09273 10.1239 6.17546 10.0884 6.25251C10.0528 6.32955 10.0009 6.39937 9.93561 6.45792L7.32478 8.81588C7.26017 8.8748 7.18343 8.9214 7.09901 8.953C7.01458 8.9846 6.92416 9.00057 6.83295 8.99998C6.74174 8.9994 6.65157 8.98226 6.56764 8.94958C6.48371 8.91689 6.4077 8.8693 6.344 8.80956C6.07462 8.56302 6.07462 8.15843 6.3509 7.91189L7.73394 6.66675H2.77885C2.42267 6.66675 2.14282 6.36675 2.14282 6.00008C2.14282 5.63341 2.42267 5.33341 2.77885 5.33341H7.72134L6.3509 4.08732C6.08153 3.84077 6.07462 3.43619 6.3509 3.18965C6.48213 3.06322 6.66172 3 6.8413 3Z" fill="#845DA4"/>
</svg>
