<svg width="13" height="14" viewBox="0 0 13 14" fill="none" xmlns="http://www.w3.org/2000/svg">
<path fill-rule="evenodd" clip-rule="evenodd" d="M12.1681 2.40686C12.145 2.29447 12.1149 2.19612 12.0779 2.11183C11.9484 1.83085 11.7656 1.56157 11.5297 1.30401C11.2937 1.04644 11.0786 0.866145 10.8843 0.763119C10.7918 0.716288 10.6831 0.674141 10.5581 0.636677C10.4332 0.599213 10.3037 0.578139 10.1695 0.573456C10.0354 0.568773 9.89889 0.587505 9.7601 0.629653C9.62132 0.6718 9.48715 0.744387 9.35761 0.847413C9.25584 0.931707 9.12861 1.04644 8.97594 1.19162C8.82328 1.33679 8.69143 1.46089 8.58039 1.56392L11.1758 4.19109C11.2405 4.13489 11.3099 4.06933 11.3839 3.9944C11.4487 3.92884 11.525 3.85391 11.6129 3.76962C11.7008 3.68532 11.8003 3.58698 11.9113 3.47459C12.0131 3.3622 12.0871 3.24512 12.1334 3.12336C12.1797 3.0016 12.2028 2.87984 12.2028 2.75809C12.2028 2.63633 12.1912 2.51925 12.1681 2.40686ZM1.6548 8.56737C1.45124 8.77811 1.3217 8.91157 1.26619 8.96777C1.13665 9.0989 1.03718 9.21831 0.96779 9.32602C0.898395 9.43373 0.83594 9.55315 0.780424 9.68427C0.734161 9.76857 0.674019 9.92311 0.599998 10.1479C0.525977 10.3727 0.449642 10.6185 0.370995 10.8855C0.292348 11.1524 0.218326 11.41 0.148932 11.6582C0.0795369 11.9064 0.035587 12.096 0.0170818 12.2272C-0.0199288 12.4707 0.00320285 12.6439 0.0864766 12.747C0.16975 12.85 0.336298 12.8875 0.586119 12.8594C0.706403 12.8406 0.889142 12.7985 1.13434 12.7329C1.37953 12.6674 1.63861 12.5901 1.91156 12.5011C2.18451 12.4121 2.4459 12.3208 2.69572 12.2272C2.94554 12.1335 3.13522 12.0539 3.26476 11.9883C3.39429 11.9321 3.5192 11.8572 3.63949 11.7635C3.75977 11.6699 3.86618 11.5809 3.9587 11.4966C3.99571 11.4685 4.11137 11.3561 4.30568 11.1594C4.49998 10.9627 4.74518 10.7122 5.04126 10.4078C5.33735 10.1034 5.67044 9.76857 6.04055 9.40329L7.15086 8.26532L10.1348 5.24477L7.53947 2.60355L4.5555 5.62409L3.4313 6.76207L2.41814 7.78765C2.1128 8.09673 1.85836 8.35664 1.6548 8.56737ZM4.43731 12.3095C4.13098 12.3095 3.88264 12.5597 3.88264 12.8684C3.88264 13.1771 4.13098 13.4273 4.43731 13.4273H11.6481C11.9544 13.4273 12.2027 13.1771 12.2027 12.8684C12.2027 12.5597 11.9544 12.3095 11.6481 12.3095L4.43731 12.3095Z" fill="#A5FFBE"/>
</svg>
