<svg width="53" height="44" viewBox="0 0 53 44" fill="none" xmlns="http://www.w3.org/2000/svg">
<path d="M42.4 5.522V9.434H46.5442L44.944 7.95L42.4 5.522ZM39.1385 3.2H8.15385C6.85633 3.2 5.61195 3.70571 4.69446 4.60589C3.77698 5.50606 3.26154 6.72696 3.26154 8V36C3.26154 37.273 3.77698 38.4939 4.69446 39.3941C5.61195 40.2943 6.85633 40.8 8.15385 40.8H44.8462C46.1437 40.8 47.3881 40.2943 48.3055 39.3941C49.223 38.4939 49.7385 37.273 49.7385 36V12.634H39.1385V3.2ZM8.15385 0H41.2931L47.2189 5.658L53 11.018V36C53 37.0506 52.7891 38.0909 52.3793 39.0615C51.9696 40.0321 51.369 40.914 50.6118 41.6569C49.8546 42.3997 48.9558 42.989 47.9665 43.391C46.9772 43.7931 45.9169 44 44.8462 44H8.15385C7.08307 44 6.02277 43.7931 5.0335 43.391C4.04423 42.989 3.14536 42.3997 2.38821 41.6569C1.63105 40.914 1.03044 40.0321 0.620675 39.0615C0.210905 38.0909 0 37.0506 0 36V8C0 6.94943 0.210905 5.90914 0.620675 4.93853C1.03044 3.96793 1.63105 3.08601 2.38821 2.34315C3.14536 1.60028 4.04423 1.011 5.0335 0.608964C6.02277 0.206926 7.08307 -5.64274e-09 8.15385 0ZM10.1923 16.6C9.7598 16.6 9.34501 16.4314 9.03918 16.1314C8.73335 15.8313 8.56154 15.4243 8.56154 15C8.56154 14.5757 8.73335 14.1687 9.03918 13.8686C9.34501 13.5686 9.7598 13.4 10.1923 13.4H27.7475C28.18 13.4 28.5948 13.5686 28.9007 13.8686C29.2065 14.1687 29.3783 14.5757 29.3783 15C29.3783 15.4243 29.2065 15.8313 28.9007 16.1314C28.5948 16.4314 28.18 16.6 27.7475 16.6H10.1923ZM10.1923 32.6C9.97813 32.6 9.76604 32.5587 9.56816 32.4783C9.37027 32.3979 9.19047 32.28 9.03901 32.1315C8.88755 31.9829 8.7674 31.8065 8.68543 31.6124C8.60346 31.4182 8.56127 31.2101 8.56127 31C8.56127 30.7899 8.60346 30.5818 8.68543 30.3876C8.7674 30.1935 8.88755 30.0171 9.03901 29.8685C9.19047 29.72 9.37027 29.6021 9.56816 29.5217C9.76604 29.4413 9.97813 29.4 10.1923 29.4H42.7608C42.975 29.4 43.1871 29.4413 43.385 29.5217C43.5828 29.6021 43.7627 29.72 43.9141 29.8685C44.0656 30.0171 44.1857 30.1935 44.2677 30.3876C44.3497 30.5818 44.3918 30.7899 44.3918 31C44.3918 31.2101 44.3497 31.4182 44.2677 31.6124C44.1857 31.8065 44.0656 31.9829 43.9141 32.1315C43.7627 32.28 43.5828 32.3979 43.385 32.4783C43.1871 32.5587 42.975 32.6 42.7608 32.6H10.1923ZM10.1923 24.6C9.97813 24.6 9.76604 24.5587 9.56816 24.4783C9.37027 24.3979 9.19047 24.28 9.03901 24.1315C8.88755 23.9829 8.7674 23.8065 8.68543 23.6124C8.60346 23.4182 8.56127 23.2101 8.56127 23C8.56127 22.7899 8.60346 22.5818 8.68543 22.3876C8.7674 22.1935 8.88755 22.0171 9.03901 21.8685C9.19047 21.72 9.37027 21.6021 9.56816 21.5217C9.76604 21.4413 9.97813 21.4 10.1923 21.4H42.7608C42.975 21.4 43.1871 21.4413 43.385 21.5217C43.5828 21.6021 43.7627 21.72 43.9141 21.8685C44.0656 22.0171 44.1857 22.1935 44.2677 22.3876C44.3497 22.5818 44.3918 22.7899 44.3918 23C44.3918 23.2101 44.3497 23.4182 44.2677 23.6124C44.1857 23.8065 44.0656 23.9829 43.9141 24.1315C43.7627 24.28 43.5828 24.3979 43.385 24.4783C43.1871 24.5587 42.975 24.6 42.7608 24.6H10.1923Z" fill="#4B5954"/>
</svg>
