<svg width="55" height="43" viewBox="0 0 55 43" fill="none" xmlns="http://www.w3.org/2000/svg">
<path fill-rule="evenodd" clip-rule="evenodd" d="M6.1123 0H48.8877C52.25 0 55 2.76444 55 6.1444V36.8556C55 40.2356 52.25 43 48.8877 43H6.1123C2.75 43 0 40.2356 0 36.861V6.1444C0 2.76444 2.75 0 6.1123 0ZM48.8877 3.0722H6.1123C4.42578 3.0722 3.05615 4.44902 3.05615 6.1444V24.0485L13.8037 13.2391L31.3188 30.8462L41.25 20.8629L51.9438 31.6183V6.1444C51.9438 4.44902 50.5742 3.0722 48.8877 3.0722ZM3.05615 28.3895V36.8556C3.05615 38.551 4.42578 39.9278 6.1123 39.9278H36.0347L13.8037 17.5801L3.05615 28.3895ZM40.353 39.9278H48.8877C50.5742 39.9278 51.9438 38.551 51.9438 36.861V35.9593L41.25 25.2093L33.478 33.0167L40.353 39.9278ZM43 12.5C43 16.0927 40.3111 19 37 19C33.6837 19 31 16.0927 31 12.5C31 8.90729 33.6837 6 37 6C40.3163 6 43 8.90729 43 12.5ZM40 12.5C40 10.7065 38.6555 9.25 37 9.25C35.3445 9.25 34 10.7065 34 12.5C34 14.2935 35.3445 15.75 37 15.75C38.6555 15.75 40 14.2935 40 12.5Z" fill="#4B5954"/>
</svg>
