<svg width="18" height="18" viewBox="0 0 18 18" fill="none" xmlns="http://www.w3.org/2000/svg">
<path d="M2.63572 15.3638C1.79747 14.53 1.13293 13.5382 0.680518 12.4459C0.228104 11.3535 -0.00318514 10.1823 3.5398e-05 9C-0.00329163 7.81768 0.22794 6.64644 0.680361 5.55408C1.13278 4.46173 1.79739 3.46995 2.63572 2.63617C3.47146 1.80041 4.46366 1.13744 5.55564 0.685122C6.64763 0.232805 7.81803 0 9 0C10.182 0 11.3524 0.232805 12.4444 0.685122C13.5363 1.13744 14.5285 1.80041 15.3643 2.63617C16.2026 3.46995 16.8672 4.46173 17.3196 5.55408C17.7721 6.64644 18.0033 7.81768 18 9C18.0032 10.1823 17.7719 11.3535 17.3195 12.4459C16.8671 13.5382 16.2025 14.53 15.3643 15.3638C14.5285 16.1996 13.5363 16.8626 12.4444 17.3149C11.3524 17.7672 10.182 18 9 18C7.81803 18 6.64763 17.7672 5.55564 17.3149C4.46366 16.8626 3.47146 16.1996 2.63572 15.3638V15.3638ZM4.14646 5.35205C3.1309 7.28006 2.58053 9.4189 2.53932 11.5976C2.73931 11.9018 2.99338 12.1667 3.2889 12.3793C4.04108 12.9183 4.94389 13.2069 5.8693 13.204C5.8693 13.204 5.86928 13.204 5.87507 13.1956C5.9895 13.0452 6.28781 12.6569 6.58545 12.313C5.83159 12.1153 5.16294 11.6767 4.68129 11.0641C4.68622 11.0657 4.69099 11.0678 4.69546 11.0705C4.73081 11.0898 4.83752 11.1476 4.98024 11.2421H5.0336C5.04348 11.2423 5.05316 11.2447 5.06204 11.249C5.07092 11.2533 5.07876 11.2595 5.085 11.2672V11.2743C5.09111 11.2826 5.09917 11.2894 5.10846 11.294C5.11775 11.2986 5.128 11.3009 5.13836 11.3006L5.20267 11.3283C5.48038 11.442 5.742 11.5494 5.96378 11.6561C6.47749 11.876 7.01483 12.0361 7.56515 12.1331C8.05143 12.206 8.54234 12.2436 9.03406 12.2456C9.49858 12.2462 9.96239 12.2086 10.4207 12.1331L10.4593 12.1247C10.9946 12.0217 11.5181 11.8651 12.0221 11.6574C12.1178 11.6085 12.2194 11.559 12.3261 11.5076C12.6492 11.3585 12.9627 11.1893 13.2647 11.0011V11.0043C12.7642 11.6219 12.0758 12.0593 11.304 12.2501C11.5939 12.6589 12.0073 13.1352 12.0111 13.1397C12.6343 13.1465 13.252 13.0226 13.8243 12.7761C14.3967 12.5295 14.911 12.1657 15.3341 11.7082C15.3984 11.6439 15.435 11.6015 15.4498 11.6015C15.4512 11.601 15.4528 11.601 15.4542 11.6015C15.4092 9.42234 14.8563 7.28379 13.8394 5.35591C12.9648 4.67477 11.8998 4.28294 10.7923 4.23484L10.7968 4.23034L10.7833 4.23484H10.7923L10.6277 4.39812C11.6292 4.65428 12.5646 5.12106 13.3714 5.7673C12.3308 5.23131 11.2013 4.88912 10.0382 4.75745C9.71906 4.70948 9.39665 4.68648 9.07392 4.68867C8.61814 4.68867 8.16494 4.72852 7.83451 4.75745H7.65708C6.79334 4.83578 5.94852 5.05668 5.157 5.41119C4.74557 5.58925 4.50518 5.70945 4.50261 5.71009V5.70624C5.32884 5.0262 6.30861 4.55818 7.35684 4.34284L7.23666 4.22327H7.20323C6.09275 4.27613 5.02554 4.67007 4.14708 5.35141L4.14646 5.35205ZM10.2857 9.48211C10.2857 9.25962 10.3517 9.04213 10.4753 8.85714C10.5989 8.67214 10.7746 8.52796 10.9802 8.44282C11.1858 8.35768 11.412 8.3354 11.6302 8.3788C11.8484 8.42221 12.0489 8.52935 12.2062 8.68667C12.3635 8.84399 12.4707 9.04443 12.5141 9.26265C12.5575 9.48086 12.5352 9.70704 12.45 9.91259C12.3649 10.1181 12.2207 10.2938 12.0357 10.4174C11.8507 10.5411 11.6332 10.607 11.4107 10.607C11.1123 10.607 10.8262 10.4885 10.6152 10.2775C10.4042 10.0666 10.2857 9.78045 10.2857 9.48211ZM5.78573 9.48211C5.78573 9.25962 5.8517 9.04213 5.97532 8.85714C6.09894 8.67214 6.27465 8.52796 6.48022 8.44282C6.68578 8.35768 6.91199 8.3354 7.13021 8.3788C7.34844 8.42221 7.54887 8.52935 7.70621 8.68667C7.86354 8.84399 7.97069 9.04443 8.0141 9.26265C8.05751 9.48086 8.03521 9.70704 7.95006 9.91259C7.86492 10.1181 7.72073 10.2938 7.53572 10.4174C7.35072 10.5411 7.13323 10.607 6.91072 10.607C6.61236 10.607 6.32621 10.4885 6.11524 10.2775C5.90426 10.0666 5.78573 9.78045 5.78573 9.48211Z" fill="#7389DC"/>
</svg>
