<svg width="18" height="18" viewBox="0 0 18 18" fill="none" xmlns="http://www.w3.org/2000/svg">
<path d="M9 18C13.9706 18 18 13.9706 18 9C18 4.02944 13.9706 0 9 0C4.02944 0 0 4.02944 0 9C0 13.9706 4.02944 18 9 18Z" fill="black"/>
<path d="M9.14939 7.57736C8.84208 7.57736 8.54167 7.66848 8.28615 7.83922C8.03063 8.00995 7.83148 8.25262 7.71388 8.53653C7.59627 8.82045 7.5655 9.13287 7.62546 9.43427C7.68541 9.73568 7.83339 10.0125 8.05069 10.2298C8.26799 10.4471 8.54485 10.5951 8.84626 10.6551C9.14766 10.715 9.46008 10.6843 9.74399 10.5667C10.0279 10.449 10.2706 10.2499 10.4413 9.99438C10.612 9.73886 10.7032 9.43845 10.7032 9.13114C10.7023 8.71931 10.5383 8.32459 10.2471 8.03339C9.95593 7.74218 9.56122 7.5782 9.14939 7.57736V7.57736ZM13.8088 9.13114C13.8088 8.48828 13.8146 7.85057 13.7786 7.20835C13.7969 6.84829 13.7394 6.4884 13.6099 6.15192C13.4804 5.81545 13.2818 5.50987 13.0269 5.25494C12.7719 5.00001 12.4664 4.80138 12.1299 4.6719C11.7934 4.54241 11.4335 4.48495 11.0735 4.50321C10.4306 4.46721 9.79224 4.473 9.15067 4.473C8.5091 4.473 7.8701 4.46721 7.22789 4.50321C6.86782 4.48495 6.50793 4.54241 6.17145 4.6719C5.83498 4.80138 5.5294 5.00001 5.27447 5.25494C5.01954 5.50987 4.82091 5.81545 4.69143 6.15192C4.56194 6.4884 4.50448 6.84829 4.52274 7.20835C4.48674 7.85121 4.49253 8.48893 4.49253 9.13114C4.49253 9.77336 4.48674 10.4117 4.52274 11.0539C4.50448 11.414 4.56194 11.7739 4.69143 12.1104C4.82091 12.4468 5.01954 12.7524 5.27447 13.0073C5.5294 13.2623 5.83498 13.4609 6.17145 13.5904C6.50793 13.7199 6.86782 13.7773 7.22789 13.7591C7.87074 13.7951 8.50846 13.7893 9.15067 13.7893C9.79289 13.7893 10.4312 13.7951 11.0735 13.7591C11.434 13.7774 11.7943 13.7198 12.1312 13.59C12.468 13.4602 12.7739 13.2611 13.0289 13.0056C13.2839 12.7501 13.4824 12.4439 13.6115 12.1068C13.7407 11.7697 13.7976 11.4093 13.7786 11.0488C13.8159 10.4098 13.8088 9.77207 13.8088 9.12857V9.13114ZM9.14939 11.5213C8.67666 11.5213 8.21455 11.3811 7.82149 11.1185C7.42844 10.8558 7.12209 10.4826 6.94118 10.0458C6.76028 9.60907 6.71295 9.12849 6.80517 8.66485C6.89739 8.20121 7.12503 7.77532 7.4593 7.44105C7.79357 7.10679 8.21945 6.87915 8.68309 6.78692C9.14674 6.6947 9.62731 6.74203 10.0641 6.92294C10.5008 7.10384 10.8741 7.41019 11.1367 7.80325C11.3993 8.19631 11.5395 8.65842 11.5395 9.13114C11.5397 9.44498 11.478 9.75576 11.3579 10.0457C11.2378 10.3357 11.0617 10.5991 10.8397 10.8209C10.6177 11.0427 10.3542 11.2186 10.0641 11.3385C9.77406 11.4583 9.46322 11.5198 9.14939 11.5194V11.5213ZM11.6398 7.19871C11.5109 7.19858 11.386 7.15376 11.2864 7.07189C11.1868 6.99002 11.1187 6.87615 11.0937 6.74969C11.0686 6.62323 11.0881 6.49199 11.149 6.37833C11.2098 6.26467 11.3082 6.17561 11.4273 6.12633C11.5465 6.07705 11.679 6.07059 11.8023 6.10805C11.9257 6.14551 12.0323 6.22458 12.1039 6.33179C12.1755 6.43899 12.2077 6.56771 12.195 6.69601C12.1824 6.82431 12.1257 6.94426 12.0345 7.03543C11.9827 7.08726 11.9212 7.12836 11.8534 7.15638C11.7857 7.1844 11.7131 7.19879 11.6398 7.19871V7.19871Z" fill="white"/>
</svg>
