<svg width="18" height="18" viewBox="0 0 18 18" fill="none" xmlns="http://www.w3.org/2000/svg">
<path fill-rule="evenodd" clip-rule="evenodd" d="M9 18C13.9706 18 18 13.9705 18 9C18 4.02954 13.9706 0 9 0C4.02942 0 0 4.02954 0 9C0 13.9705 4.02942 18 9 18ZM14.25 5.02002L13.4119 5.82544C13.3408 5.88013 13.304 5.97168 13.319 6.06055V11.9805C13.304 12.0693 13.3408 12.1609 13.4119 12.2156L14.2308 13.021V13.1973H10.1129V13.021L10.9619 12.1965C11.0439 12.113 11.0439 12.0872 11.0439 11.9614V7.17749L8.6842 13.1821H8.3656L5.6217 7.17749V11.2026C5.59705 11.3721 5.65454 11.5415 5.77344 11.6633L6.87537 13.0032V13.1794H3.75V13.0059L4.85327 11.6619C4.97095 11.5403 5.02417 11.3694 4.99414 11.2012V6.54858C5.00647 6.42017 4.95728 6.2915 4.86157 6.2041L3.88257 5.02002V4.84375H6.92603L9.27893 10.0171L11.3474 4.84375H14.25V5.02002Z" fill="black"/>
</svg>
