<svg width="18" height="18" viewBox="0 0 18 18" fill="none" xmlns="http://www.w3.org/2000/svg">
<path d="M8.71875 0C3.90234 0 0 3.90234 0 8.71875C0 13.5352 3.90234 17.4375 8.71875 17.4375C13.5352 17.4375 17.4375 13.5352 17.4375 8.71875C17.4375 3.90234 13.5352 0 8.71875 0ZM13.0008 5.97305L11.5699 12.716C11.4645 13.1941 11.1797 13.3102 10.7824 13.0852L8.60273 11.4785L7.55156 12.491C7.43555 12.607 7.33711 12.7055 7.11211 12.7055L7.2668 10.4871L11.3063 6.83789C11.482 6.6832 11.2676 6.59531 11.0355 6.75L6.04336 9.89297L3.8918 9.22148C3.42422 9.07383 3.41367 8.75391 3.99023 8.52891L12.3961 5.2875C12.7863 5.14687 13.1273 5.38242 13.0008 5.97305V5.97305Z" fill="#29BCEB"/>
</svg>
