<svg width="18" height="18" viewBox="0 0 18 18" fill="none" xmlns="http://www.w3.org/2000/svg">
<path d="M9 18C13.9706 18 18 13.9706 18 9C18 4.02944 13.9706 0 9 0C4.02944 0 0 4.02944 0 9C0 13.9706 4.02944 18 9 18Z" fill="#20A0F2"/>
<path d="M14.1686 6.20956C13.7992 6.37765 13.4061 6.48801 13.0031 6.53678C13.4298 6.27329 13.7467 5.86434 13.8954 5.38542C13.4979 5.62721 13.0613 5.79777 12.6052 5.88942C12.418 5.68305 12.1898 5.51802 11.9352 5.40489C11.6806 5.29176 11.4052 5.23302 11.1266 5.23242C10.5813 5.23937 10.061 5.46262 9.68014 5.85308C9.29932 6.24354 9.08915 6.76926 9.09584 7.31464C9.09548 7.47401 9.11294 7.63293 9.14791 7.78842C8.33585 7.74426 7.54256 7.52737 6.82099 7.15223C6.09942 6.77709 5.46619 6.25233 4.96356 5.613C4.78303 5.93245 4.68845 6.29327 4.68906 6.66021C4.6868 7.00087 4.76758 7.33695 4.92439 7.63937C5.0812 7.9418 5.30934 8.20147 5.58906 8.39592C5.26632 8.38594 4.95084 8.2977 4.66977 8.13878V8.16449C4.66538 8.63993 4.82489 9.10237 5.12146 9.47399C5.41804 9.84561 5.83356 10.1037 6.29813 10.2049C5.99957 10.2884 5.6856 10.3007 5.38141 10.2409C5.50562 10.6504 5.75559 11.0103 6.09587 11.2697C6.43615 11.5291 6.84947 11.6748 7.2772 11.6861C6.85958 12.0228 6.37863 12.2722 5.86283 12.4197C5.34703 12.5671 4.80689 12.6095 4.27441 12.5443C5.19791 13.1538 6.28 13.4788 7.38649 13.479C8.15594 13.474 8.91676 13.3164 9.62484 13.0152C10.3329 12.714 10.9742 12.2753 11.5114 11.7244C12.0487 11.1736 12.4713 10.5216 12.7547 9.80622C13.0382 9.09084 13.1768 8.32633 13.1626 7.55699C13.1626 7.46635 13.1626 7.37571 13.1574 7.28764C13.5563 6.99171 13.8989 6.62682 14.1693 6.21021" fill="white"/>
</svg>
