<svg width="28" height="28" viewBox="0 0 28 28" fill="none" xmlns="http://www.w3.org/2000/svg">
<circle cx="14" cy="14" r="14" fill="#B595DE"/>
<path fill-rule="evenodd" clip-rule="evenodd" d="M20.91 9.91H7.09C6.69538 9.90786 6.3124 9.7761 6 9.535V20.454C6 21.055 6.49 21.544 7.09 21.544H20.91C21.51 21.544 22 21.055 22 20.454V17.908H19.455C18.7799 17.9075 18.1326 17.6391 17.6553 17.1617C17.1779 16.6844 16.9095 16.0371 16.909 15.362C16.9098 14.6871 17.1783 14.0401 17.6556 13.5629C18.133 13.0858 18.7801 12.8175 19.455 12.817H22V11C22 10.398 21.51 9.909 20.91 9.909V9.91ZM20.91 7H7.09C6.86535 7.00099 6.64649 7.07136 6.46337 7.2015C6.28025 7.33163 6.14181 7.51517 6.067 7.727L20.182 7.728C20.783 7.728 21.272 8.218 21.272 8.818V9.218C21.543 9.274 21.788 9.395 22 9.555V8.092C22 7.49 21.51 7 20.91 7ZM17.636 15.3629C17.6365 15.8451 17.8284 16.3074 18.1694 16.6482C18.5104 16.9891 18.9728 17.1807 19.455 17.1809H22V13.5449H19.455C18.9728 13.5452 18.5104 13.7368 18.1694 14.0776C17.8284 14.4185 17.6365 14.8807 17.636 15.3629ZM20.546 15.3629C20.546 15.9649 20.056 16.4549 19.455 16.4549C18.853 16.4549 18.364 15.9649 18.364 15.3639C18.364 14.7619 18.854 14.2729 19.454 14.2729C20.056 14.2729 20.545 14.7629 20.545 15.3629H20.546ZM20.5449 8.81908V9.18208H7.09089C6.61689 9.18208 6.21689 8.87708 6.06689 8.45508H20.1819C20.3829 8.45508 20.5449 8.61908 20.5449 8.81908Z" fill="white"/>
</svg>
