<svg width="28" height="28" viewBox="0 0 28 28" fill="none" xmlns="http://www.w3.org/2000/svg">
<path fill-rule="evenodd" clip-rule="evenodd" d="M28 14C28 21.732 21.732 28 14 28C6.26801 28 0 21.732 0 14C0 6.26801 6.26801 0 14 0C21.732 0 28 6.26801 28 14ZM13.0178 6.35263L6.64281 11.8171C6.31875 12.0944 6.13281 12.4997 6.13281 12.9263V19.8751C6.13281 20.2625 6.28673 20.6341 6.56071 20.9081C6.83469 21.1821 7.20629 21.336 7.59375 21.336H10.4269C10.8144 21.336 11.186 21.1821 11.4599 20.9081C11.7339 20.6341 11.8878 20.2625 11.8878 19.8751V17.2188C11.8878 16.8523 12.1853 16.5548 12.5519 16.5548H15.3856C15.7522 16.5548 16.0497 16.8523 16.0497 17.2188V19.8751C16.0497 20.2625 16.2036 20.6341 16.4776 20.9081C16.7515 21.1821 17.1231 21.336 17.5106 21.336H20.3438C20.7312 21.336 21.1028 21.1821 21.3768 20.9081C21.6508 20.6341 21.8047 20.2625 21.8047 19.8751V12.9263C21.8047 12.4997 21.6187 12.0944 21.2947 11.8171L14.9197 6.35263C14.6549 6.12558 14.3176 6.00077 13.9688 6.00077C13.6199 6.00077 13.2826 6.12558 13.0178 6.35263Z" fill="url(#paint0_linear_3579_3475)"/>
<defs>
<linearGradient id="paint0_linear_3579_3475" x1="28" y1="0" x2="-0.530088" y2="27.449" gradientUnits="userSpaceOnUse">
<stop stop-color="#5A50D0"/>
<stop offset="0.114583" stop-color="#5D4ADD"/>
<stop offset="0.414589" stop-color="#9F43D7"/>
<stop offset="0.664756" stop-color="#CF5A7C"/>
<stop offset="0.839685" stop-color="#EC811E"/>
<stop offset="0.979167" stop-color="#FFA858"/>
</linearGradient>
</defs>
</svg>
