<svg width="31" height="29" viewBox="0 0 31 29" fill="none" xmlns="http://www.w3.org/2000/svg">
<path d="M0.5 6.68468C0.5 5.95459 1.02566 5.33054 1.74514 5.20649L26.7451 0.896147C27.6619 0.738081 28.5 1.44403 28.5 2.37434V26C28.5 26.8284 27.8284 27.5 27 27.5H2C1.17157 27.5 0.5 26.8284 0.5 26V6.68468Z" fill="#949494" stroke="#DBDBDB"/>
<path d="M0 8.61148C0 7.60538 0.747391 6.75589 1.7453 6.62776L27.7453 3.28949C28.9412 3.13595 30 4.06753 30 5.27321V27C30 28.1046 29.1046 29 28 29H2C0.89543 29 0 28.1046 0 27V8.61148Z" fill="#B3B3B3"/>
<path d="M0 6H29C30.1046 6 31 6.89543 31 8V27C31 28.1046 30.1046 29 29 29H2C0.89543 29 0 28.1046 0 27V6Z" fill="#D9D9D9"/>
<path d="M18 17.5C18 15.567 19.567 14 21.5 14H31V21H21.5C19.567 21 18 19.433 18 17.5Z" fill="#919191"/>
<circle cx="21.5" cy="17.5" r="1.5" fill="#CFCFCF"/>
</svg>
