<svg width="14" height="17" viewBox="0 0 14 17" fill="none" xmlns="http://www.w3.org/2000/svg">
<g id="Recommend">
<g id="&#231;&#188;&#150;&#231;&#187;&#132;">
<path id="&#229;&#189;&#162;&#231;&#138;&#182;" fill-rule="evenodd" clip-rule="evenodd" d="M10.8369 0.644333C10.8366 0.644074 10.8364 0.643814 10.8362 0.643555H10.8372C10.8371 0.643814 10.837 0.644074 10.8369 0.644333ZM10.8369 0.644333C10.1821 2.31304 9.27838 4.26092 6.92619 4.0669C6.94493 3.66 7.31293 3.32465 7.67181 2.99762C7.84658 2.83835 8.01919 2.68106 8.14825 2.51843H8.31046C6.57545 2.20066 4.93072 3.28688 3.9967 3.90373C3.90694 3.96301 3.82374 4.01795 3.74766 4.0669C-0.817128 7.0056 -0.500668 15.4694 5.62154 16.4566C14.2242 17.8428 15.374 5.76785 10.8369 0.644333ZM10.7552 11.3208C10.2337 18.1943 -1.72706 14.4874 3.5025 8.63187C3.5461 8.81204 3.52526 9.03659 3.50331 9.27318C3.47214 9.60898 3.43873 9.96904 3.5841 10.2609C3.58802 10.269 3.59182 10.2768 3.59552 10.2844C3.71834 10.5368 3.72061 10.5414 3.99112 10.669C4.95622 11.0231 5.71855 10.2954 6.3834 9.66071C6.68997 9.36804 6.97582 9.09517 7.25126 8.95729C7.95979 8.67467 8.15839 8.67245 8.35653 8.67024C8.45561 8.66914 8.55457 8.66803 8.71712 8.63187C8.64524 8.82381 8.51133 9.06488 8.36149 9.33462C7.91388 10.1404 7.32419 11.2019 7.82148 11.9736C8.51897 13.0093 9.54146 12.2285 10.2898 11.6571C10.4619 11.5257 10.6194 11.4054 10.7552 11.3208Z" fill="white"/>
</g>
</g>
</svg>
