<svg width="13" height="16" viewBox="0 0 13 16" fill="none" xmlns="http://www.w3.org/2000/svg">
<g id="Recommend">
<g id="&#231;&#188;&#150;&#231;&#187;&#132;">
<path id="&#229;&#189;&#162;&#231;&#138;&#182;" fill-rule="evenodd" clip-rule="evenodd" d="M10.2021 0.000779031C10.2019 0.000519336 10.2016 0.000259659 10.2014 0H10.2024C10.2023 0.00025967 10.2022 0.000519347 10.2021 0.000779031ZM10.2021 0.000779031C9.5473 1.66949 8.64361 3.61737 6.29143 3.42334C6.31017 3.01644 6.67816 2.6811 7.03704 2.35406C7.21181 2.1948 7.38442 2.03751 7.51348 1.87488H7.67569C5.94068 1.55711 4.29596 2.64332 3.36193 3.26017C3.27217 3.31945 3.18898 3.37439 3.11289 3.42334C-1.45189 6.36204 -1.13543 14.8259 4.98678 15.8131C13.5895 17.1992 14.7392 5.1243 10.2021 0.000779031ZM10.1204 10.6772C9.59898 17.5508 -2.36182 13.8438 2.86773 7.98832C2.91133 8.16849 2.8905 8.39303 2.86854 8.62963C2.83738 8.96542 2.80396 9.32549 2.94933 9.61739C2.95326 9.62544 2.95706 9.63325 2.96075 9.64084C3.08357 9.89322 3.08584 9.89788 3.35635 10.0254C4.32146 10.3796 5.08379 9.65183 5.74863 9.01715C6.05521 8.72449 6.34105 8.45161 6.61649 8.31374C7.32503 8.03112 7.52362 8.0289 7.72177 8.02669C7.82084 8.02558 7.91981 8.02448 8.08236 7.98832C8.01048 8.18025 7.87656 8.42132 7.72672 8.69106C7.27912 9.49683 6.68942 10.5584 7.18671 11.3301C7.8842 12.3658 8.90669 11.585 9.65507 11.0135C9.8271 10.8822 9.98465 10.7619 10.1204 10.6772Z" fill="#F25E5E"/>
</g>
</g>
</svg>
