<svg width="18" height="18" viewBox="0 0 18 18" fill="none" xmlns="http://www.w3.org/2000/svg">
<path fill-rule="evenodd" clip-rule="evenodd" d="M9 0C4.04944 0 0 4.04944 0 9C0 13.9506 4.04944 18 9 18C13.9506 18 18 13.9506 18 9C18 4.04944 13.9506 0 9 0ZM2.23784 9C2.23784 5.28137 5.28137 2.23784 9 2.23784C12.7186 2.23784 15.7622 5.28137 15.7622 9C15.7622 12.7186 12.7186 15.7622 9 15.7622C5.28137 15.7622 2.23784 12.7186 2.23784 9ZM13.5504 6.29827C13.1054 5.8533 12.4266 5.85301 11.9813 6.29739L11.9804 6.29827L7.77578 10.4188L6.10713 8.75016C5.66187 8.3049 4.98245 8.3049 4.53719 8.75016C4.09193 9.19543 4.09193 9.87484 4.53719 10.3201L6.98908 12.772C7.43434 13.2173 8.11376 13.2173 8.55903 12.772L13.5626 7.76842L13.573 7.75459C13.7383 7.53412 13.8186 7.26303 13.8186 7.00662C13.8186 6.75224 13.7387 6.48662 13.5504 6.29827Z" fill="#229C1F"/>
</svg>
