<svg width="18" height="18" viewBox="0 0 18 18" fill="none" xmlns="http://www.w3.org/2000/svg">
<path d="M0.000488281 8.99832C0.000488281 7.21862 0.52823 5.47889 1.51698 3.99912C2.50573 2.51936 3.91107 1.36602 5.5553 0.68496C7.19952 0.00389879 9.00878 -0.174298 10.7543 0.172904C12.4998 0.520106 14.1031 1.37711 15.3616 2.63555C16.62 3.89399 17.477 5.49733 17.8242 7.24283C18.1714 8.98834 17.9932 10.7976 17.3122 12.4418C16.6311 14.0861 15.4778 15.4914 13.998 16.4801C12.5182 17.4689 10.7785 17.9966 8.9988 17.9966C7.81713 17.9966 6.64702 17.7639 5.5553 17.3117C4.46357 16.8595 3.4716 16.1967 2.63603 15.3611C0.948522 13.6736 0.000488281 11.3848 0.000488281 8.99832ZM2.25007 8.99832C2.25007 10.3331 2.64587 11.6379 3.38743 12.7477C4.12899 13.8575 5.183 14.7225 6.41617 15.2333C7.64934 15.7441 9.00629 15.8778 10.3154 15.6174C11.6245 15.357 12.8271 14.7142 13.7709 13.7704C14.7147 12.8266 15.3575 11.6241 15.6179 10.3149C15.8783 9.00581 15.7446 7.64886 15.2338 6.41569C14.723 5.18252 13.858 4.12851 12.7482 3.38695C11.6384 2.64539 10.3336 2.24958 8.9988 2.24958C7.20957 2.25167 5.49421 2.96336 4.22903 4.22854C2.96385 5.49372 2.25215 7.20908 2.25007 8.99832ZM8.9988 11.2479C8.85109 11.2479 8.70483 11.2188 8.56836 11.1623C8.4319 11.1058 8.3079 11.0229 8.20346 10.9185C8.09901 10.814 8.01616 10.69 7.95963 10.5535C7.90311 10.4171 7.87401 10.2708 7.87401 10.1231V5.62395C7.87401 5.32564 7.99252 5.03954 8.20346 4.8286C8.41439 4.61766 8.70049 4.49916 8.9988 4.49916C9.29711 4.49916 9.58321 4.61766 9.79415 4.8286C10.0051 5.03954 10.1236 5.32564 10.1236 5.62395V8.99832H12.3732C12.6715 8.99832 12.9576 9.11682 13.1685 9.32776C13.3795 9.5387 13.498 9.82479 13.498 10.1231C13.498 10.4214 13.3795 10.7075 13.1685 10.9185C12.9576 11.1294 12.6715 11.2479 12.3732 11.2479H8.9988Z" fill="#FFA858"/>
</svg>
